<svg width="616" height="417" viewBox="0 0 616 417" fill="none" xmlns="http://www.w3.org/2000/svg">
<path d="M550.488 74.1649C550.488 74.1649 585.584 69.2551 577.373 26.8851C577.373 26.9411 538.165 35.7396 550.488 74.1649Z" fill="black"/>
<path d="M552.25 65.3804C552.942 63.2388 553.74 61.1332 554.642 59.0718C554.642 58.792 554.712 58.5262 554.74 58.2605C554.74 57.6869 554.838 57.0995 554.88 56.5119C554.978 55.253 555.062 53.9801 555.132 52.7212C555.286 50.1893 555.44 47.6575 555.482 45.1256C555.475 45.1087 555.473 45.0905 555.476 45.0726C555.478 45.0547 555.484 45.0376 555.495 45.0228C555.505 45.008 555.519 44.9959 555.535 44.9875C555.551 44.9792 555.569 44.9748 555.587 44.9748C555.605 44.9748 555.622 44.9792 555.638 44.9875C555.654 44.9959 555.668 45.008 555.679 45.0228C555.689 45.0376 555.695 45.0547 555.698 45.0726C555.7 45.0905 555.698 45.1087 555.692 45.1256C555.692 47.6575 555.762 50.2033 555.692 52.7351C555.692 53.9941 555.566 55.267 555.482 56.5259C555.482 56.8057 555.482 57.0855 555.482 57.3792C557.435 53.1565 559.776 49.1246 562.476 45.3354C563.679 43.6569 564.956 42.0343 566.309 40.4676C567.707 38.8729 569.19 37.3482 570.603 35.7676C570.701 35.6557 570.841 35.7676 570.757 35.9215C568.23 38.7065 565.964 41.7172 563.987 44.9158C562.923 46.5244 561.916 48.175 560.951 49.8676L561.287 49.7417L562.532 49.2241L565.399 48.147L570.995 46.0488C571.106 46.0488 571.176 46.2027 571.064 46.2447C569.204 46.986 567.358 47.7694 565.469 48.5667L562.672 49.7417L561.273 50.3012C560.979 50.4482 560.669 50.5608 560.35 50.6369C559.636 51.9098 558.951 53.1828 558.293 54.4837C556.664 57.7675 555.231 61.1445 553.999 64.5971L553.747 65.3244C554.669 64.7824 555.633 64.3146 556.629 63.9256L560.266 62.2611C562.728 61.128 565.162 59.981 567.526 58.6521C567.651 58.6521 567.749 58.778 567.637 58.848C565.217 60.1628 562.853 61.5616 560.434 62.8765C559.231 63.5293 558.014 64.1588 556.783 64.7649C555.758 65.3731 554.644 65.8168 553.481 66.0798C552.313 69.2935 551.543 72.6383 551.187 76.0393C550.796 80.8233 550.838 85.6632 550.726 90.4611H550.6C550.25 86.0968 550.054 81.7045 550.026 77.3402C550.128 73.2608 550.878 69.2235 552.25 65.3804Z" fill="white"/>
<path d="M557.664 40.4676C557.997 42.9426 558.114 45.442 558.014 47.9373C558.014 48.0072 557.902 48.0072 557.902 47.9373C557.762 45.4614 557.734 42.9855 557.454 40.5236C557.44 40.3837 557.65 40.3277 557.664 40.4676Z" fill="#263238"/>
<path d="M567.693 42.5798C569.265 41.9851 570.777 41.2452 572.212 40.3696C572.223 40.3632 572.237 40.3592 572.25 40.3578C572.264 40.3565 572.277 40.3578 572.29 40.3617C572.303 40.3655 572.315 40.372 572.326 40.3805C572.336 40.3891 572.345 40.3997 572.351 40.4116C572.358 40.4235 572.362 40.4366 572.363 40.4501C572.365 40.4636 572.363 40.4772 572.359 40.4902C572.356 40.5032 572.349 40.5153 572.341 40.5258C572.332 40.5363 572.321 40.5451 572.309 40.5515C570.907 41.5034 569.37 42.239 567.749 42.7336C567.665 42.7616 567.609 42.6217 567.693 42.5798Z" fill="#263238"/>
<path d="M549.355 141.49C549.355 137.615 549.467 133.74 549.509 129.852C549.579 116.983 549.691 104.1 549.915 91.2165C550.092 80.9585 550.33 70.7332 550.628 60.5405C550.632 60.5126 550.642 60.4861 550.66 60.4639C550.677 60.4417 550.7 60.4247 550.726 60.4147V52.0218C550.726 51.9519 550.81 51.9239 550.894 51.9239C550.978 51.9239 551.062 51.9239 551.062 52.0218C551.062 54.8194 551.062 57.617 551.062 60.4147C551.062 60.4147 551.132 60.4147 551.132 60.5405C551.649 78.7251 552.111 96.9096 552.223 115.094C552.223 118.801 552.223 122.508 552.223 126.201C552.344 138.063 552.391 149.929 552.363 161.8C552.363 163.689 552.363 165.577 552.363 167.466C552.363 178.334 552.251 189.189 552.251 200.044C552.251 200.631 551.593 200.925 550.852 200.953C550.111 200.981 549.229 200.659 549.229 200.002C549.229 188.028 549.146 176.054 549.146 164.081C549.327 156.583 549.299 149.043 549.355 141.49Z" fill="#263238"/>
<path d="M564.015 129.712C564.015 129.712 580.898 117.206 596.929 125.655C612.959 134.104 615.463 166.682 615.463 166.682C615.463 166.682 591.935 170.053 577.108 155.939C562.84 142.357 564.015 129.712 564.015 129.712Z" fill="black"/>
<path d="M559.412 130.481C562.521 129.254 565.885 128.816 569.204 129.208C569.889 129.091 570.58 129.02 571.274 128.998L573.652 128.83C575.303 128.691 576.94 128.593 578.576 128.481C581.905 128.229 585.248 128.019 588.578 127.683C588.607 127.683 588.636 127.695 588.657 127.716C588.678 127.737 588.69 127.766 588.69 127.795C588.69 127.825 588.678 127.854 588.657 127.875C588.636 127.895 588.607 127.907 588.578 127.907C585.29 128.327 582.017 128.789 578.716 129.124C577.023 129.292 575.331 129.474 573.624 129.586L572.393 129.712L573.89 130.075C576.541 130.85 579.105 131.896 581.542 133.195C582.87 133.433 584.185 133.796 585.5 134.104C587.584 134.608 589.697 135.139 591.739 135.685C595.837 136.762 599.894 137.965 603.965 139.154C604.09 139.154 604.035 139.392 603.895 139.35C599.838 138.356 595.754 137.447 591.683 136.468C589.697 136.006 587.71 135.545 585.738 135.069L584.185 134.705C588.724 137.512 592.777 141.036 596.187 145.141C599.499 149.174 602.316 153.588 604.58 158.289C604.58 158.415 604.468 158.527 604.398 158.401C601.627 153.57 598.236 149.122 594.313 145.169C594.383 145.392 594.453 145.616 594.537 145.84C594.844 146.833 595.152 147.826 595.474 148.819C596.089 150.806 596.733 152.792 597.32 154.792C597.32 154.918 597.152 154.974 597.11 154.792C596.397 152.862 595.712 150.918 595.04 148.987L594.047 146.19C593.865 145.7 593.697 145.197 593.543 144.707L593.376 144.259C591.5 142.422 589.499 140.716 587.389 139.154C584.608 137.102 581.599 135.379 578.422 134.02L578.59 134.873C578.758 135.643 578.94 136.412 579.094 137.181C579.429 138.79 579.737 140.385 580.045 141.993C580.688 145.253 581.08 148.568 581.681 151.785C581.681 151.925 581.514 151.981 581.486 151.785C580.73 148.498 579.751 145.266 579.01 141.993C578.646 140.343 578.282 138.692 577.933 137.042L577.471 134.733C577.365 134.305 577.285 133.871 577.233 133.433L576.31 133.055C571.89 131.418 566.994 130.257 562.322 131.139C560.089 131.551 557.992 132.511 556.22 133.931C554.448 135.352 553.055 137.189 552.167 139.28C552.013 139.643 551.425 139.419 551.509 139.042C552.073 137.1 553.081 135.316 554.452 133.831C555.824 132.345 557.522 131.198 559.412 130.481Z" fill="white"/>
<path d="M585.318 144.399L586.717 150.806C587.248 152.861 587.641 154.95 587.892 157.058C587.892 157.142 587.78 157.142 587.752 157.058C587.146 154.994 586.679 152.891 586.353 150.764C585.934 148.652 585.514 146.567 585.108 144.427C585.113 144.404 585.125 144.383 585.142 144.368C585.159 144.352 585.18 144.341 585.203 144.338C585.226 144.335 585.25 144.339 585.271 144.35C585.291 144.361 585.308 144.378 585.318 144.399Z" fill="#263238"/>
<path d="M601.587 149.827C603.741 150.918 605.783 152.163 608.063 153.058C608.081 153.06 608.098 153.065 608.113 153.075C608.127 153.084 608.14 153.097 608.149 153.112C608.158 153.127 608.163 153.144 608.164 153.162C608.166 153.18 608.163 153.197 608.156 153.213C608.149 153.23 608.138 153.244 608.124 153.255C608.111 153.267 608.095 153.274 608.078 153.278C608.061 153.282 608.043 153.282 608.026 153.278C608.008 153.274 607.993 153.265 607.979 153.254C605.775 152.248 603.623 151.133 601.531 149.911C601.531 149.911 601.531 149.799 601.587 149.827Z" fill="#263238"/>
<path d="M560.224 106.743C560.224 106.743 580.856 108.058 590.452 94.4477C600.048 80.8373 597.908 61.4078 597.908 61.4078C597.908 61.4078 576.24 64.0516 567.637 73.8153C559.035 83.579 560.224 106.743 560.224 106.743Z" fill="black"/>
<path d="M550.544 127.096C551.257 124.886 552.139 122.704 552.978 120.535C553.817 118.367 554.629 116.339 555.538 114.353C557.388 110.197 559.452 106.14 561.721 102.197C563.119 99.6932 564.742 97.2593 566.351 94.8673C566.351 94.5036 566.448 94.1259 566.504 93.7622L566.798 91.8459C566.994 90.545 567.232 89.2441 567.442 87.9292C567.917 85.1316 568.505 82.264 568.966 79.4104C568.966 79.2706 569.19 79.2706 569.176 79.4104C568.757 82.2081 568.477 85.0057 568.085 87.8733C567.889 89.2721 567.707 90.6709 567.498 92.0697C567.428 92.5733 567.344 93.0628 567.26 93.5664C570.415 88.9693 573.824 84.5515 577.471 80.3337C577.961 79.7601 578.478 79.2006 578.982 78.6411C578.982 78.4872 579.108 78.3334 579.164 78.1655C579.318 77.7738 579.471 77.3822 579.611 76.9905C579.919 76.1652 580.213 75.3539 580.507 74.5286C581.094 72.906 581.612 71.2834 582.045 69.6188C582.057 69.595 582.078 69.5764 582.103 69.5663C582.127 69.5563 582.155 69.5554 582.18 69.5638C582.205 69.5723 582.227 69.5895 582.241 69.6124C582.254 69.6353 582.26 69.6624 582.255 69.6887C581.835 71.3813 581.402 73.0738 580.856 74.7384C580.618 75.5497 580.353 76.3471 580.073 77.1444C580.073 77.2703 579.975 77.3962 579.919 77.536C582.563 74.6545 585.304 71.9408 588.088 69.1432C588.11 69.1301 588.135 69.1245 588.16 69.1275C588.185 69.1304 588.208 69.1417 588.226 69.1595C588.243 69.1773 588.255 69.2005 588.258 69.2254C588.261 69.2504 588.255 69.2756 588.242 69.297C582.9 74.8695 578.007 80.8565 573.61 87.2018C574.116 87.0434 574.629 86.9126 575.149 86.8101C576.73 86.5024 578.338 86.2786 579.933 86.0828C583.304 85.6491 586.647 85.2295 590.004 84.684C590.026 84.6919 590.044 84.7062 590.057 84.725C590.07 84.7437 590.077 84.766 590.077 84.7889C590.077 84.8117 590.07 84.834 590.057 84.8528C590.044 84.8715 590.026 84.8858 590.004 84.8938C586.815 85.5232 583.64 86.2926 580.465 86.978C578.968 87.3137 577.471 87.6075 575.96 87.9012C574.732 88.1674 573.521 88.5132 572.338 88.9363C572.002 89.4119 571.652 89.8875 571.33 90.3352C569.82 92.5453 568.365 94.7834 566.938 97.0634C567.637 96.9096 568.337 96.7837 569.05 96.6438C570.645 96.3361 572.24 96.0423 573.834 95.7905C576.982 95.273 580.143 94.7134 583.248 94.014C583.27 94.022 583.288 94.0363 583.301 94.0551C583.314 94.0738 583.321 94.0961 583.321 94.1189C583.321 94.1418 583.314 94.1641 583.301 94.1828C583.288 94.2016 583.27 94.2159 583.248 94.2238C580.087 94.9652 576.968 95.8185 573.834 96.6578C572.324 97.0634 570.799 97.4271 569.274 97.7628L566.98 98.2664C566.673 98.3483 566.36 98.3998 566.043 98.4203C563.035 103.302 560.196 108.31 557.58 113.416C556.433 115.654 555.328 117.934 554.251 120.214C553.174 122.494 552.209 124.942 551.187 127.32C551.132 127.809 550.348 127.613 550.544 127.096Z" fill="white"/>
<path d="M571.652 79.6763C572.044 77.704 572.463 75.7457 572.897 73.7873C572.897 73.6474 573.135 73.7873 573.107 73.7873C572.715 75.7317 572.337 77.662 571.988 79.6064C571.701 81.5508 571.313 83.4791 570.827 85.3835H570.757C570.924 83.4628 571.223 81.5559 571.652 79.6763Z" fill="#263238"/>
<path d="M583.696 79.1027C584.647 78.6271 585.669 78.2355 586.662 77.8578L588.228 77.2423L589.026 76.9206C589.33 76.8323 589.621 76.7053 589.893 76.5429C590.047 76.431 590.145 76.6968 589.991 76.7248C589.682 76.8047 589.385 76.9271 589.11 77.0885L588.326 77.4382L586.816 78.1096C585.827 78.5658 584.813 78.9674 583.78 79.3126C583.654 79.3545 583.584 79.1587 583.696 79.1027Z" fill="#263238"/>
<path d="M539.157 90.517C539.157 90.517 526.568 67.1709 507.614 63.5759C488.66 59.981 476.994 79.5084 476.994 79.5084C476.994 79.5084 490.842 97.2033 508.286 100.295C525.729 103.386 539.157 90.517 539.157 90.517Z" fill="black"/>
<path d="M494.885 74.025C499.832 73.3512 504.85 73.3983 509.783 74.1649L508.943 73.7173C507.545 73.0039 506.146 72.3185 504.747 71.5352C501.837 70.0244 498.886 68.4018 495.837 67.1849C495.819 67.1832 495.802 67.1774 495.787 67.168C495.772 67.1586 495.76 67.1458 495.751 67.1306C495.742 67.1154 495.737 67.0984 495.735 67.0808C495.734 67.0632 495.737 67.0456 495.744 67.0294C495.751 67.0132 495.762 66.9988 495.775 66.9875C495.789 66.9762 495.805 66.9683 495.822 66.9644C495.839 66.9604 495.857 66.9606 495.874 66.9649C495.891 66.9692 495.907 66.9774 495.92 66.989C498.886 68.3878 501.977 69.5349 504.957 70.9057C506.44 71.5911 507.908 72.3045 509.363 73.0739C510.3 73.5774 511.335 74.039 512.259 74.6405C516.429 75.4821 520.483 76.8254 524.33 78.6411L521.952 76.0673C520.19 74.123 518.441 72.0807 516.497 70.3182C516.399 70.2343 516.497 70.0804 516.651 70.1783C518.637 71.9828 520.735 73.6474 522.666 75.5218C523.603 76.445 524.498 77.3822 525.365 78.3194C525.799 78.809 526.247 79.3126 526.652 79.8301C533.178 83.3196 538.847 88.2137 543.252 94.1594C547.657 100.105 550.687 106.954 552.125 114.213C552.125 114.353 551.957 114.423 551.915 114.213C549.234 105.321 544.434 97.2135 537.927 90.587C530.939 83.4598 522.143 78.3682 512.482 75.8575C506.747 74.4003 500.817 73.862 494.913 74.2629C494.883 74.2319 494.864 74.1918 494.859 74.1487C494.854 74.1057 494.863 74.0622 494.885 74.025Z" fill="white"/>
<path d="M505.922 65.7721C507.37 66.6282 508.771 67.5621 510.118 68.5697C511.447 69.5656 512.675 70.6901 513.783 71.9268C513.796 71.9483 513.802 71.9735 513.799 71.9985C513.796 72.0234 513.785 72.0466 513.767 72.0644C513.749 72.0822 513.726 72.0934 513.701 72.0964C513.676 72.0994 513.651 72.0938 513.629 72.0807C512.37 70.9896 511.098 69.8846 509.783 68.8495C508.517 67.8049 507.185 66.8424 505.796 65.9679C505.684 65.7721 505.796 65.6462 505.922 65.7721Z" fill="#263238"/>
<path d="M495.5 69.6608C496.2 69.9545 496.899 70.2063 497.627 70.5001L499.739 71.3813C499.893 71.3813 499.809 71.689 499.655 71.6331L497.543 70.7658C496.829 70.4861 496.144 70.1503 495.43 69.8706C495.305 69.8146 495.361 69.6048 495.5 69.6608Z" fill="#263238"/>
<path d="M541.591 119.864C541.591 119.864 538.262 143 520.861 151.1C503.46 159.199 482.254 151.1 482.254 151.1C482.254 151.1 490.591 101.036 541.591 119.864Z" fill="black"/>
<path d="M494.242 136.048C495.837 135.867 497.431 135.601 499.026 135.307L501.362 134.859L502.579 134.622L503.978 133.307C507.281 130.414 510.844 127.834 514.623 125.599C516.681 124.381 518.811 123.288 521.001 122.326H520.666C518.763 122.41 516.847 122.48 514.945 122.578C511.126 122.746 507.307 122.83 503.488 123.081C503.348 123.081 503.362 122.872 503.488 122.872C507.307 122.606 511.126 122.186 514.945 121.85L520.54 121.361L523.407 121.109L524.135 121.039C525.128 120.661 526.135 120.312 527.142 120.004C531.909 118.36 537.04 118.084 541.956 119.207C546.334 120.326 550.698 123.193 551.831 127.809C551.831 127.963 551.621 128.075 551.551 127.907C549.915 124.061 545.634 122.116 541.76 121.319C539.163 120.813 536.499 120.761 533.884 121.165C533.7 122.356 533.405 123.526 533.003 124.662C532.528 126.285 532.052 127.921 531.604 129.544C530.611 132.789 529.52 136.006 528.569 139.336C528.561 139.357 528.547 139.375 528.528 139.389C528.509 139.402 528.487 139.409 528.464 139.409C528.441 139.409 528.419 139.402 528.4 139.389C528.381 139.375 528.367 139.357 528.359 139.336C529.17 136.076 529.856 132.803 530.625 129.544C531.017 127.935 531.423 126.341 531.814 124.746C532.035 123.632 532.329 122.534 532.695 121.459C531.17 121.726 529.662 122.08 528.177 122.522C525.488 123.316 522.853 124.283 520.288 125.417C520.036 127.068 519.673 128.705 519.295 130.327C518.805 132.369 518.288 134.398 517.63 136.384C517.63 136.41 517.62 136.435 517.602 136.453C517.583 136.472 517.558 136.482 517.532 136.482C517.506 136.482 517.481 136.472 517.463 136.453C517.445 136.435 517.434 136.41 517.434 136.384L517.518 136.006C517.91 134.104 518.33 132.23 518.721 130.327C519.043 128.817 519.351 127.278 519.673 125.753C517.518 126.732 515.392 127.795 513.336 128.97C513.336 129.446 513.182 129.922 513.112 130.369C512.986 131.167 512.846 131.95 512.692 132.747C512.371 134.524 512.007 136.3 511.587 138.077C510.799 141.488 509.799 144.847 508.594 148.134C508.609 148.152 508.617 148.174 508.617 148.197C508.617 148.22 508.609 148.242 508.594 148.26L508.496 148.386C508.478 148.401 508.456 148.411 508.432 148.413C508.408 148.415 508.384 148.409 508.364 148.397C508.344 148.384 508.328 148.366 508.319 148.343C508.31 148.321 508.308 148.297 508.314 148.274C509.126 144.847 510.035 141.448 510.79 138.007C511.168 136.286 511.545 134.566 511.895 132.845C512.063 131.978 512.217 131.111 512.385 130.257L512.511 129.474C510.169 130.856 507.904 132.364 505.726 133.992C501.979 136.813 498.508 139.984 495.361 143.462C495.235 143.602 494.998 143.462 495.109 143.252C496.438 141.518 497.753 139.811 499.306 138.203C500.187 137.265 501.096 136.356 502.02 135.405H501.726C500.914 135.545 500.103 135.657 499.278 135.769C497.669 135.992 496.061 136.146 494.438 136.328C494.158 136.272 494.102 136.062 494.242 136.048Z" fill="white"/>
<path d="M506.468 143.896C506.468 143.7 506.468 143.49 506.566 143.294C506.664 143.098 506.734 142.791 506.776 142.539C507.139 141 507.447 139.447 507.727 137.881C507.727 137.769 507.909 137.797 507.909 137.881C507.782 139.959 507.309 142.001 506.51 143.924C506.51 143.924 506.384 143.924 506.398 143.924L506.468 143.896Z" fill="#263238"/>
<path d="M520.973 143.518C520.976 143.494 520.988 143.473 521.006 143.458C521.024 143.442 521.047 143.434 521.071 143.434C521.56 141.378 522.036 139.322 522.47 137.265C522.693 136.174 522.917 135.097 523.127 134.006C523.239 133.419 523.351 132.845 523.449 132.258C523.495 131.737 523.622 131.228 523.826 130.747C523.836 130.729 523.85 130.715 523.867 130.705C523.885 130.694 523.904 130.689 523.924 130.689C523.944 130.689 523.964 130.694 523.981 130.705C523.998 130.715 524.013 130.729 524.022 130.747C524.031 131.798 523.885 132.844 523.589 133.852C523.365 134.985 523.155 136.118 522.903 137.237C522.4 139.517 521.826 141.797 521.183 144.036C521.174 144.06 521.158 144.082 521.137 144.097C521.115 144.112 521.09 144.12 521.064 144.12C521.038 144.12 521.012 144.112 520.991 144.097C520.969 144.082 520.953 144.06 520.945 144.036L520.973 143.518Z" fill="#263238"/>
<path d="M495.794 129.39C498.97 128.956 502.145 128.495 505.334 128.103C505.46 128.103 505.516 128.299 505.334 128.313C502.159 128.789 498.97 129.18 495.794 129.6C495.794 129.614 495.682 129.404 495.794 129.39Z" fill="#263238"/>
<path d="M550.502 65.6042C550.502 65.6042 561.147 18.8979 510.971 0C510.971 0.0279762 497.067 61.4778 550.502 65.6042Z" fill="black"/>
<path d="M539.675 39.1107C539.479 38.9988 539.312 38.8729 539.13 38.789L536.332 37.1944L530.513 33.9491C526.68 31.8089 522.889 29.5708 519.043 27.4726C518.917 27.4726 519.043 27.2348 519.155 27.2908C523.015 29.403 526.946 31.3613 530.835 33.4176L536.584 36.453L538.934 37.6979C537.255 34.5226 535.479 31.4173 533.506 28.4098C530.891 24.4092 528.009 20.6045 525.016 16.8696C524.984 16.8362 524.967 16.7917 524.968 16.7458C524.97 16.6999 524.989 16.6564 525.023 16.6249C525.056 16.5933 525.101 16.5763 525.146 16.5776C525.192 16.579 525.236 16.5985 525.267 16.6318C529.667 20.9162 533.562 25.6891 536.878 30.8577C536.878 30.7039 536.878 30.536 536.878 30.3822C536.878 29.2211 536.794 28.0601 536.78 26.8851C536.78 24.6051 536.85 22.325 536.78 20.0449C536.78 19.9051 536.976 19.919 536.99 20.0449C537.087 22.283 537.353 24.5211 537.479 26.7592C537.479 27.8783 537.591 28.9973 537.619 30.1304C537.619 30.7319 537.703 31.4173 537.619 32.0887C538.654 33.7253 539.647 35.3899 540.584 37.0825C542.271 40.1261 543.771 43.27 545.075 46.4965C545.075 45.3354 545.186 44.1604 545.256 42.9994C545.41 40.4536 545.718 37.9078 545.83 35.3479C545.83 35.3201 545.841 35.2934 545.861 35.2737C545.88 35.2541 545.907 35.243 545.935 35.243C545.963 35.243 545.989 35.2541 546.009 35.2737C546.029 35.2934 546.04 35.3201 546.04 35.3479C546.04 37.9078 546.11 40.4676 546.04 43.0274C546.04 44.3003 545.97 45.5732 545.886 46.8601C545.886 47.3217 545.886 47.8113 545.788 48.259C547.397 52.425 548.664 56.7148 549.579 61.086C550.447 65.7551 551.073 70.4661 551.453 75.2001C550.924 70.9361 550.035 66.7246 548.795 62.6108C548.166 60.4146 547.523 58.2185 546.809 56.0503C544.725 55.0572 542.725 53.8402 540.71 52.7212L534.402 49.2661C530.205 46.972 526.009 44.636 521.714 42.6078C521.603 42.6078 521.714 42.37 521.84 42.4259C526.205 44.4122 530.625 46.2866 534.919 48.4548C537.059 49.5179 539.116 50.6649 541.242 51.8539C542.99 52.8331 544.781 53.8122 546.445 54.9453C545.956 53.5465 545.452 52.0358 544.893 50.609C543.348 46.6908 541.607 42.8532 539.675 39.1107Z" fill="white"/>
<path d="M543.899 28.4378C543.899 28.2979 544.123 28.2979 544.123 28.4378C543.941 31.1095 543.843 33.7673 543.563 36.425C543.555 36.4497 543.539 36.4711 543.518 36.4863C543.496 36.5014 543.471 36.5095 543.445 36.5095C543.418 36.5095 543.393 36.5014 543.372 36.4863C543.35 36.4711 543.334 36.4497 543.326 36.425C543.424 33.7533 543.703 31.0955 543.899 28.4378Z" fill="#263238"/>
<path d="M519.84 37.3482C522.988 38.6211 526.149 39.8241 529.282 41.125C529.366 41.125 529.282 41.3069 529.282 41.2789C526.107 40.0899 522.974 38.789 519.826 37.5581C519.659 37.5161 519.714 37.3063 519.84 37.3482Z" fill="#263238"/>
<path d="M515.07 15.8066C518.141 17.2195 521.122 18.8219 523.995 20.6045C524.148 20.6884 523.995 20.9122 523.855 20.8283C520.945 19.1218 517.98 17.4992 514.958 15.9884C514.832 15.9325 514.958 15.7506 515.07 15.8066Z" fill="#263238"/>
<path d="M515.839 242.89H588.214V166.598H515.839V242.89Z" fill="black"/>
<path d="M593.194 193.609H589.487V394.227H593.194V193.609Z" fill="#263238"/>
<path d="M514.944 193.609H511.237V394.227H514.944V193.609Z" fill="#263238"/>
<path d="M552.097 193.609H548.39V394.227H552.097V193.609Z" fill="white"/>
<path d="M513.084 248.569H591.333V238.008H513.084V248.569Z" fill="white"/>
<path d="M2.83656 377.78C7.8977 379.537 157.764 382.56 163.405 379.133C164.055 378.782 166.497 329.19 166.497 329.19C166.322 328.487 168.817 323.707 172.648 317.081C183.333 298.436 204.28 265.047 204.28 265.047L115.341 238.142L78.8063 311.335L69.4924 329.998C69.4924 329.998 49.0721 337.994 31.2527 345.955C20.2869 350.822 10.727 355.304 8.4952 356.973C2.64326 361.437 -2.207 375.987 2.83656 377.78Z" fill="#AD6359"/>
<path d="M2.83586 377.78C7.897 379.537 157.763 382.56 163.404 379.133C164.054 378.782 166.497 329.19 166.497 329.19C166.321 328.487 168.816 323.707 172.647 317.082L78.7353 311.335L69.4214 329.998C69.4214 329.998 49.0011 337.994 31.1817 345.955C20.2159 350.822 10.656 355.304 8.42419 356.973C2.64254 361.437 -2.2077 375.987 2.83586 377.78Z" fill="white"/>
<path d="M2.22103 378.342C7.49305 380.188 157.482 382.753 163.264 379.239C165.46 377.921 168.114 354.812 166.497 329.207L69.7556 327.661C69.7556 327.661 13.7316 352.422 7.79177 356.956C1.85196 361.49 -2.99826 376.497 2.22103 378.342Z" fill="black"/>
<path opacity="0.1" d="M163.246 379.239C161.137 380.504 139.82 380.996 113.337 380.996L164.125 329.172H166.479C168.114 354.812 165.478 377.921 163.246 379.239Z" fill="black"/>
<path d="M4.46962 372.367C29.6347 372.192 131.139 373.808 156.023 375.548C156.233 375.548 156.233 375.689 156.023 375.706C131.086 376.427 29.5996 373.949 4.45203 372.789C3.92483 372.754 3.94242 372.385 4.46962 372.367Z" fill="#263238"/>
<path d="M17.5445 351.719C20.343 351.693 23.1163 352.25 25.6879 353.355C28.2594 354.459 30.5732 356.086 32.4819 358.133C35.9528 361.775 37.8853 366.616 37.8769 371.647C37.8661 371.678 37.8459 371.705 37.8192 371.724C37.7924 371.743 37.7604 371.753 37.7275 371.753C37.6947 371.753 37.6627 371.743 37.6359 371.724C37.6091 371.705 37.5889 371.678 37.5782 371.647C36.8022 366.651 34.4295 362.04 30.8151 358.505C27.2007 354.97 22.5388 352.7 17.5269 352.035C17.485 352.033 17.4457 352.014 17.4177 351.982C17.3897 351.951 17.3752 351.91 17.3776 351.868C17.3799 351.826 17.3987 351.787 17.4301 351.759C17.4614 351.731 17.5026 351.716 17.5445 351.719Z" fill="#263238"/>
<path d="M61.7951 330.051C71.8646 330.051 83.4806 333.829 89.5962 342.176C89.8422 342.493 89.3677 342.827 89.0689 342.668C80.3464 337.902 71.1381 334.084 61.6018 331.281C61.4617 331.232 61.3431 331.136 61.2668 331.009C61.1904 330.881 61.1612 330.731 61.1843 330.585C61.2073 330.438 61.2811 330.305 61.3927 330.207C61.5044 330.109 61.6468 330.054 61.7951 330.051Z" fill="#263238"/>
<path d="M53.9916 332.933C64.0612 332.933 75.6772 336.729 81.7927 345.076C82.0212 345.392 81.5642 345.726 81.2655 345.568C72.5429 340.802 63.3346 336.984 53.7983 334.18C53.6415 334.146 53.5038 334.052 53.4132 333.92C53.3226 333.787 53.2859 333.625 53.3105 333.466C53.3351 333.307 53.4192 333.164 53.5457 333.065C53.6722 332.966 53.8316 332.919 53.9916 332.933Z" fill="#263238"/>
<path d="M46.1718 335.832C56.2413 335.832 67.8573 339.628 73.9729 347.958C74.2013 348.292 73.7445 348.626 73.4457 348.468C64.7267 343.694 55.5175 339.876 45.9785 337.08C45.8217 337.045 45.684 336.952 45.5934 336.819C45.5028 336.687 45.4661 336.524 45.4907 336.366C45.5153 336.207 45.5994 336.063 45.7258 335.964C45.8523 335.865 46.0117 335.818 46.1718 335.832Z" fill="#263238"/>
<path d="M38.3514 338.732C48.421 338.732 60.037 342.528 66.1349 350.858C66.381 351.191 65.924 351.508 65.6253 351.35C56.8978 346.594 47.6906 342.776 38.1581 339.962C38.0179 339.913 37.8994 339.817 37.8231 339.69C37.7468 339.563 37.7176 339.413 37.7406 339.266C37.7636 339.12 37.8374 338.986 37.9491 338.888C38.0607 338.791 38.2031 338.735 38.3514 338.732Z" fill="#263238"/>
<path d="M150.03 351.543C161.33 351.771 160.996 369.327 149.679 369.116C138.362 368.905 138.713 351.314 150.03 351.543Z" fill="#263238"/>
<path d="M51.3915 303.058C56.5756 298.928 62.9197 303.163 65.9774 307.609C71.1305 315.322 74.161 324.256 74.7641 333.513C74.7677 333.554 74.7617 333.595 74.7465 333.633C74.7313 333.671 74.7074 333.705 74.6767 333.733C74.6459 333.76 74.6092 333.78 74.5694 333.79C74.5297 333.801 74.4881 333.802 74.4478 333.794C74.4002 333.972 74.3132 334.137 74.1933 334.277C74.0733 334.417 73.9235 334.528 73.7548 334.602C73.586 334.677 73.4028 334.712 73.2186 334.706C73.0344 334.7 72.8539 334.652 72.6905 334.567C65.6611 329.488 57.4016 324.937 52.0945 317.837C48.8434 313.602 46.5061 306.907 51.3915 303.058ZM63.3765 324.673C66.8912 327.256 70.4059 329.664 73.657 332.37C72.1075 327.274 70.301 322.259 68.2444 317.345C67.2306 314.983 66.0563 312.693 64.7297 310.491C62.6034 307.135 52.8677 298.542 51.6727 309.49C50.9697 315.447 59.2995 321.528 63.3765 324.603V324.673Z" fill="#263238"/>
<path d="M99.6477 337.59C90.861 338.802 81.8458 336.149 73.2876 334.655C73.0999 334.607 72.9262 334.516 72.7806 334.388C72.635 334.26 72.5216 334.1 72.4497 333.92C72.3778 333.74 72.3493 333.546 72.3666 333.353C72.384 333.16 72.4466 332.974 72.5495 332.81C72.5168 332.785 72.4902 332.753 72.4719 332.717C72.4536 332.68 72.4441 332.64 72.4441 332.599C72.4441 332.558 72.4536 332.518 72.4719 332.481C72.4902 332.444 72.5168 332.413 72.5495 332.388C79.5595 326.311 88.044 322.184 97.1522 320.421C102.424 319.489 109.946 321.036 110.631 327.626C111.193 333.864 104.762 336.904 99.6477 337.59ZM105.816 331.966C112.845 323.461 99.8234 322.529 95.9397 323.373C93.4324 323.966 90.9668 324.723 88.5589 325.64C83.6176 327.622 78.7788 329.851 74.0608 332.318C78.3136 332.792 82.4961 333.618 86.7488 334.251C91.7924 334.989 101.985 336.676 105.728 331.966H105.816Z" fill="#263238"/>
<path d="M179.448 316.748L79.6315 301.617C79.6315 301.617 127.607 205.983 157.306 154.088C173.825 125.233 219.006 123.827 240.973 158.394C270.32 204.647 293.096 247.86 306.065 271.848L328.717 273.781L323.831 310.773L248.67 327.661C219.85 331.175 199.605 279.791 199.148 280.669C195.493 287.365 179.448 316.748 179.448 316.748Z" fill="white"/>
<path d="M198.603 280.863C201.45 275.046 203.664 268.878 206.195 262.92C208.726 256.963 211.08 251.392 213.506 245.628C218.409 233.959 223.47 222.361 228.215 210.64C230.886 204.05 233.328 197.389 235.824 190.746C235.824 190.588 236.14 190.746 236.087 190.746C234.154 197.038 232.139 203.294 230.042 209.515C230.604 208.443 231.167 207.371 231.799 206.316C233.399 203.452 235.051 200.623 236.72 197.793C236.72 197.688 236.948 197.793 236.878 197.899C235.349 200.746 233.82 203.575 232.239 206.387C231.448 207.793 230.569 209.181 229.743 210.569C223.921 228.038 217.006 245.123 209.042 261.725C205.861 268.228 202.136 274.466 198.972 281.056C198.867 281.249 198.515 281.056 198.603 280.863Z" fill="white"/>
<path d="M177.217 298.998C182.032 291.565 193.49 269.124 197.584 261.321C205.897 245.611 213.488 229.566 220.676 213.311C224.735 204.12 228.531 194.859 232.292 185.545C232.292 185.545 232.415 185.545 232.397 185.545C226.659 202.301 220.084 218.758 212.697 234.856C205.387 250.988 181.768 294.447 177.551 299.139C177.357 299.35 177.094 299.192 177.217 298.998Z" fill="white"/>
<path d="M239.18 197.969C247.774 213.328 256.578 228.582 265.207 243.906C269.588 251.662 273.941 259.423 278.264 267.191C280.285 270.846 282.27 274.554 284.379 278.174C286.186 281.586 288.914 284.423 292.252 286.363C296.263 288.256 300.463 289.717 304.782 290.721C309.632 292.145 314.447 293.674 319.333 295.009C319.356 295.016 319.377 295.028 319.396 295.043C319.415 295.058 319.43 295.077 319.441 295.098C319.453 295.119 319.46 295.143 319.462 295.167C319.465 295.191 319.463 295.215 319.456 295.238C319.449 295.261 319.437 295.282 319.422 295.301C319.407 295.32 319.388 295.335 319.367 295.347C319.346 295.358 319.322 295.365 319.298 295.368C319.274 295.37 319.25 295.368 319.227 295.361C314.887 294.183 310.44 293.182 306.117 292.11C302.097 291.25 298.126 290.177 294.22 288.894C290.775 287.739 287.728 285.631 285.434 282.813C283.084 279.559 281.02 276.108 279.265 272.498C270.619 256.717 262.067 240.901 253.608 225.05C248.793 216.052 244.013 207.002 239.145 198.022C239.075 197.952 239.145 197.916 239.18 197.969Z" fill="white"/>
<path d="M181.715 302.742C175.722 301.652 169.607 301.125 163.579 300.352L145.426 297.997C133.371 296.433 92.3192 289.878 89.1911 288.859C89.1535 288.842 89.1215 288.815 89.099 288.781C89.0765 288.747 89.0645 288.706 89.0645 288.665C89.0645 288.624 89.0765 288.584 89.099 288.55C89.1215 288.516 89.1535 288.488 89.1911 288.472C92.1259 288.367 119.066 291.987 125.058 292.848C137.114 294.605 149.099 296.749 161.119 298.788C164.546 299.368 167.973 300.018 171.399 300.633C174.826 301.248 178.235 301.968 181.68 302.39C181.703 302.388 181.726 302.39 181.748 302.397C181.771 302.404 181.791 302.415 181.809 302.429C181.827 302.444 181.842 302.462 181.853 302.482C181.864 302.503 181.871 302.525 181.873 302.548C181.875 302.571 181.873 302.595 181.866 302.617C181.86 302.639 181.849 302.66 181.834 302.678C181.819 302.696 181.801 302.711 181.781 302.722C181.76 302.733 181.738 302.739 181.715 302.742Z" fill="white"/>
<path d="M119.276 404.773C121.174 399.747 216.738 284.272 222.959 282.233C223.68 281.97 262.833 312.477 262.833 312.477C264.397 314.762 341.914 301.933 341.914 301.933L338.645 394.598L198.866 385.495C198.866 385.495 179.536 395.775 161.822 404.07C150.944 409.219 141.313 413.524 138.607 414.122C131.525 415.528 117.326 409.781 119.276 404.773Z" fill="#AD6359"/>
<path d="M138.608 414.104C141.331 413.542 150.909 409.219 161.804 404.07C179.536 395.775 198.867 385.477 198.867 385.477L229.972 387.498L282.165 310.984C271.392 312.407 263.361 313.198 262.834 312.46C262.834 312.46 223.715 281.97 222.995 282.251C216.721 284.272 121.175 399.729 119.312 404.773C117.449 409.816 131.525 415.616 138.608 414.104Z" fill="white"/>
<path d="M118.433 404.984C120.436 399.835 216.405 284.448 222.836 282.357C225.279 281.548 244.504 294.658 262.869 312.565L200.905 386.865C200.905 386.865 145.584 413.226 138.273 414.702C130.963 416.178 116.43 410.045 118.433 404.984Z" fill="black"/>
<path d="M124.427 407.075C140.981 388.131 206.002 310.158 220.922 290.159C221.045 290.001 220.922 289.913 220.799 290.054C203.981 308.488 139.61 386.988 124.146 406.811C123.777 407.233 124.075 407.479 124.427 407.075Z" fill="#263238"/>
<path d="M148.607 410.642C150.454 408.54 151.843 406.076 152.687 403.408C153.531 400.739 153.811 397.925 153.51 395.143C152.999 390.135 150.591 385.514 146.779 382.226C146.656 382.138 146.481 382.349 146.586 382.472C149.864 386.319 151.808 391.124 152.124 396.168C152.441 401.212 151.115 406.223 148.343 410.449C148.318 410.484 148.307 410.528 148.314 410.57C148.32 410.613 148.344 410.652 148.378 410.677C148.413 410.703 148.457 410.714 148.5 410.707C148.543 410.701 148.581 410.677 148.607 410.642Z" fill="#263238"/>
<path d="M193.929 391.241C200.466 383.597 205.211 372.35 202.874 362.263C202.874 361.876 202.223 362.017 202.153 362.263C200.072 371.981 196.955 381.449 192.857 390.503C192.759 390.645 192.722 390.82 192.753 390.99C192.784 391.16 192.882 391.31 193.024 391.408C193.166 391.506 193.341 391.543 193.511 391.512C193.681 391.481 193.831 391.383 193.929 391.241Z" fill="#263238"/>
<path d="M186.565 395.283C193.12 387.621 197.847 376.374 195.528 366.305C195.422 365.918 194.877 366.041 194.807 366.305C192.725 376.023 189.609 385.49 185.511 394.545C185.413 394.685 185.375 394.858 185.404 395.026C185.434 395.194 185.529 395.343 185.669 395.441C185.809 395.539 185.982 395.577 186.15 395.548C186.318 395.518 186.467 395.423 186.565 395.283Z" fill="#263238"/>
<path d="M179.325 399.325C185.863 391.663 190.607 380.416 188.27 370.346C188.182 369.96 187.638 370.083 187.55 370.346C185.476 380.067 182.359 389.535 178.253 398.587C178.155 398.729 178.118 398.904 178.149 399.074C178.181 399.244 178.278 399.394 178.42 399.492C178.562 399.59 178.738 399.627 178.907 399.596C179.077 399.565 179.227 399.467 179.325 399.325Z" fill="#263238"/>
<path d="M172.032 403.349C178.57 395.705 183.297 384.458 180.977 374.388C180.889 373.984 180.327 374.125 180.257 374.388C178.172 384.106 175.056 393.573 170.96 402.629C170.865 402.771 170.83 402.945 170.863 403.113C170.896 403.281 170.994 403.429 171.136 403.525C171.278 403.621 171.452 403.656 171.621 403.623C171.789 403.59 171.937 403.491 172.032 403.349Z" fill="#263238"/>
<path d="M235.191 310.369C242.396 301.582 228.882 290.458 221.66 299.174C214.437 307.891 227.986 319.085 235.191 310.369Z" fill="#263238"/>
<path d="M196.793 406.741C194.878 398.077 196.793 388.886 197.549 380.205C197.584 380.018 197.661 379.841 197.776 379.689C197.89 379.536 198.038 379.413 198.209 379.328C198.379 379.243 198.567 379.198 198.757 379.198C198.948 379.198 199.136 379.242 199.306 379.326C199.333 379.297 199.365 379.273 199.402 379.256C199.438 379.24 199.477 379.231 199.517 379.231C199.557 379.231 199.597 379.24 199.633 379.256C199.669 379.273 199.702 379.297 199.728 379.326C206.363 385.796 211.176 393.9 213.681 402.822C215.052 408.094 214.121 415.615 207.601 416.881C201.468 417.935 197.918 411.784 196.793 406.741ZM202.909 412.417C211.977 418.656 211.819 405.687 210.659 401.873C209.87 399.42 208.913 397.024 207.794 394.703C205.417 389.941 202.801 385.302 199.957 380.803C199.834 385.09 199.342 389.326 199.078 393.614C198.744 398.71 197.918 408.99 202.909 412.417Z" fill="#263238"/>
<path d="M227.547 355.884C232.098 360.699 228.408 367.377 224.225 370.803C216.955 376.549 208.3 380.276 199.13 381.611C199.09 381.617 199.048 381.613 199.009 381.6C198.97 381.587 198.935 381.566 198.906 381.537C198.877 381.508 198.855 381.472 198.842 381.433C198.829 381.394 198.826 381.353 198.832 381.312C198.64 381.285 198.457 381.212 198.298 381.101C198.14 380.989 198.01 380.842 197.919 380.671C197.828 380.499 197.779 380.309 197.776 380.115C197.773 379.921 197.815 379.729 197.9 379.555C202.381 372.086 206.248 363.528 212.873 357.658C216.756 354.214 223.259 351.332 227.547 355.884ZM207.003 369.608C204.719 373.228 202.61 376.954 200.185 380.486C205.132 378.517 209.976 376.3 214.7 373.844C216.975 372.631 219.16 371.257 221.238 369.731C224.419 367.341 232.168 356.92 221.238 356.639C215.105 356.481 209.745 365.285 207.003 369.608Z" fill="#263238"/>
<path d="M317.592 273.06C317.592 273.06 416.724 262.393 455.948 272.955C510.636 287.681 516.91 353.406 474.786 378.395C421.416 410.027 236.263 392.454 236.263 392.454L287.946 305.343C287.946 305.343 365.515 290.88 435.035 296.556L294.747 313.918L317.592 273.06Z" fill="white"/>
<path d="M284.362 311.177C284.413 311.027 284.454 310.875 284.485 310.72L284.59 310.333C284.59 310.035 284.748 309.736 284.836 309.437C285.03 308.822 285.258 308.242 285.504 307.68C285.75 307.117 285.996 306.502 286.277 305.922C286.578 305.369 286.912 304.835 287.279 304.323C287.279 304.323 287.384 304.323 287.42 304.235H287.507C287.507 304.235 287.595 304.235 287.648 304.235H287.771C296.294 302.882 354.075 296.327 362.651 295.624C371.227 294.921 379.873 294.271 388.66 293.779C405.942 292.883 423.262 292.953 440.536 293.99C442.153 294.078 443.77 294.219 445.387 294.359C445.738 294.254 446.107 294.201 446.459 294.113C447.302 293.937 448.128 293.744 448.972 293.603C450.553 293.34 452.135 293.164 453.716 292.953C457.003 292.549 460.289 292.321 463.575 291.793C463.768 291.793 463.839 292.092 463.575 292.127C460.271 292.778 457.003 293.691 453.699 294.324L450.834 294.869C457.161 295.501 463.452 296.31 469.743 297.224C469.954 297.224 469.937 297.593 469.743 297.575C461.168 296.644 452.504 296.187 443.875 295.976C435.247 295.765 426.759 295.607 418.183 295.765C400.856 296.116 383.528 297.065 366.236 298.296C356.518 298.999 297.612 305.852 287.876 305.87H287.771L287.472 306.59L286.576 308.26C286.287 308.803 285.97 309.331 285.627 309.841L285.117 310.597L284.871 310.966C284.768 311.087 284.674 311.217 284.59 311.353C284.555 311.581 284.221 311.405 284.362 311.177Z" fill="white"/>
<path d="M262.816 387.006C265.857 381.998 268.51 376.62 271.34 371.436L279.827 355.866C285.504 345.515 305.713 310.738 307.664 308.312C307.787 308.172 308.015 308.312 307.962 308.541C306.961 311.247 294.273 334.303 291.373 339.452C285.539 349.715 279.458 359.785 273.448 369.907C271.691 372.807 269.934 375.654 268.176 378.536C266.419 381.418 264.662 384.229 262.904 387.199C262.957 387.41 262.711 387.182 262.816 387.006Z" fill="white"/>
<path d="M310.809 317.872C315.958 316.748 321.23 316.115 326.414 315.254C331.599 314.393 336.835 313.497 342.055 312.723C352.47 311.06 362.903 309.49 373.353 308.014C394.177 305.079 415.072 302.742 436.02 301.511C447.847 300.773 459.691 300.475 471.535 300.035C471.781 300.035 471.746 300.457 471.535 300.457C450.447 300.598 429.359 302.812 408.412 305.202C387.464 307.592 366.956 310.245 346.255 313.163L328.681 315.693C322.759 316.554 316.819 317.679 310.862 318.241C310.82 318.236 310.781 318.217 310.751 318.187C310.721 318.158 310.701 318.119 310.695 318.077C310.689 318.035 310.697 317.992 310.718 317.955C310.738 317.918 310.77 317.889 310.809 317.872Z" fill="white"/>
<path d="M330.878 143.14C321.652 180.607 299.334 238.81 279.617 238.511C261.621 238.23 221.466 206.299 204.649 195.843C187.831 185.387 225.561 144.177 235.209 150.837C250.146 161.17 272.517 179.622 276.295 178.41C281.005 176.899 286.98 165.318 313.85 131.155C324.833 117.237 334.797 127.324 330.878 143.14Z" fill="#AD6359"/>
<path d="M217.108 135.021C209.183 132.209 200.308 128.361 191.504 128.519C182.7 128.677 175.372 140.328 175.372 143.65C175.372 146.971 178.711 167.743 187.515 167.743C196.319 167.743 191.029 151.786 191.346 149.959C191.662 148.131 191.996 145.794 193.666 145.952C195.335 146.11 224.419 159.923 224.419 159.923L217.108 135.021Z" fill="#AD6359"/>
<path d="M216.546 136.234C216.054 136.234 192.453 126.92 183.631 127.078C174.809 127.236 167.516 138.887 167.516 142.209C167.516 145.53 170.838 166.319 179.642 166.319C188.446 166.319 183.156 150.363 183.473 148.535C183.789 146.708 184.141 144.37 185.792 144.528C187.444 144.687 216.546 158.499 216.546 158.499V136.234Z" fill="#AD6359"/>
<path d="M182.629 165.195C183.583 163.601 184.093 161.78 184.105 159.923C184.29 158.043 184.183 156.146 183.789 154.299C183.293 152.716 182.934 151.094 182.717 149.449C182.729 147.818 183.152 146.216 183.947 144.792C184.615 143.562 185.915 143.984 187.022 144.37C188.674 145.03 190.282 145.793 191.837 146.655C193.595 147.481 195.194 148.412 196.863 149.221C198.627 150.047 200.335 150.986 201.977 152.032C202.083 152.032 201.977 152.313 201.872 152.261C200.344 151.672 198.848 151.004 197.391 150.257C195.721 149.467 194.034 148.693 192.347 147.955C190.66 147.217 189.237 146.462 187.655 145.794C186.944 145.374 186.142 145.132 185.318 145.091C184.65 145.249 184.316 146.848 184.176 147.428C183.808 149.011 183.911 150.666 184.474 152.19C184.944 153.766 185.25 155.385 185.388 157.023C185.548 158.562 185.423 160.117 185.019 161.61C184.472 162.952 183.77 164.226 182.928 165.406C182.805 165.546 182.506 165.353 182.629 165.195Z" fill="#263238"/>
<path d="M244.558 159.36C244.558 159.36 220.131 137.095 215.052 132.684C204.859 123.809 161.91 106.324 155.935 105.638C149.96 104.953 147.781 117.272 176.935 130.03C192.294 136.743 195.018 145.53 194.737 150.415C194.456 155.301 189.781 164.386 181.592 164.158C173.403 163.929 168.061 151.962 160.504 150.644C152.948 149.326 157.956 163.121 163.263 171.099C168.846 178.81 176.499 184.781 185.335 188.321C192.365 190.975 214.384 200.429 214.384 200.429L244.558 159.36Z" fill="#AD6359"/>
<path d="M171.347 158.394C174.44 160.784 177.937 163.877 182.014 164.035C186.091 164.193 188.938 161.469 190.801 158.042C192.949 154.681 193.717 150.621 192.945 146.708C192.001 143.163 190.055 139.965 187.339 137.499C184.004 134.514 180.258 132.023 176.215 130.101C176.039 130.013 176.215 129.767 176.391 129.837C180.169 131.594 191.891 136.339 194.246 146.708C194.998 150.707 194.179 154.842 191.961 158.253C190.204 161.522 187.497 164.668 183.526 165.001C178.675 165.388 174.511 161.487 171.031 158.499C170.961 158.376 171.189 158.271 171.347 158.394Z" fill="#263238"/>
<path d="M244.558 156.25L208.023 212.942C208.023 212.942 266.015 245.4 282.376 240.18C298.736 234.961 323.48 187.935 333.672 146.655C343.865 105.375 318.559 121.208 308.736 133.949C298.912 146.69 277.578 176.125 276.418 175.774C275.258 175.422 244.558 156.25 244.558 156.25Z" fill="black"/>
<path opacity="0.1" d="M248.811 232.764C262.008 238.142 274.977 242.061 281.743 240.356L282.323 240.198C298.719 234.926 323.48 187.97 333.69 146.725C335.222 141.202 336.014 135.499 336.045 129.767C336.045 129.556 336.045 129.38 336.045 129.169C336.033 128.84 336.004 128.511 335.957 128.185C335.975 128.057 335.975 127.927 335.957 127.799C335.957 127.482 335.957 127.184 335.852 126.902L248.811 232.764Z" fill="black"/>
<path d="M228.373 207.371C229.515 205.35 230.693 203.347 231.888 201.343C234.242 197.354 248.389 173.612 253.977 166.39C254.118 166.196 254.417 166.39 254.329 166.636C250.428 174.93 235.754 198.268 233.241 202.081C231.993 204.05 230.745 206 229.48 207.951C228.215 209.901 226.686 211.729 225.421 213.697C225.298 213.873 224.981 213.697 225.087 213.522C226.299 211.518 227.213 209.374 228.373 207.371Z" fill="#263238"/>
<path d="M423.245 284.219C422.893 284.606 285.698 279.703 284.415 278.174C282.552 276.03 304.536 154.229 313.885 131.208C319.895 116.376 344.586 113.933 355.376 125.936C397.324 172.786 424.475 282.849 423.245 284.219Z" fill="black"/>
<path d="M365.48 160.889C358.961 199.076 326.907 270.53 306.012 277.243C281.831 285.028 197.883 258.193 181.399 246.138C174.844 241.323 209.798 199.023 217.952 202.029C252.132 214.611 282.446 221.061 286.839 218.073C293.605 213.469 321.178 173.964 339.103 149.449C361.632 118.66 368.398 143.755 365.48 160.889Z" fill="#AD6359"/>
<path d="M107.205 111.86L150.453 83.707L182.067 169.096L139.013 192.504L107.205 111.86Z" fill="black"/>
<path d="M112.652 111.736L149.415 88.2057L150.962 90.8769L176.021 159.536C172.848 162.508 169.91 165.722 167.235 169.149C163.843 173.735 154.02 188.479 142.632 189.253L112.652 111.736Z" fill="white"/>
<path d="M114.322 116.165C114.322 116.165 124.093 111.93 129.031 107.255C133.969 102.581 138.749 97.379 142.756 95.1472C146.762 92.9154 150.769 90.5781 150.769 90.5781L149.416 88.2057L112.652 111.736L114.322 116.165Z" fill="#EBEBEB"/>
<path d="M201.591 196.264L134.794 194.419L107.204 111.859L176.988 108.679L201.591 196.264Z" fill="black"/>
<path d="M183.561 247.28C179.835 245.944 154.108 227.282 146.533 218.512C138.34 209.435 131.68 199.084 126.816 187.864C119.189 170.098 115.604 157.093 117.432 151.259C119.576 144.493 120.173 143.404 137.958 172.892C148.01 189.569 157.605 191.449 165.934 191.291C186.396 190.914 206.649 195.445 224.999 204.506C224.999 204.506 197.918 252.394 183.561 247.28Z" fill="#AD6359"/>
<path d="M187.69 179.236C193.289 180.642 198.687 182.756 203.752 185.527C208.289 188.37 212.233 192.064 215.368 196.405C215.508 196.581 215.262 196.827 215.104 196.651C208.075 188.005 197.636 183.664 187.619 179.482C187.587 179.473 187.559 179.451 187.543 179.421C187.526 179.391 187.522 179.356 187.532 179.324C187.541 179.291 187.563 179.264 187.592 179.247C187.622 179.231 187.657 179.227 187.69 179.236Z" fill="#263238"/>
<path d="M161.717 191.151C170.31 191.291 142.386 173.858 141.964 164.07C141.542 154.282 151.067 157.375 158.571 162.893C184.65 182.048 204.262 181.116 217.547 199.428C230.833 217.739 161.717 191.151 161.717 191.151Z" fill="#AD6359"/>
<path d="M284.977 215.718C278.299 217.476 231.747 204.77 231.747 204.77L205.598 268.034C205.598 268.034 286.646 286.908 305.555 280.336C324.464 273.763 353.935 209.515 363.459 172.154C372.404 137.007 360.472 114.162 335.342 150.503C335.43 150.486 288.491 214.769 284.977 215.718Z" fill="black"/>
<path d="M245.771 276.118C247.704 276.469 249.654 276.821 251.64 277.137Z" fill="#EBEBEB"/>
<path d="M275.381 215.033C273.624 214.734 271.691 214.383 269.688 213.978Z" fill="#EBEBEB"/>
<path d="M306.592 278.455C322.408 270.336 341.985 227.861 345.745 219.514C348.153 214.242 350.367 208.759 352.529 203.311C356.834 192.416 360.823 181.397 364.602 170.309C364.612 170.278 364.633 170.251 364.659 170.232C364.686 170.213 364.718 170.202 364.751 170.202C364.784 170.202 364.816 170.213 364.843 170.232C364.869 170.251 364.89 170.278 364.9 170.309C362.827 178.867 360.314 187.355 357.414 195.702C359.319 192.581 361.044 189.354 362.581 186.037C362.581 185.879 362.932 186.037 362.862 186.16C361.299 190.109 359.276 193.861 356.834 197.336C353.864 205.701 350.508 213.943 346.765 221.939C345.675 224.259 323.076 276.294 305.362 281.126C299.194 282.884 278.123 281.285 273.642 280.265C273.448 280.265 273.413 279.984 273.642 279.984C279.705 279.896 300.933 281.267 306.592 278.455Z" fill="#263238"/>
<path d="M223.136 260.355C223.927 258.158 224.717 255.979 225.526 253.817C227.143 249.459 236.896 223.591 241.131 215.525C241.254 215.296 241.57 215.525 241.518 215.683C239.145 224.47 228.794 250.057 227.072 254.344C226.176 256.506 225.315 258.65 224.384 260.794C223.452 262.938 222.31 264.994 221.396 267.156C221.308 267.366 220.974 267.279 221.045 267.05C221.835 264.801 222.363 262.534 223.136 260.355Z" fill="#263238"/>
<path d="M231.764 204.858C235.63 205.034 270.425 213.135 278.158 214.857C279.983 215.477 281.909 215.745 283.834 215.648C285.71 215.083 287.327 213.876 288.403 212.239C290.898 209.374 318.137 173.366 320.123 171.592C320.861 170.924 321.459 170.801 320.738 171.925C319.526 173.876 293.042 209.445 290.635 212.239C288.227 215.033 286.312 217.511 282.551 217.405C280.899 217.405 233.926 206.861 231.588 205.842C231.131 205.649 231.167 204.84 231.764 204.858Z" fill="#263238"/>
<path d="M321.301 152.788C321.301 152.788 342.389 131.999 356.078 132.42L367.765 142.701C367.765 142.701 371.578 143.931 372.755 141.506C375.655 135.513 376.27 121.033 363.688 111.631C352.247 103.073 333.584 103.793 317.997 107.958C303.059 111.965 290.125 122.017 294.747 131.682C299.369 141.348 321.301 152.788 321.301 152.788Z" fill="black"/>
<path opacity="0.1" d="M319.789 148.201C319.789 148.201 302.55 136.111 300.792 128.765C299.035 121.419 313.498 114.513 322.882 111.754C337.398 107.484 347.309 108.362 355.481 116.095C363.652 123.827 319.789 148.201 319.789 148.201Z" fill="black"/>
<path d="M318.366 145.389C325.395 145.249 341.211 133.65 343.531 122.878C343.671 122.14 340.702 115.761 337.468 107.818C335.517 103.002 333.461 97.5898 331.932 92.5111C331.722 91.4743 302.55 109.751 302.55 109.751C306.232 115.569 309.184 121.82 311.336 128.361C311.544 129.06 311.679 129.778 311.741 130.505C311.734 130.622 311.734 130.739 311.741 130.856C312.408 135.021 310.879 145.548 318.366 145.389Z" fill="#AD6359"/>
<path d="M311.811 130.505C311.805 130.622 311.805 130.739 311.811 130.856C312.933 130.679 314.038 130.409 315.115 130.048C333.743 124.02 331.652 99.0837 330.826 92.8627C325.396 95.3581 302.55 109.751 302.55 109.751C306.224 115.574 309.175 121.824 311.337 128.361C311.559 129.06 311.718 129.777 311.811 130.505Z" fill="#263238"/>
<path d="M326.098 51.2137C332.601 61.7577 335.307 96.184 329.156 105.691C320.229 119.451 301.267 125.567 288.474 113.845C276.085 102.475 273.343 57.4522 280.636 48.3844C291.356 35.011 316.503 35.7491 326.098 51.2137Z" fill="#AD6359"/>
<path d="M298.649 79.876C298.649 79.7881 298.842 79.9814 298.842 80.0692C298.965 82.4065 299.492 85.0425 301.671 85.64V85.7806C299.035 85.6927 298.385 82.1781 298.649 79.876Z" fill="#263238"/>
<path d="M300.529 77.3454C304.237 76.7479 305.151 84.2166 301.707 84.779C298.262 85.3413 297.419 77.855 300.529 77.3454Z" fill="#263238"/>
<path d="M285.873 81.4575C285.873 81.4575 285.697 81.5805 285.715 81.686C286.066 83.9881 286.101 86.6944 284.098 87.7136C284.098 87.7136 284.098 87.8542 284.098 87.8367C286.646 87.1689 286.576 83.5839 285.873 81.4575Z" fill="#263238"/>
<path d="M283.501 79.296C279.757 79.4717 280.372 86.9755 283.852 86.7998C287.331 86.624 286.646 79.1554 283.501 79.296Z" fill="#263238"/>
<path d="M303.042 73.5671C302.03 73.4027 301.027 73.1857 300.037 72.9169C298.943 72.8232 297.908 72.3795 297.085 71.6516C296.873 71.3708 296.758 71.0284 296.758 70.6763C296.758 70.3242 296.873 69.9817 297.085 69.7009C297.598 69.2195 298.229 68.8829 298.914 68.7254C299.6 68.5679 300.315 68.5953 300.986 68.8047C302.407 69.0385 303.694 69.782 304.606 70.896C304.772 71.167 304.86 71.4777 304.863 71.7952C304.866 72.1126 304.783 72.4249 304.622 72.6988C304.462 72.9728 304.23 73.1982 303.952 73.3511C303.674 73.5039 303.36 73.5786 303.042 73.5671Z" fill="#263238"/>
<path d="M280.161 75.8868C281.163 75.5881 282.059 75.1487 283.026 74.7621C284.096 74.4897 285.047 73.8721 285.732 73.0047C285.9 72.6957 285.959 72.3396 285.902 71.9927C285.845 71.6459 285.674 71.328 285.416 71.0892C284.834 70.6948 284.158 70.4625 283.457 70.4161C282.756 70.3698 282.055 70.5112 281.426 70.8257C280.051 71.2659 278.89 72.2067 278.175 73.4617C278.044 73.7587 277.998 74.0862 278.042 74.4079C278.086 74.7295 278.218 75.0327 278.424 75.2839C278.629 75.5351 278.901 75.7243 279.207 75.8308C279.514 75.9372 279.844 75.9566 280.161 75.8868Z" fill="#263238"/>
<path d="M303.991 100.648C303.516 101.245 303.042 102.071 302.233 102.247C301.374 102.329 300.506 102.233 299.685 101.966C299.597 101.966 299.527 101.966 299.597 102.089C299.98 102.509 300.471 102.816 301.017 102.974C301.563 103.132 302.142 103.136 302.69 102.985C303.146 102.804 303.538 102.492 303.816 102.089C304.095 101.685 304.247 101.208 304.254 100.718C304.307 100.577 304.061 100.56 303.991 100.648Z" fill="#263238"/>
<path d="M300.705 94.0225C300.233 95.0092 299.561 95.8872 298.733 96.6011C297.904 97.3149 296.936 97.8491 295.89 98.1698C294.974 98.461 294.022 98.6208 293.061 98.6443H292.006C291.88 98.6386 291.759 98.5904 291.663 98.5075C291.568 98.4245 291.503 98.3118 291.479 98.1874C291.47 98.1115 291.47 98.0348 291.479 97.9589V97.7481C291.216 95.9907 291.057 93.2492 291.057 93.2492C290.442 93.6534 287.297 95.5514 287.244 94.62C286.752 86.8526 286.207 78.224 287.367 70.3863C287.367 70.3304 287.389 70.2767 287.429 70.2371C287.468 70.1976 287.522 70.1754 287.578 70.1754C287.634 70.1754 287.687 70.1976 287.727 70.2371C287.767 70.2767 287.789 70.3304 287.789 70.3863C288.562 77.8198 288.017 85.3412 288.65 92.8275C289.747 92.1477 290.928 91.6159 292.165 91.2459C292.428 91.2459 292.375 96.5179 292.569 97.3263C294.047 97.2974 295.504 96.9713 296.854 96.3675C298.203 95.7637 299.417 94.8945 300.424 93.8116C300.635 93.6886 300.793 93.8116 300.705 94.0225Z" fill="#263238"/>
<path d="M294.01 97.6075C295.14 98.7625 296.551 99.6042 298.104 100.05C298.961 100.269 299.864 100.214 300.687 99.892C302.445 99.1891 302.304 97.4844 301.795 96.0786C301.511 95.3286 301.139 94.6148 300.687 93.9522C298.911 95.8549 296.57 97.1363 294.01 97.6075Z" fill="#263238"/>
<path d="M298.104 100.05C298.961 100.27 299.864 100.214 300.687 99.8921C302.445 99.1891 302.304 97.4845 301.795 96.0786C300.821 96.2265 299.927 96.6996 299.257 97.4208C298.587 98.1419 298.18 99.0687 298.104 100.05Z" fill="#FF9BBC"/>
<path d="M328.699 79.4015C323.427 80.5262 320.053 68.4708 320.053 68.4708C320.053 68.4708 307.47 74.8675 303.71 57.0305C303.71 57.0305 289.053 65.3076 278.316 61.9687C269.143 59.1218 261.938 45.889 266.401 36.3115C268.914 30.9165 277.666 24.6955 294.835 35.7667C294.835 35.7667 311.038 19.1775 322.478 40.4061C322.478 40.4061 332.389 39.668 335.412 48.8589C340.175 63.3745 333.303 78.4349 328.699 79.4015Z" fill="#263238"/>
<path d="M303.463 55.7652C303.474 55.7342 303.494 55.7074 303.521 55.6883C303.548 55.6693 303.58 55.6591 303.613 55.6591C303.646 55.6591 303.678 55.6693 303.704 55.6883C303.731 55.7074 303.751 55.7342 303.762 55.7652C303.762 60.2816 303.868 65.2022 307.997 68.0666C309.88 69.4675 312.176 70.2006 314.521 70.1496C316.867 70.0987 319.129 69.2667 320.949 67.7854C321.177 67.6097 321.476 67.9436 321.248 68.1193C319.459 69.5527 317.285 70.4231 315.002 70.6201C312.718 70.8172 310.427 70.3322 308.419 69.2265C303.481 66.5026 302.655 60.8791 303.463 55.7652Z" fill="#263238"/>
<path d="M327.75 76.7302C334.375 71.4582 338.751 64.1477 337.679 55.3961C337.352 51.1906 335.473 47.2569 332.407 44.3601C329.472 41.8471 325.747 41.4429 322.232 40.2479C322.209 40.2479 322.186 40.2386 322.17 40.2221C322.153 40.2057 322.144 40.1833 322.144 40.16C322.144 40.1367 322.153 40.1144 322.17 40.0979C322.186 40.0814 322.209 40.0721 322.232 40.0721C342.74 41.1793 343.882 68.1895 328.295 77.5562C327.838 77.8549 327.293 77.0817 327.75 76.7302Z" fill="#263238"/>
<path d="M263.888 36.9617C269.793 23.7641 287.472 28.4035 295.521 36.5576C288.491 30.6177 275.417 26.0135 267.895 33.2713C258.81 42.058 266.823 60.0532 279.177 59.526C279.251 59.5432 279.316 59.5846 279.363 59.6436C279.41 59.7026 279.435 59.7758 279.435 59.8511C279.435 59.9264 279.41 59.9995 279.363 60.0585C279.316 60.1175 279.251 60.159 279.177 60.1762C268.018 61.5469 259.583 46.7677 263.888 36.9617Z" fill="#263238"/>
<path d="M324.991 80.614C324.991 80.614 329.859 68.1017 335.359 69.5779C340.86 71.0541 339.015 87.9421 333.831 91.4567C333.196 91.9506 332.468 92.3113 331.691 92.5172C330.914 92.7231 330.103 92.7701 329.307 92.6552C328.511 92.5404 327.747 92.2661 327.06 91.8488C326.372 91.4315 325.776 90.8797 325.307 90.2266L324.991 80.614Z" fill="#AD6359"/>
<path d="M334.71 74.4106C334.797 74.4106 334.85 74.4984 334.71 74.5511C331.195 77.152 329.912 81.3696 329.438 85.5696C329.57 85.1117 329.8 84.6879 330.112 84.3278C330.425 83.9678 330.812 83.6799 331.246 83.4843C331.681 83.2887 332.153 83.19 332.63 83.195C333.106 83.2001 333.576 83.3088 334.007 83.5136C334.039 83.5136 334.071 83.5266 334.094 83.5496C334.117 83.5727 334.13 83.604 334.13 83.6366C334.13 83.6692 334.117 83.7005 334.094 83.7235C334.071 83.7466 334.039 83.7596 334.007 83.7596C333.25 83.7073 332.496 83.8904 331.848 84.2837C331.2 84.677 330.689 85.2612 330.387 85.9563C329.894 87.1276 329.523 88.3466 329.279 89.594C329.192 89.9982 328.489 89.963 328.524 89.594V89.4885C327.153 84.3395 329.367 76.2558 334.71 74.4106Z" fill="#263238"/>
<path d="M319.79 148.201C319.79 148.201 336.625 119.416 357.801 116.569L356.044 132.491C356.044 132.491 343.409 132.578 321.266 152.858L319.79 148.201Z" fill="black"/>
<path d="M361.79 132.684C357.937 132.391 354.067 132.924 350.437 134.248C346.799 135.493 343.31 137.138 340.034 139.151C336.749 141.142 333.597 143.343 330.597 145.741L326.186 149.484L321.933 153.421L321.459 153.86L320.914 153.596C316.951 151.578 313.129 149.294 309.474 146.76C307.641 145.507 305.881 144.152 304.202 142.701C302.505 141.241 300.951 139.623 299.562 137.868C302.769 140.871 306.307 143.5 310.106 145.706C311.969 146.866 313.884 147.92 315.818 148.957C317.751 149.994 319.701 151.013 321.67 151.927L320.668 152.103L324.921 148.043C326.379 146.743 327.89 145.477 329.384 144.212C330.878 142.947 332.53 141.84 334.147 140.697C335.763 139.555 337.433 138.536 339.19 137.622C342.626 135.678 346.293 134.173 350.103 133.141C351.052 132.877 352.036 132.702 353.003 132.508C353.969 132.315 354.953 132.227 355.938 132.174C357.903 132.006 359.883 132.179 361.79 132.684Z" fill="#263238"/>
<path d="M367.766 142.701C365.612 141.246 363.557 139.649 361.615 137.921C359.653 136.208 357.804 134.371 356.079 132.42C358.241 133.864 360.297 135.462 362.23 137.2C364.2 138.904 366.05 140.742 367.766 142.701Z" fill="#263238"/>
<path d="M330.017 143.966C330.693 150.664 330.793 157.408 330.315 164.123C329.999 168.797 326.801 185.422 321.617 184.367C316.432 183.313 325.869 173.226 328.119 164.509C330.368 155.793 328.558 149.097 328.699 143.773L330.017 143.966Z" fill="white"/>
<g opacity="0.1">
<path d="M534.198 104.435C534.875 111.132 534.975 117.876 534.497 124.591C534.181 129.266 530.982 145.89 525.798 144.836C520.614 143.781 530.051 133.694 532.3 124.978C534.55 116.261 532.74 109.566 532.88 104.241L534.198 104.435Z" fill="black"/>
</g>
<path d="M311.495 143.316C309.274 149.586 307.425 155.982 305.959 162.471C305.028 166.618 303.604 181.907 308.349 182.294C313.094 182.68 307.506 171.521 307.769 163.35C308.033 155.178 311.46 148.184 312.708 143.527L311.495 143.316Z" fill="white"/>
<g opacity="0.1">
<path d="M512.493 111.271C510.271 117.541 508.423 123.937 506.957 130.425C506.026 134.573 504.602 149.862 509.347 150.248C514.092 150.635 508.503 139.476 508.767 131.304C509.031 123.133 512.457 116.138 513.705 111.481L512.493 111.271Z" fill="black"/>
</g>
</svg>
