<svg width="1710" height="1058" viewBox="0 0 1710 1058" fill="none" xmlns="http://www.w3.org/2000/svg">
<path fill-rule="evenodd" clip-rule="evenodd" d="M345.069 293.242C343.399 292.392 330.329 297.712 328.129 298.522C319.369 301.772 311.119 307.172 302.869 311.572C309.189 319.262 315.519 326.962 321.839 334.662C328.039 319.462 336.009 306.912 345.069 293.242ZM349.379 387.852C347.229 388.092 365.399 431.752 367.519 436.652C375.239 454.482 383.349 472.142 391.179 489.922C398.759 507.152 408.369 523.012 418.059 539.112C426.339 552.882 434.869 574.242 447.369 584.442C439.469 549.442 440.509 509.192 417.879 479.792C394.409 449.322 371.209 419.572 349.379 387.852ZM1261.07 854.692C1226 799.172 1182.11 750.062 1145.54 695.542C1125.07 665.012 1105.14 634.092 1087.91 601.592C1075.38 577.952 1067.58 544.222 1048.22 526.152C1039.69 518.192 1030.58 510.392 1019.13 506.832C1003.46 501.952 981.889 506.782 966.149 510.642C936.819 517.832 908.169 529.002 880.389 540.722C852.209 552.622 828.159 573.982 802.699 591.152C775.389 609.562 745.829 622.972 715.229 634.722C688.579 644.942 664.879 659.622 638.379 669.912C633.099 671.962 622.319 671.662 617.889 674.342C613.119 677.222 614.999 685.722 609.199 688.862C606.589 690.272 605.719 685.142 603.709 685.232C601.259 685.332 599.019 688.212 596.649 690.032C587.019 697.462 592.919 702.422 596.729 712.642C609.169 745.952 615.849 779.842 633.299 811.292C647.649 837.142 668.189 860.302 692.369 877.412C696.049 880.022 708.039 890.112 712.359 889.442C716.239 888.832 724.149 878.502 726.829 875.702C739.009 862.972 750.139 849.272 762.309 836.522C781.119 816.812 799.219 796.582 817.469 776.602C838.649 753.412 857.399 727.142 876.479 702.362C885.259 690.962 896.559 681.682 906.319 671.112C919.429 656.902 931.479 641.622 943.929 626.822C947.689 622.342 953.999 610.882 959.849 611.022C963.949 611.112 971.179 620.762 973.319 623.792C981.289 635.032 981.259 655.332 985.219 669.372C994.889 703.592 1012.34 737.012 1036.26 763.422C1060.04 789.682 1090.51 808.352 1118.65 829.462C1149.13 852.332 1178 875.732 1202.17 905.272C1211.76 896.392 1222.22 888.542 1231.85 879.552C1241.02 870.992 1252.97 864.052 1261.07 854.692ZM809.719 1011.74C816.529 1011.81 828.079 1016.01 834.179 1013.48C816.089 993.472 799.479 976.302 776.589 961.642C752.839 946.422 729.169 931.342 706.109 915.102C659.619 882.392 625.429 843.602 606.009 789.122C601.009 775.092 597.659 760.382 593.999 745.962C592.029 738.192 588.099 701.852 581.439 698.722C577.489 696.862 547.779 717.742 543.069 720.342C532.059 726.422 521.019 731.142 509.639 735.902C485.179 746.142 459.959 753.952 434.029 760.472C402.929 768.292 381.749 755.362 362.479 730.922C340.629 703.202 322.469 671.922 302.479 642.802C293.399 629.562 285.869 616.342 279.159 601.732C274.769 592.182 257.349 566.392 263.359 556.212C280.539 569.282 286.719 595.272 298.409 612.782C312.989 634.592 329.419 655.162 344.079 676.952C356.399 695.282 368.979 717.482 387.179 730.662C403.199 742.242 418.409 738.682 435.649 733.472C456.539 727.162 478.189 724.052 498.659 716.232C520.809 707.762 541.779 695.742 563.389 685.942C573.469 681.382 585.529 678.782 595.029 673.082C603.209 668.182 601.989 665.592 602.589 655.142C603.289 642.952 604.099 630.752 604.639 618.552C604.999 610.362 600.569 599.242 603.579 593.132C579.039 597.382 555.059 603.082 530.689 608.122C517.349 610.882 504.479 614.292 491.009 616.452C485.869 617.282 478.839 617.262 474.239 619.492C470.569 618.442 468.699 619.112 468.629 621.502C468.459 622.802 468.179 624.082 467.799 625.342C460.269 628.762 455.899 621.422 449.369 614.382C441.319 605.692 435.289 595.912 429.379 585.702C416.169 562.872 400.939 541.402 388.719 517.922C376.259 494.002 366.139 468.382 355.569 443.552C345.879 420.782 339.679 396.142 328.969 373.912C324.189 363.982 318.129 355.772 311.059 347.392C305.219 340.472 296.239 325.542 287.529 322.362C285.219 321.522 279.189 322.942 276.569 322.752C271.349 322.382 266.699 320.462 261.359 320.882C249.799 321.792 237.189 329.102 227.949 335.522C233.919 340.842 248.859 347.312 238.129 356.902C227.719 366.202 221.969 349.512 217.999 342.202C199.289 357.562 201.989 378.742 199.829 400.442C198.699 411.772 195.729 422.932 193.819 434.092C192.439 442.122 193.409 450.432 193.009 458.632C192.009 479.472 189.909 499.412 190.009 519.962C190.119 541.922 191.619 563.132 193.369 584.942C196.329 621.642 203.109 658.362 208.929 694.782C212.199 715.252 216.669 735.142 221.019 755.272C225.949 778.132 235.069 799.782 240.189 822.582C245.399 815.952 249.319 815.922 257.749 816.802C264.239 817.472 268.599 815.932 268.219 824.932C267.969 830.772 262.819 835.222 257.119 836.242C249.689 837.572 247.169 833.862 243.339 828.242C242.439 838.892 249.609 850.042 252.439 860.442C255.129 870.312 256.899 879.972 261.409 889.412C265.809 898.622 269.579 907.712 274.029 916.832C276.079 921.032 277.999 925.292 280.069 929.472C281.119 931.592 282.349 934.512 283.919 936.302C287.589 940.492 286.999 938.462 291.299 940.842C300.659 946.042 297.139 944.742 297.359 955.482C297.569 966.062 302.999 973.842 311.709 979.792C330.179 992.422 348.409 995.932 369.409 1002.31C388.979 1008.26 409.589 1013.36 430.309 1013.24C455.689 1013.1 480.729 1009.77 506.109 1009.43C534.099 1009.06 562.369 1009.22 590.309 1010.18C601.819 1010.58 612.509 1011.09 623.619 1014.03C636.529 1017.45 649.009 1016.09 662.309 1015.57C690.689 1014.47 720.039 1012.28 748.039 1012.08C768.199 1011.94 789.479 1010.53 809.719 1011.74ZM1545.49 1022.74C1550.53 1025.41 1561.84 1024.31 1566.91 1023.57C1575.85 1022.27 1576.8 1018.73 1582.47 1010.77C1592.23 997.052 1600.15 983.922 1605.89 968.032C1616.87 937.622 1621.36 906.522 1626.18 874.712C1631.54 839.372 1621.75 802.732 1618.25 767.632C1617.44 759.582 1616.34 751.602 1615.07 743.602C1614.31 738.832 1614.11 722.572 1610.97 718.432C1604.92 710.482 1576.83 716.902 1565.78 717.622C1534.94 719.632 1503.9 720.102 1473.08 720.452C1456.65 720.642 1440.12 721.322 1423.85 721.452C1416.38 721.512 1409.07 721.142 1401.57 720.412C1399.06 720.172 1396.61 719.592 1394.09 719.452C1385.43 718.982 1386.08 717.722 1383.85 725.382C1379.93 738.802 1382.94 755.872 1381.92 769.802C1380.54 788.412 1379.8 807.292 1380.14 825.942C1380.45 843.182 1379.86 860.372 1380.51 877.652C1380.78 884.802 1381.56 890.632 1383.44 897.462C1385.58 905.192 1387.93 923.232 1393.24 928.582C1393.84 929.192 1398.36 927.772 1399.56 929.282C1401.41 931.622 1401.07 936.562 1402.34 938.072C1406.44 942.952 1414.93 943.342 1421.09 945.532C1437.97 951.552 1453.47 958.092 1469.39 966.212C1483.61 973.472 1506.54 979.642 1515.09 993.952C1519.01 1000.51 1519.54 1009.16 1523.15 1015.93C1527.25 1023.64 1519.04 1019.61 1529.1 1022.74C1533.63 1024.15 1540.85 1022.74 1545.49 1022.74ZM46.0293 935.532C44.7493 953.332 34.7192 970.302 31.2292 987.802C29.5892 996.002 26.8193 1004.06 24.8993 1012.21C23.0593 1020.03 16.3992 1029.29 17.0692 1037.03C41.6392 1028.28 66.5192 1026.08 92.1892 1023.72C116.529 1021.48 142.229 1020.59 166.359 1020.58C190.949 1020.56 217.239 1018.16 242.559 1017.79C269.029 1017.4 295.909 1016.72 321.999 1013.97C308.359 1003.87 291.289 994.382 281.209 980.322C270.259 965.042 264.569 945.902 254.939 929.772C235.599 897.412 223.299 857.262 213.159 820.902C192.699 747.512 169.829 675.482 164.309 599.352C153.819 604.722 145.499 625.562 140.239 635.942C133.539 649.192 130.029 663.552 125.669 677.632C116.699 706.642 110.489 736.712 99.4993 765.442C78.4993 820.362 64.9993 879.542 46.0293 935.532ZM1379.47 507.792C1384.02 540.612 1393.54 573.862 1393.91 607.082C1393.99 614.392 1392.75 622.502 1394.27 629.712C1395.9 637.402 1401.19 644.212 1404.25 651.522C1409.1 663.122 1421.38 686.912 1409.53 696.752C1409.29 687.422 1400.75 675.562 1396.45 667.402C1389.96 655.112 1381.44 643.862 1374.41 631.872C1359.7 606.772 1343.21 582.212 1324.24 560.082C1305.77 538.532 1284.48 519.412 1264.89 498.892C1259.01 492.722 1211.8 433.372 1209.92 434.202C1224.56 490.662 1249.46 539.792 1283.53 587.062C1300.23 610.242 1320.28 625.492 1340.61 645.122C1357.54 661.472 1389.46 678.952 1383.6 705.752C1410.07 703.202 1436.37 699.142 1463.08 699.142C1458.68 665.342 1455.32 632.072 1447.48 598.832C1438.58 561.082 1432.55 522.202 1425.01 484.122C1417.33 445.242 1404.29 407.602 1396.17 368.792C1388.4 331.632 1381.73 294.542 1376.04 256.972C1371.33 277.792 1373.07 300.662 1371.4 321.902C1369.69 343.602 1369.86 364.902 1370.42 386.732C1371.48 427.282 1375.8 467.342 1379.47 507.792ZM1494.17 314.472C1494.32 297.122 1497.68 280.002 1498.72 262.682C1499.04 257.372 1504.33 221.122 1499.4 219.232C1495.34 228.082 1494.39 239.402 1490.71 248.682C1487.02 257.962 1482.1 266.792 1478.56 276.132C1470.91 296.362 1468.27 319.252 1467.44 340.762C1465.58 389.412 1464.61 437.942 1467.88 486.592C1469.28 507.442 1470.36 528.332 1469.98 549.222C1469.55 572.212 1466.03 592.162 1470.31 614.972C1474.54 637.542 1477.2 660.032 1478.61 682.942C1479.6 699.022 1480 697.882 1495.34 696.752C1506.42 695.932 1517.6 696.802 1528.7 696.302C1523.51 633.632 1522.66 570.842 1514.38 508.412C1510.15 476.562 1510.04 444.262 1504.79 412.532C1502.18 396.772 1497.8 381.322 1495.28 365.542C1492.58 348.602 1493.91 331.552 1494.17 314.472ZM372.189 275.042C401.729 277.592 433.149 286.422 463.419 280.592C458.429 278.572 445.369 275.792 451.249 267.812C457.229 259.702 467.299 269.992 473.259 268.922C476.929 268.272 485.049 252.912 487.319 249.732C492.459 242.502 493.079 241.242 502.329 239.392C511.279 237.602 513.309 239.542 514.449 230.632C515.749 220.402 512.209 208.892 512.559 198.422C513.309 175.882 520.579 156.122 527.349 134.912C498.599 141.172 470.479 148.582 441.069 152.622C428.509 154.342 408.949 158.312 397.529 149.772C394.559 147.552 395.039 144.552 392.609 141.982C388.529 137.662 380.979 133.192 375.199 131.962C339.629 124.392 336.159 175.082 353.979 194.052C358.449 198.802 364.659 201.152 369.229 205.502C375.329 211.312 375.829 217.432 376.719 226.302C378.389 242.922 376.119 259.622 369.029 274.822L372.189 275.042ZM803.779 514.352C814.279 516.342 825.239 515.892 835.769 517.592C839.509 518.192 850.719 520.302 854.009 518.112C859.029 514.772 860.809 502.532 863.189 496.832C867.359 486.802 873.269 478.062 877.249 467.842C893.519 426.142 908.699 384.272 928.379 343.982C920.829 342.022 915.039 341.952 907.439 340.932C899.519 339.882 892.339 335.202 884.789 333.182C877.609 331.272 870.089 331.762 862.969 329.542C859.049 328.312 855.689 325.592 851.819 324.642C845.669 323.132 838.479 322.242 834.819 326.282C831.059 330.432 829.739 341.802 827.699 347.152C822.259 361.422 815.939 375.192 811.379 389.782C807.269 402.952 803.359 415.972 799.739 429.252C795.919 443.282 788.379 454.842 783.789 468.232C780.299 478.432 776.999 488.852 776.479 499.722C775.979 510.332 774.429 511.012 785.039 512.702C790.399 513.562 798.739 516.742 803.779 514.352ZM1494.58 1010.85C1497.31 1012.12 1499.89 1011.95 1502.31 1010.34C1478.6 1000.33 1455.54 986.442 1430.81 979.572C1407.61 973.132 1385.06 965.442 1362.71 957.502C1344.54 951.062 1328.22 946.042 1311.8 934.692C1301.83 927.802 1292.97 920.062 1286.12 910.002C1278.5 898.792 1276.8 882.852 1268.55 872.762C1257.4 884.992 1244.31 894.262 1231.12 903.992C1226.56 907.352 1215.61 914.692 1214.05 919.892C1212.08 926.462 1217.36 932.752 1219.97 939.402C1226.65 956.432 1229.91 973.452 1233.54 991.152C1234.99 998.242 1238.13 1008.91 1243.96 1011.88C1249.27 1014.59 1264.64 1012.62 1271.24 1012.12C1305.7 1009.51 1339.55 1006.84 1374.22 1009.21C1413.45 1011.9 1455.45 1013.76 1494.58 1010.85ZM1563.41 695.312C1569.67 695.342 1575.79 694.552 1582.03 694.552C1578.43 677.742 1586.85 655.982 1589.83 639.202C1593.17 620.422 1595.71 601.012 1597.94 582.082C1602.64 542.222 1604.76 502.842 1604.83 462.682C1604.88 423.832 1611.96 388.322 1621.87 350.972C1632.51 310.852 1649.93 274.782 1664.34 236.092C1648.54 244.442 1639.79 263.992 1631.48 278.932C1620.99 297.822 1613.99 318.742 1609.71 339.952C1601.44 380.872 1592.37 421.912 1582.82 462.762C1572.89 505.292 1567.05 548.212 1555.66 590.402C1550.11 610.972 1542.56 636.282 1542.14 657.492C1541.97 666.272 1539.33 684.652 1543.3 692.272C1547.02 699.402 1555.25 696.042 1563.41 695.312ZM618.039 642.542C617.709 646.912 617.399 651.072 616.619 655.382C625.299 655.302 636.279 646.302 643.719 642.262C652.789 637.342 661.859 631.912 670.729 626.962C687.839 617.412 707.269 611.112 725.539 603.272C746.529 594.252 765.829 583.362 785.899 572.502C792.909 568.712 843.309 546.872 842.459 540.912C831.399 540.542 820.339 540.172 809.269 539.802C799.789 539.492 785.089 541.632 776.009 538.702C771.039 537.092 765.449 531.182 763.569 526.552C761.709 521.962 765.889 500.882 763.459 499.542C751.079 512.182 743.289 528.982 732.219 542.622C719.989 557.692 704.179 566.492 686.759 574.502C667.519 583.342 647.599 590.192 627.939 597.772C619.649 600.972 619.809 602.802 619.089 611.892C618.279 622.052 618.369 632.362 618.039 642.542ZM1617.88 1024.81C1638.73 1027.05 1660.11 1025.77 1681.13 1027.52C1688.78 1028.15 1699.38 1029.1 1691.68 1039.36C1686.84 1045.83 1671.32 1043.75 1664.28 1044.2C1645.37 1045.4 1625.36 1044.76 1606.41 1044.48C1602.42 1044.42 1598.01 1043.23 1593.98 1043.5C1589.33 1043.81 1583.75 1047.15 1579.51 1047.13C1576.9 1047.11 1575.96 1044.36 1573.71 1044.1C1568.8 1043.55 1563.89 1043.15 1558.93 1043.15C1484.04 1043.17 1410.19 1041.66 1335.49 1041.58C1299.77 1041.54 1263.47 1040.93 1227.77 1039.25C1220.27 1038.9 1177.57 1040.43 1178.75 1026.93C1179.36 1019.98 1193.3 1019 1198.38 1018.26C1202.15 1017.72 1206.06 1017.8 1209.84 1017.6C1219.87 1017.06 1224.26 1019.48 1222.15 1008.5C1214.12 966.882 1199.74 932.482 1169.01 902.552C1143.88 878.082 1113.62 855.882 1085.16 835.442C1050.61 810.632 1022.57 784.532 1002.06 746.562C990.069 724.392 980.049 701.722 973.889 677.202C971.669 668.382 971.619 658.352 968.909 649.842C966.819 643.302 962.059 638.722 959.259 631.932C924.879 689.352 879.309 737.392 837.529 789.152C817.559 813.892 794.789 837.382 770.929 858.892C763.859 865.282 757.249 871.952 750.639 878.822C745.119 884.572 736.339 889.682 731.679 896.062C727.199 902.182 728.299 901.892 735.119 906.752C744.119 913.172 754.049 918.512 763.199 924.772C777.819 934.792 793.779 943.252 806.849 955.302C820.999 968.332 833.349 983.432 845.709 998.122C853.949 1007.92 864.759 1020.49 866.829 1032.87C867.509 1036.97 870.119 1047.1 866.679 1050.1C863.739 1052.67 864.039 1051.69 860.389 1050.13C855.609 1048.08 854.199 1043.38 848.359 1041.13C833.419 1035.4 815.329 1037.37 799.789 1037.3C784.229 1037.23 768.549 1038.98 752.999 1038.91C717.499 1038.77 682.749 1041.64 647.259 1043.18C609.559 1044.82 571.399 1040.89 533.829 1041.45C505.999 1041.86 477.419 1039.78 448.809 1041.33C434.099 1042.12 419.649 1040.28 405.299 1040.07C386.519 1039.8 367.229 1042.36 348.279 1042.72C317.189 1043.32 286.469 1043.32 255.189 1044.07C187.889 1045.68 120.959 1047.34 53.6293 1048.41C44.6493 1048.55 34.8192 1048.24 25.9392 1049.25C16.5192 1050.33 21.3893 1052.33 14.9193 1055.72C-3.17069 1065.21 0.999204 1030.03 1.4392 1023.11C3.7592 986.032 13.1793 949.662 24.4893 914.462C35.2293 881.072 43.9393 846.132 53.0293 812.022C62.9793 774.692 75.9492 738.882 87.7192 701.922C99.7892 664.042 109.609 624.682 131.519 591.102C136.509 583.462 141.669 575.232 149.699 570.402C158.689 565.002 159.079 568.162 159.069 558.262C159.069 548.952 159.639 536.502 157.439 527.612C155.459 519.582 155.759 524.342 151.289 518.572C147.649 513.882 143.839 510.672 141.219 504.982C125.179 521.252 88.4393 512.662 72.9293 500.942C53.9493 486.602 39.4992 462.412 34.1992 439.372C29.9492 420.872 35.1693 385.602 55.6493 376.702C65.6293 372.362 102.309 369.082 103.779 354.952C104.529 347.652 91.6193 337.392 88.6493 331.122C83.1293 319.492 77.8293 304.032 76.2893 291.292C73.2993 266.412 84.5892 238.602 102.579 221.802C135.579 190.982 193.649 175.172 236.099 194.722C227.129 160.462 221.709 130.902 226.229 95.2618C230.119 64.5618 248.239 47.3818 273.169 32.0818C315.719 5.9818 373.569 -4.31814 422.219 3.27186C433.269 5.00186 443.879 8.70186 454.119 11.6419C468.989 15.9219 486.789 14.4918 500.829 21.4418C511.009 26.4818 518.739 36.5118 527.679 43.2118C538.119 51.0318 546.789 62.7018 554.049 73.5018C569.559 96.5818 563.489 139.422 550.509 162.592C547.729 167.562 544.289 171.752 539.689 175.142C534.889 178.672 527.579 179.772 525.109 184.352C518.779 196.072 524.889 221.462 525.729 234.132C526.709 248.852 519.269 259.902 502.579 261.082C492.929 261.762 492.619 256.162 487.989 267.682C484.999 275.152 482.279 283.292 477.949 290.142C469.039 304.252 452.709 302.872 437.839 302.492C420.619 302.052 403.659 299.332 386.429 297.612C390.979 312.182 403.439 323.502 411.209 336.482C421.729 354.042 428.059 368.602 429.769 389.062C431.079 404.782 428.249 417.202 417.489 428.902C413.039 433.742 409.089 433.982 410.189 439.562C410.869 442.972 416.759 448.592 418.849 451.312C424.359 458.512 430.769 465.112 435.629 472.802C454.309 502.362 459.829 547.432 459.879 581.852C459.879 583.432 460.719 586.792 460.029 588.422C459.509 589.622 455.589 593.442 455.529 593.772C454.769 598.202 459.079 605.782 465.849 606.532C472.969 607.322 485.989 601.382 492.609 599.442C503.189 596.312 513.989 594.012 524.549 590.802C541.609 585.632 558.589 581.502 575.939 577.442C583.779 575.612 591.659 574.092 599.519 572.372C608.479 570.422 612.639 566.662 617.259 575.772C621.229 583.592 618.759 585.002 628.369 581.062C637.909 577.152 647.229 572.302 656.539 567.882C672.969 560.092 692.529 553.142 706.699 541.642C730.329 522.462 739.079 491.902 761.699 471.542C767.999 465.872 771.759 465.772 775.739 457.922C780.009 449.522 782.199 438.742 784.439 429.702C788.369 413.872 791.159 397.982 794.719 382.162C799.159 362.462 808.749 344.612 815.739 325.822C818.459 318.492 819.879 309.192 824.269 302.612C825.439 300.862 827.659 299.882 828.569 298.432C831.699 293.482 831.669 292.112 832.479 286.152C836.269 258.282 852.909 272.942 871.089 279.332C878.749 282.032 915.119 299.492 901.229 311.102C917.789 315.912 944.309 313.302 944.089 337.022C943.969 349.182 936.699 362.182 932.799 373.562C929.329 383.662 925.979 393.812 922.459 403.892C914.749 425.992 905.389 447.432 897.859 469.592C894.429 479.692 891.589 490.032 886.819 499.562C882.599 507.972 872.399 517.242 870.719 526.442C914.849 507.622 955.669 480.412 1005.05 482.142C1026.68 482.902 1046.31 491.992 1058.25 511.002C1073.22 534.832 1083.08 561.512 1097.71 585.562C1150.95 673.042 1214.45 752.522 1272.9 836.392C1277.39 842.832 1283.16 848.922 1284.72 856.892C1285.74 862.082 1283.77 867.282 1284.98 872.272C1287.51 882.652 1300.29 895.602 1308.95 901.562C1325.56 912.992 1352.55 929.102 1373.27 927.682C1360.26 896.432 1360.44 862.192 1361.04 828.862C1361.62 797.202 1365.04 765.802 1369.1 734.462C1370.02 727.372 1370.82 720.802 1372.86 713.932C1375.2 706.052 1378.41 706.792 1371.41 699.712C1360.62 688.802 1347.8 679.822 1336.93 668.772C1313.43 644.882 1289.34 626.162 1270.84 597.632C1253.24 570.492 1234.68 542.572 1221.66 512.862C1208.25 482.272 1202.89 449.602 1196.23 417.212C1193.53 404.062 1183.68 389.392 1185.66 375.662C1188.16 358.312 1196.21 370.942 1199.49 380.282C1209.48 408.782 1232.89 434.292 1252.27 457.212C1273.22 481.972 1298.83 502.692 1320.7 526.732C1344.5 552.912 1360.81 583.002 1381.98 610.952C1381.98 576.262 1370.13 540.942 1365.29 506.632C1361.03 476.432 1359.69 446.132 1356.99 415.802C1350.87 346.892 1356.16 275.962 1364.75 207.552C1368.83 175.062 1366.52 143.332 1366.64 110.732C1366.68 100.362 1362.38 76.4418 1367.86 67.2418C1378.34 49.6018 1384.46 88.1619 1384.99 93.9119C1388.16 128.162 1382.47 162.032 1385.38 196.132C1388.42 231.742 1395 266.362 1400.61 301.562C1406.68 339.672 1416.57 376.932 1426.03 414.312C1435.97 453.562 1444.33 493.632 1455.38 532.562C1458.36 520.332 1454.18 505.292 1453.35 492.832C1452.17 474.992 1449.87 457.152 1449.67 439.262C1449.35 410.762 1449.13 381.732 1450.74 353.362C1452.33 325.392 1451.85 296.092 1460.43 269.152C1464.5 256.362 1470.47 243.882 1476.31 231.842C1483.52 216.992 1486.07 202.582 1490.06 186.792C1493.48 173.262 1498.48 160.092 1500.76 146.292C1502.18 137.702 1506.13 112.372 1515.95 131.562C1521.66 142.712 1519.19 159.222 1519.35 171.192C1519.56 186.532 1517.21 201.452 1516.85 216.732C1516.15 246.712 1515.64 276.652 1513.41 306.582C1511.06 337.982 1513.11 366.122 1519.09 397.062C1525.62 430.922 1527.54 464.862 1530.93 499.142C1532.67 516.842 1535.62 534.442 1537.04 552.172C1537.8 561.562 1533.94 588.472 1540.66 595.162C1541.31 578.902 1545.97 562.632 1549.5 546.792C1553.69 528.022 1555.38 508.292 1558.46 489.252C1563.46 458.412 1573.15 428.962 1579.56 398.462C1592.78 335.602 1603.76 254.802 1659.14 213.652C1666.39 208.272 1674.35 204.302 1682.19 199.872C1686.62 197.362 1693.21 190.872 1698.29 189.732C1703.83 188.502 1706.14 189.462 1708.38 195.882C1711.51 204.842 1705.79 209.022 1700.44 215.532C1681.94 238.042 1674.04 266.902 1662.62 293.302C1636.46 353.752 1624.89 417.512 1624.76 482.862C1624.69 517.072 1622.33 550.062 1618.68 584.062C1614.75 620.652 1609.58 659.352 1598.46 694.552C1609.61 697.052 1621.71 693.322 1624.74 706.282C1625.48 709.472 1624.14 713.232 1624.96 717.382C1625.76 721.402 1627.69 725.412 1628.82 729.372C1631.17 737.572 1632.42 745.652 1633.56 754.062C1637.98 786.582 1645.57 817.502 1646.38 850.472C1647.13 880.952 1641.16 911.822 1635.66 941.712C1630.12 971.822 1614.23 997.482 1601.73 1024.7C1607.11 1024.7 1612.49 1024.76 1617.88 1024.81Z" fill="black"/>
<path fill-rule="evenodd" clip-rule="evenodd" d="M910.039 955.612C904.109 957.292 875.469 960.452 875.479 969.442C875.479 974.822 904.079 974.722 909.139 975.302C909.439 968.742 909.739 962.182 910.039 955.612ZM973.239 1017.6C989.739 1020.74 1012.14 1016.33 1022.69 1001.78C1027.62 994.992 1029.96 984.652 1031.56 976.542C1033.1 968.812 1037.83 949.522 1034.61 942.282C1030.66 933.382 992.739 942.682 981.699 943.702C962.439 945.482 942.519 945.692 923.249 944.432C923.249 964.332 922.229 983.722 933.939 1000.85C942.379 1013.21 958.239 1016.12 973.239 1017.6ZM969.929 1042.18C951.999 1035.62 933.169 1039.88 921.499 1020.64C918.539 1015.76 916.039 1010.51 914.249 1005.08C913.369 1002.71 912.689 1000.28 912.209 997.782C913.119 992.422 911.159 990.912 906.309 993.242C896.809 991.402 886.389 997.922 876.379 996.002C852.099 991.332 856.509 956.562 872.809 944.532C876.019 942.152 879.239 941.492 882.919 940.312C891.039 937.722 895.439 940.612 902.869 939.882C908.869 939.292 910.519 932.992 916.969 930.222C921.199 928.412 927.059 928.552 931.499 928.362C954.739 927.412 978.049 927.422 1001.44 925.902C1012.35 925.202 1024.12 926.932 1034.81 925.062C1039.81 924.192 1039.09 920.862 1043.83 923.782C1048.74 926.802 1046.62 937.992 1046.37 942.452C1044.94 968.232 1043.4 995.892 1029.59 1018.44C1016.95 1039.06 992.069 1041.17 969.929 1042.18Z" fill="black"/>
<path fill-rule="evenodd" clip-rule="evenodd" d="M23.0596 1049.28C28.8296 1049.22 34.5995 1049.16 40.3395 1049.1C34.5695 1049.16 28.8096 1049.22 23.0596 1049.28Z" fill="black"/>
<path fill-rule="evenodd" clip-rule="evenodd" d="M1624.79 499.462C1624.78 493.922 1624.77 488.382 1624.76 482.862C1624.77 488.402 1624.78 493.932 1624.79 499.462Z" fill="black"/>
<path fill-rule="evenodd" clip-rule="evenodd" d="M157.459 522.212C157.439 527.612 157.429 533.012 157.409 538.392C157.419 532.992 157.439 527.602 157.459 522.212Z" fill="black"/>
<path fill-rule="evenodd" clip-rule="evenodd" d="M636.939 1043.17C641.529 1043.17 646.119 1043.18 650.689 1043.19C646.089 1043.19 641.519 1043.18 636.939 1043.17Z" fill="black"/>
<path fill-rule="evenodd" clip-rule="evenodd" d="M358.289 1042.07C362.879 1042.08 367.469 1042.09 372.039 1042.11C367.439 1042.1 362.869 1042.08 358.289 1042.07Z" fill="black"/>
<path fill-rule="evenodd" clip-rule="evenodd" d="M1361.65 817.952C1361.45 821.592 1361.24 825.232 1361.04 828.862C1361.25 825.222 1361.45 821.582 1361.65 817.952Z" fill="black"/>
<path fill-rule="evenodd" clip-rule="evenodd" d="M1617.88 1024.81C1614.33 1024.77 1610.78 1024.74 1607.24 1024.7C1610.8 1023.22 1614.35 1023.28 1617.88 1024.81Z" fill="black"/>
<path fill-rule="evenodd" clip-rule="evenodd" d="M1303.01 1040.94C1305.56 1040.9 1308.1 1040.86 1310.63 1040.82C1308.07 1040.86 1305.54 1040.9 1303.01 1040.94Z" fill="black"/>
<path fill-rule="evenodd" clip-rule="evenodd" d="M1623.41 544.412C1623.47 541.662 1623.54 538.912 1623.6 536.162C1623.54 538.922 1623.47 541.672 1623.41 544.412Z" fill="black"/>
<path fill-rule="evenodd" clip-rule="evenodd" d="M1385.38 196.132C1385.17 193.292 1384.96 190.452 1384.75 187.622C1384.96 190.462 1385.17 193.302 1385.38 196.132Z" fill="black"/>
<path fill-rule="evenodd" clip-rule="evenodd" d="M1624.67 510.312C1624.7 507.462 1624.74 504.622 1624.77 501.782C1624.74 504.632 1624.7 507.472 1624.67 510.312Z" fill="black"/>
<path fill-rule="evenodd" clip-rule="evenodd" d="M824.209 1037.41C826.479 1037.44 828.739 1037.48 830.979 1037.51C828.719 1037.47 826.459 1037.44 824.209 1037.41Z" fill="black"/>
<path fill-rule="evenodd" clip-rule="evenodd" d="M1407.16 1042.05C1409.37 1042.09 1411.58 1042.14 1413.77 1042.19C1411.55 1042.14 1409.36 1042.1 1407.16 1042.05Z" fill="black"/>
<path fill-rule="evenodd" clip-rule="evenodd" d="M1646.13 841.912C1645.97 839.412 1645.81 836.912 1645.65 834.422C1645.81 836.922 1645.97 839.412 1646.13 841.912Z" fill="black"/>
<path fill-rule="evenodd" clip-rule="evenodd" d="M1606.41 1044.48C1608.21 1044.47 1610.01 1044.46 1611.79 1044.45C1609.99 1044.47 1608.2 1044.47 1606.41 1044.48Z" fill="black"/>
<path fill-rule="evenodd" clip-rule="evenodd" d="M1361.06 1042.17C1362.84 1042.12 1364.62 1042.08 1366.39 1042.04C1364.6 1042.08 1362.82 1042.12 1361.06 1042.17Z" fill="black"/>
<path fill-rule="evenodd" clip-rule="evenodd" d="M960.209 1040.8C962.169 1040.79 964.129 1040.78 966.079 1040.77C964.109 1040.78 962.159 1040.79 960.209 1040.8Z" fill="black"/>
<path fill-rule="evenodd" clip-rule="evenodd" d="M507.539 1040.8C509.399 1040.81 511.269 1040.82 513.109 1040.84C511.239 1040.83 509.389 1040.81 507.539 1040.8Z" fill="black"/>
<path fill-rule="evenodd" clip-rule="evenodd" d="M397.419 1041.1C399.319 1040.99 401.219 1040.88 403.099 1040.78C401.189 1040.89 399.309 1040.99 397.419 1041.1Z" fill="black"/>
<path fill-rule="evenodd" clip-rule="evenodd" d="M924.629 316.162C921.799 315.912 918.969 315.672 916.129 315.422C918.969 315.622 921.969 313.952 924.629 316.162Z" fill="black"/>
<path fill-rule="evenodd" clip-rule="evenodd" d="M1451.66 333.342C1451.47 335.792 1451.28 338.242 1451.09 340.682C1451.28 338.232 1451.47 335.782 1451.66 333.342Z" fill="black"/>
<path fill-rule="evenodd" clip-rule="evenodd" d="M1625.37 435.312C1625.56 432.992 1625.75 430.672 1625.94 428.372C1625.75 430.692 1625.56 433.002 1625.37 435.312Z" fill="black"/>
<path fill-rule="evenodd" clip-rule="evenodd" d="M1450.54 371.282C1450.34 373.722 1450.14 376.162 1449.94 378.602C1450.14 376.152 1450.34 373.722 1450.54 371.282Z" fill="black"/>
<path fill-rule="evenodd" clip-rule="evenodd" d="M1624.19 528.902C1624.17 526.542 1624.15 524.182 1624.14 521.832C1625.66 524.182 1625.6 526.542 1624.19 528.902Z" fill="black"/>
<path fill-rule="evenodd" clip-rule="evenodd" d="M1361.69 867.772C1361.67 870.132 1361.65 872.502 1361.62 874.852C1360.06 872.472 1360.37 870.112 1361.69 867.772Z" fill="black"/>
<path fill-rule="evenodd" clip-rule="evenodd" d="M1539.64 594.142C1539.37 591.742 1539.09 589.352 1538.82 586.962C1539.09 589.362 1539.37 591.752 1539.64 594.142Z" fill="black"/>
<path fill-rule="evenodd" clip-rule="evenodd" d="M66.1394 374.432C64.2894 376.872 61.7693 375.202 59.5693 375.492C61.7693 375.142 63.9494 374.782 66.1394 374.432Z" fill="black"/>
<path fill-rule="evenodd" clip-rule="evenodd" d="M1355.11 384.482C1355.32 386.472 1355.54 388.452 1355.76 390.442C1355.54 388.442 1355.32 386.462 1355.11 384.482Z" fill="black"/>
<path fill-rule="evenodd" clip-rule="evenodd" d="M199.359 186.962C197.009 187.012 194.66 187.052 192.31 187.102C194.64 185.732 196.979 185.342 199.359 186.962Z" fill="black"/>
<path fill-rule="evenodd" clip-rule="evenodd" d="M1450.49 405.682C1450.33 407.772 1450.18 409.852 1450.03 411.932C1450.18 409.842 1450.33 407.762 1450.49 405.682Z" fill="black"/>
<path fill-rule="evenodd" clip-rule="evenodd" d="M1386.01 149.692C1386.19 147.792 1386.38 145.882 1386.56 143.992C1386.37 145.902 1386.19 147.792 1386.01 149.692Z" fill="black"/>
<path fill-rule="evenodd" clip-rule="evenodd" d="M1367.54 143.732C1367.35 145.792 1367.17 147.862 1366.99 149.912C1367.17 147.852 1367.35 145.792 1367.54 143.732Z" fill="black"/>
<path fill-rule="evenodd" clip-rule="evenodd" d="M346.289 5.97168C343.899 6.26168 341.509 6.55167 339.119 6.83167C341.509 6.54167 343.899 6.26168 346.289 5.97168Z" fill="black"/>
<path fill-rule="evenodd" clip-rule="evenodd" d="M1518.81 194.652C1518.96 192.732 1519.11 190.812 1519.26 188.902C1519.11 190.822 1518.96 192.732 1518.81 194.652Z" fill="black"/>
<path fill-rule="evenodd" clip-rule="evenodd" d="M92.9194 511.342C94.3394 511.362 95.7494 511.382 97.1394 511.402C95.7194 511.382 94.3194 511.362 92.9194 511.342Z" fill="black"/>
<path fill-rule="evenodd" clip-rule="evenodd" d="M1367.61 748.172C1367.47 750.292 1367.33 752.422 1367.18 754.542C1367.33 752.412 1367.47 750.292 1367.61 748.172Z" fill="black"/>
<path fill-rule="evenodd" clip-rule="evenodd" d="M1511.84 334.652C1511.78 332.602 1511.73 330.552 1511.67 328.512C1511.73 330.562 1511.78 332.602 1511.84 334.652Z" fill="black"/>
<path fill-rule="evenodd" clip-rule="evenodd" d="M406.52 1.12177C404.33 1.12177 402.149 1.12177 399.979 1.12177C402.159 -0.378231 404.34 -0.338231 406.52 1.12177Z" fill="black"/>
<path fill-rule="evenodd" clip-rule="evenodd" d="M988.749 483.122C986.359 483.182 983.979 483.242 981.589 483.302C983.939 481.642 986.329 481.602 988.749 483.122Z" fill="black"/>
<path fill-rule="evenodd" clip-rule="evenodd" d="M1197.5 1037.33C1198.92 1037.35 1200.33 1037.38 1201.73 1037.42C1200.31 1037.39 1198.9 1037.36 1197.5 1037.33Z" fill="black"/>
<path fill-rule="evenodd" clip-rule="evenodd" d="M1250.83 1039.81C1252.24 1039.76 1253.65 1039.71 1255.05 1039.67C1253.63 1039.72 1252.23 1039.77 1250.83 1039.81Z" fill="black"/>
<path fill-rule="evenodd" clip-rule="evenodd" d="M416.299 1040.8C417.779 1040.83 419.249 1040.87 420.709 1040.91C419.229 1040.87 417.769 1040.83 416.299 1040.8Z" fill="black"/>
<path fill-rule="evenodd" clip-rule="evenodd" d="M1644.9 818.212C1644.69 816.192 1644.48 814.162 1644.27 812.142C1644.48 814.172 1644.69 816.192 1644.9 818.212Z" fill="black"/>
<path fill-rule="evenodd" clip-rule="evenodd" d="M1452.29 476.902C1452.46 478.832 1452.63 480.762 1452.79 482.682C1452.63 480.752 1452.46 478.822 1452.29 476.902Z" fill="black"/>
<path fill-rule="evenodd" clip-rule="evenodd" d="M1526.42 443.772C1526.19 441.732 1525.96 439.682 1525.73 437.642C1525.96 439.692 1526.19 441.732 1526.42 443.772Z" fill="black"/>
<path fill-rule="evenodd" clip-rule="evenodd" d="M428.27 1042.02C429.75 1042 431.239 1041.97 432.709 1041.95C431.219 1041.98 429.74 1042 428.27 1042.02Z" fill="black"/>
<path fill-rule="evenodd" clip-rule="evenodd" d="M969.929 1042.18C971.369 1042.11 972.819 1042.05 974.249 1041.99C972.799 1042.05 971.359 1042.12 969.929 1042.18Z" fill="black"/>
<path fill-rule="evenodd" clip-rule="evenodd" d="M1514.32 294.372C1514.25 292.292 1514.19 290.222 1514.12 288.152C1514.19 290.232 1514.25 292.302 1514.32 294.372Z" fill="black"/>
<path fill-rule="evenodd" clip-rule="evenodd" d="M287.229 1043.37C288.679 1043.36 290.13 1043.35 291.56 1043.34C290.11 1043.35 288.669 1043.36 287.229 1043.37Z" fill="black"/>
<path fill-rule="evenodd" clip-rule="evenodd" d="M1513.71 1043.35C1515.2 1043.37 1516.69 1043.38 1518.17 1043.4C1516.67 1043.39 1515.19 1043.37 1513.71 1043.35Z" fill="black"/>
<path fill-rule="evenodd" clip-rule="evenodd" d="M1545.92 1043.18C1547.36 1043.28 1548.8 1043.38 1550.23 1043.48C1548.78 1043.38 1547.35 1043.28 1545.92 1043.18Z" fill="black"/>
<path fill-rule="evenodd" clip-rule="evenodd" d="M1558.93 1043.15C1560.4 1043.19 1561.87 1043.24 1563.31 1043.27C1561.84 1043.23 1560.39 1043.19 1558.93 1043.15Z" fill="black"/>
<path fill-rule="evenodd" clip-rule="evenodd" d="M1625.73 451.992C1625.63 449.952 1625.54 447.912 1625.44 445.882C1625.54 447.922 1625.63 449.952 1625.73 451.992Z" fill="black"/>
<path fill-rule="evenodd" clip-rule="evenodd" d="M372.189 275.042C376.059 275.372 379.94 275.712 383.8 276.042C379.93 275.712 376.059 275.372 372.189 275.042Z" fill="black"/>
<path fill-rule="evenodd" clip-rule="evenodd" d="M1465.57 443.372C1465.69 447.062 1465.81 450.762 1465.93 454.442C1465.81 450.742 1465.69 447.062 1465.57 443.372Z" fill="black"/>
<path fill-rule="evenodd" clip-rule="evenodd" d="M1545.49 1022.74C1549.53 1022.99 1553.57 1023.23 1557.62 1023.48C1553.55 1023.66 1549.42 1024.82 1545.49 1022.74Z" fill="black"/>
<path fill-rule="evenodd" clip-rule="evenodd" d="M1521.57 585.742C1521.6 582.222 1521.63 578.692 1521.66 575.182C1521.63 578.702 1521.6 582.222 1521.57 585.742Z" fill="black"/>
<path fill-rule="evenodd" clip-rule="evenodd" d="M1511.22 696.472C1514.77 696.512 1518.32 696.562 1521.86 696.612C1518.31 696.562 1514.77 696.512 1511.22 696.472Z" fill="black"/>
<path fill-rule="evenodd" clip-rule="evenodd" d="M618.299 634.512C618.209 637.202 618.119 639.882 618.039 642.562C618.119 639.872 618.209 637.192 618.299 634.512Z" fill="black"/>
<path fill-rule="evenodd" clip-rule="evenodd" d="M1570.25 520.792C1570.11 523.462 1569.96 526.132 1569.82 528.792C1569.97 526.112 1570.11 523.452 1570.25 520.792Z" fill="black"/>
<path fill-rule="evenodd" clip-rule="evenodd" d="M1494.58 1010.85C1497.16 1010.67 1499.74 1010.5 1502.31 1010.33C1500.37 1011.89 1498.42 1012.01 1494.58 1010.85Z" fill="black"/>
<path fill-rule="evenodd" clip-rule="evenodd" d="M1477.31 661.472C1477.49 664.362 1477.66 667.242 1477.84 670.112C1477.66 667.232 1477.49 664.352 1477.31 661.472Z" fill="black"/>
<path fill-rule="evenodd" clip-rule="evenodd" d="M512.469 206.742C512.499 203.962 512.529 201.182 512.559 198.412C512.529 201.192 512.499 203.972 512.469 206.742Z" fill="black"/>
<path fill-rule="evenodd" clip-rule="evenodd" d="M1480.43 697.052L1490.05 696.842C1486.88 698.372 1483.67 698.432 1480.43 697.052Z" fill="black"/>
<path fill-rule="evenodd" clip-rule="evenodd" d="M1569.16 717.582C1566.89 717.602 1564.63 717.622 1562.37 717.652C1564.65 717.632 1566.91 717.612 1569.16 717.582Z" fill="black"/>
<path fill-rule="evenodd" clip-rule="evenodd" d="M738.619 1011.96C741.759 1012 744.899 1012.04 748.039 1012.08C744.879 1013.66 741.739 1013.89 738.619 1011.96Z" fill="black"/>
<path fill-rule="evenodd" clip-rule="evenodd" d="M1466.68 467.102C1466.83 469.992 1466.99 472.882 1467.14 475.762C1466.99 472.872 1466.83 469.982 1466.68 467.102Z" fill="black"/>
<path fill-rule="evenodd" clip-rule="evenodd" d="M449.649 281.832C452.329 280.502 455.039 280.282 457.769 281.682C455.059 281.732 452.349 281.782 449.649 281.832Z" fill="black"/>
<path fill-rule="evenodd" clip-rule="evenodd" d="M1378.81 500.492C1379.03 502.922 1379.25 505.372 1379.48 507.802C1379.25 505.352 1379.03 502.922 1378.81 500.492Z" fill="black"/>
<path fill-rule="evenodd" clip-rule="evenodd" d="M1605.72 443.572C1604.34 441.182 1604.39 438.812 1605.79 436.462C1605.77 438.832 1605.75 441.202 1605.72 443.572Z" fill="black"/>
<path fill-rule="evenodd" clip-rule="evenodd" d="M1563.41 695.312C1566.17 694.472 1568.94 693.272 1571.69 695.342C1568.93 695.332 1566.17 695.322 1563.41 695.312Z" fill="black"/>
<path fill-rule="evenodd" clip-rule="evenodd" d="M288.489 1015.34C291.039 1014.22 293.579 1013.63 296.099 1015.42C293.559 1015.39 291.029 1015.37 288.489 1015.34Z" fill="black"/>
<path fill-rule="evenodd" clip-rule="evenodd" d="M809.719 1011.74C812.439 1010.55 815.159 1009.9 817.849 1011.83C815.139 1011.8 812.429 1011.77 809.719 1011.74Z" fill="black"/>
<path fill-rule="evenodd" clip-rule="evenodd" d="M203.149 659.282C203.349 661.742 203.559 664.202 203.759 666.652C203.559 664.192 203.349 661.732 203.149 659.282Z" fill="black"/>
<path fill-rule="evenodd" clip-rule="evenodd" d="M835.77 517.592C838.45 516.612 841.12 516.102 843.75 517.732C841.09 517.682 838.43 517.632 835.77 517.592Z" fill="black"/>
<path fill-rule="evenodd" clip-rule="evenodd" d="M1466.63 590.812C1466.78 593.212 1466.93 595.622 1467.08 598.022C1466.93 595.612 1466.78 593.212 1466.63 590.812Z" fill="black"/>
<path fill-rule="evenodd" clip-rule="evenodd" d="M201.419 373.862C201.199 375.792 200.969 377.732 200.749 379.662C200.969 377.722 201.199 375.792 201.419 373.862Z" fill="black"/>
<path fill-rule="evenodd" clip-rule="evenodd" d="M46.0292 935.532C45.8892 937.412 45.7591 939.302 45.6191 941.172C45.7591 939.282 45.8992 937.412 46.0292 935.532Z" fill="black"/>
<path fill-rule="evenodd" clip-rule="evenodd" d="M1522.75 603.532C1522.6 601.592 1522.45 599.642 1522.3 597.702C1522.45 599.652 1522.6 601.592 1522.75 603.532Z" fill="black"/>
<path fill-rule="evenodd" clip-rule="evenodd" d="M1327.52 1008.1C1329.91 1008.12 1332.3 1008.14 1334.68 1008.15C1332.29 1008.14 1329.91 1008.12 1327.52 1008.1Z" fill="black"/>
<path fill-rule="evenodd" clip-rule="evenodd" d="M617.389 651.102C617.839 652.522 618.279 653.942 618.729 655.362C615.749 656.082 615.299 654.662 617.389 651.102Z" fill="black"/>
<path fill-rule="evenodd" clip-rule="evenodd" d="M796.509 514.382C798.929 514.372 801.359 514.362 803.779 514.352C801.359 515.502 798.939 516.292 796.509 514.382Z" fill="black"/>
<path fill-rule="evenodd" clip-rule="evenodd" d="M204.509 670.922C204.589 673.072 204.669 675.232 204.749 677.372C204.669 675.222 204.589 673.072 204.509 670.922Z" fill="black"/>
<path fill-rule="evenodd" clip-rule="evenodd" d="M1384.7 693.592C1384.79 695.572 1384.87 697.552 1384.96 699.522C1384.88 697.542 1384.79 695.572 1384.7 693.592Z" fill="black"/>
<path fill-rule="evenodd" clip-rule="evenodd" d="M180.459 1020.1C182.759 1018.57 185.069 1018.71 187.379 1020.08C185.069 1020.09 182.759 1020.09 180.459 1020.1Z" fill="black"/>
<path fill-rule="evenodd" clip-rule="evenodd" d="M241.099 346.202C241.219 348.222 241.339 350.242 241.469 352.252C241.349 350.222 241.219 348.212 241.099 346.202Z" fill="black"/>
<path fill-rule="evenodd" clip-rule="evenodd" d="M168.479 1020.31C170.869 1020.32 173.27 1020.33 175.66 1020.34C173.26 1021.98 170.859 1022.05 168.479 1020.31Z" fill="black"/>
<path fill-rule="evenodd" clip-rule="evenodd" d="M192.959 455.762C192.989 457.682 193.019 459.602 193.059 461.502C193.029 459.582 192.999 457.672 192.959 455.762Z" fill="black"/>
<path fill-rule="evenodd" clip-rule="evenodd" d="M1509.59 455.482C1509.46 453.532 1509.34 451.582 1509.21 449.632C1509.34 451.592 1509.47 453.542 1509.59 455.482Z" fill="black"/>
<path fill-rule="evenodd" clip-rule="evenodd" d="M966.01 944.882C964.48 944.912 962.949 944.932 961.439 944.962C962.969 944.942 964.49 944.912 966.01 944.882Z" fill="black"/>
<path fill-rule="evenodd" clip-rule="evenodd" d="M966.129 1016.9C968.499 1017.14 970.879 1017.37 973.249 1017.6C970.869 1017.37 968.499 1017.14 966.129 1016.9Z" fill="black"/>
<path fill-rule="evenodd" clip-rule="evenodd" d="M539.599 857.322C542.689 874.742 515.609 891.782 513.459 867.022C512.669 857.962 518.729 851.592 525.509 846.062C535.139 838.202 540.519 845.722 539.599 857.322Z" fill="black"/>
<path fill-rule="evenodd" clip-rule="evenodd" d="M241.109 644.762C247.479 647.372 296.229 663.252 270.909 671.242C264.209 673.362 254.079 673.672 248.269 669.952C241.279 665.462 234.229 652.232 241.109 644.762Z" fill="black"/>
<path fill-rule="evenodd" clip-rule="evenodd" d="M253.099 408.832C269.639 406.912 284.889 434.082 264.489 433.192C249.639 432.552 229.679 408.832 253.099 408.832Z" fill="black"/>
<path fill-rule="evenodd" clip-rule="evenodd" d="M312.279 475.442C326.099 487.492 300.489 514.462 290.319 504.022C285.129 498.692 289.919 487.212 294.209 482.742C298.599 478.172 306.429 477.312 312.279 475.442Z" fill="black"/>
<path fill-rule="evenodd" clip-rule="evenodd" d="M353.409 787.852C345.249 789.152 309.389 800.862 316.869 779.582C319.719 771.462 327.679 773.872 334.949 774.252C346.669 774.842 353.409 774.282 353.409 787.852Z" fill="black"/>
<path fill-rule="evenodd" clip-rule="evenodd" d="M329.78 842.672C341.99 849.202 324.15 885.752 314.03 877.972C299.99 867.182 319.19 845.952 329.78 842.672Z" fill="black"/>
<path fill-rule="evenodd" clip-rule="evenodd" d="M383.029 813.292C388.969 810.872 416.949 837.782 406.299 845.272C400.839 849.112 390.489 842.532 387.199 838.562C381.029 831.122 380.469 821.952 383.029 813.292Z" fill="black"/>
<path fill-rule="evenodd" clip-rule="evenodd" d="M221.569 593.302C227.629 594.302 238.109 594.612 238.499 603.142C238.849 610.632 229.449 613.062 222.839 613.652C215.969 614.262 206.889 612.322 206.759 603.692C206.619 594.382 221.349 594.952 221.569 593.302Z" fill="black"/>
<path fill-rule="evenodd" clip-rule="evenodd" d="M371.189 964.272C377.659 968.192 407.799 982.322 394.879 992.522C390.039 996.342 375.389 988.452 372.089 984.442C368.149 979.662 364.299 968.452 371.189 964.272Z" fill="black"/>
<path fill-rule="evenodd" clip-rule="evenodd" d="M454.979 861.802C454.049 846.212 480.349 840.012 474.899 862.132C473.359 868.372 471.879 877.842 464.159 878.202C455.039 878.632 454.709 867.842 454.979 861.802Z" fill="black"/>
<path fill-rule="evenodd" clip-rule="evenodd" d="M373.729 590.742C373.919 602.562 351.249 612.992 351.079 594.252C350.919 577.502 374.579 572.602 373.729 590.742Z" fill="black"/>
<path fill-rule="evenodd" clip-rule="evenodd" d="M358.769 529.152C364.349 530.952 371.769 531.882 372.259 538.972C372.779 546.482 365.809 549.822 359.529 549.402C354.389 549.052 346.769 545.242 345.839 539.662C344.469 531.462 352.469 530.932 358.769 529.152Z" fill="black"/>
<path fill-rule="evenodd" clip-rule="evenodd" d="M254.939 745.642C254.839 735.892 274.399 724.162 277.999 735.482C279.149 739.102 269.929 755.352 266.869 756.572C258.759 759.782 257.619 752.282 254.939 745.642Z" fill="black"/>
<path fill-rule="evenodd" clip-rule="evenodd" d="M415.199 908.042C408.589 913.962 388.77 930.572 390.25 908.272C391.2 894.022 416.949 894.772 415.199 908.042Z" fill="black"/>
<path fill-rule="evenodd" clip-rule="evenodd" d="M738.199 971.792C740.359 962.412 771.379 978.682 761.029 990.522C757.559 994.502 748.469 990.902 744.979 988.552C738.069 983.882 737.919 979.582 738.199 971.792Z" fill="black"/>
<path fill-rule="evenodd" clip-rule="evenodd" d="M565.389 771.052C566.599 766.872 567.939 759.482 571.929 756.812C579.149 751.992 585.429 759.272 585.429 766.942C585.439 781.262 569.139 785.772 565.389 771.052Z" fill="black"/>
<path fill-rule="evenodd" clip-rule="evenodd" d="M488.509 938.432C496.569 940.272 514.499 959.852 504.099 967.832C494.089 975.512 480.779 944.272 488.509 938.432Z" fill="black"/>
<path fill-rule="evenodd" clip-rule="evenodd" d="M496.179 790.282C506.529 791.102 520.769 807.872 504.669 810.532C492.079 812.622 477.439 794.382 496.179 790.282Z" fill="black"/>
<path fill-rule="evenodd" clip-rule="evenodd" d="M589.919 867.422C592.519 858.682 618.199 868.052 616.749 877.682C615.989 882.792 605.489 884.002 599.969 882.642C591.839 880.652 589.729 875.322 589.919 867.422Z" fill="black"/>
<path fill-rule="evenodd" clip-rule="evenodd" d="M287.219 379.002C287.409 367.702 309.139 363.092 310.729 374.482C312.169 384.782 286.949 395.732 287.219 379.002Z" fill="black"/>
<path fill-rule="evenodd" clip-rule="evenodd" d="M582.739 983.912C584.309 978.232 584.979 971.392 592.079 970.642C600.219 969.782 599.979 976.012 599.019 982.482C596.419 1000.05 586.479 1000.93 582.739 983.912Z" fill="black"/>
<path fill-rule="evenodd" clip-rule="evenodd" d="M239.619 513.512C228.289 516.072 207.539 494.262 220.229 489.582C229.159 486.272 239.619 506.932 239.619 513.512Z" fill="black"/>
<path fill-rule="evenodd" clip-rule="evenodd" d="M384.089 682.942C378.329 685.652 376.999 687.302 372.569 682.852C368.709 678.972 368.889 668.162 372.199 664.132C384.869 648.672 384.569 676.692 384.089 682.942Z" fill="black"/>
<path fill-rule="evenodd" clip-rule="evenodd" d="M431.129 651.602C437.139 652.372 454.999 669.312 445.699 676.042C434.299 684.292 427.849 658.452 431.129 651.602Z" fill="black"/>
<path fill-rule="evenodd" clip-rule="evenodd" d="M561.199 656.062C556.829 672.892 545.919 661.572 546.539 648.842C547.529 628.442 558.839 646.202 561.199 656.062Z" fill="black"/>
<path fill-rule="evenodd" clip-rule="evenodd" d="M627.529 926.292C634.919 929.352 644.959 957.612 634.389 959.132C622.529 960.832 626.479 932.182 627.529 926.292Z" fill="black"/>
<path fill-rule="evenodd" clip-rule="evenodd" d="M535.189 910.422C543.649 907.562 546.749 925.412 541.839 928.722C531.019 936.012 533.299 914.632 535.189 910.422Z" fill="black"/>
<path fill-rule="evenodd" clip-rule="evenodd" d="M454.979 861.802C454.879 864.172 454.769 866.542 454.659 868.892C454.769 866.522 454.869 864.162 454.979 861.802Z" fill="black"/>
<path fill-rule="evenodd" clip-rule="evenodd" d="M738.199 971.792C738.109 974.222 738.019 976.642 737.929 979.062C738.009 976.632 738.099 974.212 738.199 971.792Z" fill="black"/>
<path fill-rule="evenodd" clip-rule="evenodd" d="M589.92 867.422C589.87 869.482 589.82 871.542 589.77 873.592C589.82 871.532 589.87 869.482 589.92 867.422Z" fill="black"/>
<path fill-rule="evenodd" clip-rule="evenodd" d="M1525.69 831.962C1543.23 831.402 1562.8 824.802 1580.03 826.902C1584.78 827.482 1595.7 828.672 1588.1 835.712C1584.46 839.072 1567.06 837.332 1561.79 838.452C1529.59 845.272 1493.03 849.662 1460.01 849.102C1444.55 848.832 1428.98 847.592 1413.53 846.782C1398.09 845.962 1396.57 839.692 1413.94 837.692C1431.99 835.622 1450.5 836.392 1468.64 836.372C1487.7 836.342 1506.67 833.232 1525.69 831.962Z" fill="black"/>
<path fill-rule="evenodd" clip-rule="evenodd" d="M1564.2 789.712C1562.51 794.522 1561.03 805.552 1554.56 806.272C1545.5 807.282 1544 791.732 1544.33 786.042C1544.74 779.182 1547.21 767.772 1555.74 770.152C1562.95 772.162 1563.68 784.222 1564.2 789.712Z" fill="black"/>
<path fill-rule="evenodd" clip-rule="evenodd" d="M1509.35 786.192C1510.67 781.052 1511.32 769.442 1518.6 769.052C1526.74 768.612 1529.06 780.702 1529.01 786.492C1528.95 791.992 1526.92 802.382 1520.44 803.652C1511.66 805.372 1510.87 792.072 1509.35 786.192Z" fill="black"/>
<path fill-rule="evenodd" clip-rule="evenodd" d="M1418 795.422C1415.36 801.612 1413.62 810.132 1405.46 805.912C1399.16 802.652 1398.28 789.502 1399.47 783.482C1400.7 777.242 1403.31 770.082 1410.48 772.892C1418.75 776.122 1417.91 788.612 1418 795.422Z" fill="black"/>
<path fill-rule="evenodd" clip-rule="evenodd" d="M1487.18 789.712C1479.4 813.282 1465.22 797.332 1470.6 779.742C1476.23 761.352 1486.46 779.212 1487.18 789.712Z" fill="black"/>
<path fill-rule="evenodd" clip-rule="evenodd" d="M1449.29 790.882C1447.13 795.032 1444.83 803.982 1439.01 803.042C1431.88 801.882 1431.65 788.152 1432.43 783.042C1433.12 778.562 1435.13 771.102 1441.1 771.202C1449.73 771.342 1449.15 785.512 1449.29 790.882Z" fill="black"/>
<path fill-rule="evenodd" clip-rule="evenodd" d="M1604.39 795.402C1598.6 808.392 1590.64 797.202 1593.19 787.982C1596.97 774.302 1604.06 786.422 1604.39 795.402Z" fill="black"/>
<path fill-rule="evenodd" clip-rule="evenodd" d="M1462.64 836.382C1456.32 836.362 1449.99 836.342 1443.67 836.312C1450 835.122 1456.32 834.662 1462.64 836.382Z" fill="black"/>
<path fill-rule="evenodd" clip-rule="evenodd" d="M1588.26 826.852C1582.77 826.882 1577.29 826.922 1571.81 826.952C1577.29 825.312 1582.77 825.282 1588.26 826.852Z" fill="black"/>
<path fill-rule="evenodd" clip-rule="evenodd" d="M1525.69 831.962C1521.3 832.262 1516.92 832.552 1512.53 832.842C1516.92 832.552 1521.31 832.262 1525.69 831.962Z" fill="black"/>
<path fill-rule="evenodd" clip-rule="evenodd" d="M1418 795.422C1417.96 792.272 1417.92 789.132 1417.88 785.982C1419.5 789.112 1419.39 792.262 1418 795.422Z" fill="black"/>
<path fill-rule="evenodd" clip-rule="evenodd" d="M1452.4 849.032C1454.94 849.052 1457.49 849.072 1460.01 849.102C1457.46 849.072 1454.93 849.052 1452.4 849.032Z" fill="black"/>
<path fill-rule="evenodd" clip-rule="evenodd" d="M1479.25 836.352C1475.71 836.352 1472.17 836.362 1468.64 836.372C1472.17 834.882 1475.71 834.832 1479.25 836.352Z" fill="black"/>
<path fill-rule="evenodd" clip-rule="evenodd" d="M1449.29 790.882C1449.2 787.602 1449.12 784.312 1449.04 781.042C1449.12 784.322 1449.21 787.602 1449.29 790.882Z" fill="black"/>
<path fill-rule="evenodd" clip-rule="evenodd" d="M1399.47 783.482C1399.45 786.682 1399.43 789.882 1399.4 793.072C1399.42 789.862 1399.44 786.672 1399.47 783.482Z" fill="black"/>
<path fill-rule="evenodd" clip-rule="evenodd" d="M1545.8 830.772C1542.67 831.052 1539.54 831.342 1536.42 831.622C1539.55 831.342 1542.67 831.052 1545.8 830.772Z" fill="black"/>
<path fill-rule="evenodd" clip-rule="evenodd" d="M1471.3 849.122C1473.48 849.082 1475.66 849.042 1477.81 849.002C1475.63 849.052 1473.46 849.092 1471.3 849.122Z" fill="black"/>
<path fill-rule="evenodd" clip-rule="evenodd" d="M1564.2 789.712C1564.01 787.702 1563.82 785.692 1563.63 783.692C1563.82 785.702 1564.01 787.712 1564.2 789.712Z" fill="black"/>
<path fill-rule="evenodd" clip-rule="evenodd" d="M1487.17 789.712C1487.04 787.652 1486.89 785.582 1486.75 783.532C1486.9 785.592 1487.04 787.652 1487.17 789.712Z" fill="black"/>
<path fill-rule="evenodd" clip-rule="evenodd" d="M364.249 183.182C355.689 180.932 354.079 168.902 355.459 161.512C357.019 157.952 358.579 154.392 360.139 150.832C359.529 149.512 358.919 148.192 358.309 146.882C359.089 139.542 357.089 136.352 365.519 139.322C381.179 144.852 383.689 182.612 364.249 183.182Z" fill="black"/>
<path fill-rule="evenodd" clip-rule="evenodd" d="M491.019 159.922C498.069 159.362 510.889 167.572 503.859 175.522C499.509 180.452 485.169 178.122 479.329 179.152C471.569 180.512 463.479 182.372 467.669 170.762C470.969 161.632 482.739 159.682 491.019 159.922Z" fill="black"/>
<path fill-rule="evenodd" clip-rule="evenodd" d="M483.589 214.562C476.429 208.812 479.629 182.642 490.529 187.352C501.749 192.202 489.569 210.782 483.589 214.562Z" fill="black"/>
<path fill-rule="evenodd" clip-rule="evenodd" d="M355.459 161.512C355.459 164.262 355.449 167.022 355.449 169.762C353.949 167.002 353.999 164.252 355.459 161.512Z" fill="black"/>
<path fill-rule="evenodd" clip-rule="evenodd" d="M364.249 183.182C365.709 183.142 367.169 183.102 368.609 183.062C367.149 183.112 365.699 183.142 364.249 183.182Z" fill="black"/>
<path fill-rule="evenodd" clip-rule="evenodd" d="M1249.1 936.872C1248.43 948.782 1235.65 939.982 1236.55 932.012C1238.2 917.562 1246.37 931.842 1249.1 936.872Z" fill="black"/>
</svg>
