<svg width="872" height="704" viewBox="0 0 872 704" fill="none" xmlns="http://www.w3.org/2000/svg">
<path fill-rule="evenodd" clip-rule="evenodd" d="M528 186.138C538.792 180.079 545.092 169.217 551.329 158.465C552.267 156.848 553.203 155.234 554.153 153.639C554.789 152.571 555.484 151.47 556.193 150.348V150.347C558.065 147.382 560.031 144.267 561.257 141.217C561.794 139.883 562.258 137.926 562.726 135.948C563.279 133.615 563.838 131.253 564.532 129.854C566.048 126.798 577.555 125.407 585.392 124.46C587.98 124.147 590.169 123.883 591.464 123.622C605.239 120.858 621.703 119.2 632.96 129.984C635.635 132.547 638.632 134.911 641.64 137.283C645.245 140.126 648.865 142.981 651.963 146.204C656.938 151.38 663.637 160.087 666 167.002C653.874 169.339 633.725 176.498 628.897 189.223C611.122 172.907 603.619 200.083 599.682 214.343C599.442 215.213 599.215 216.036 599 216.797C589.319 212.608 589.822 199.861 590.191 190.527V190.526C590.243 189.218 590.292 187.978 590.31 186.837C590.336 185.145 590.592 183.382 590.843 181.662C591.683 175.896 592.452 170.618 584.216 170.153C576.225 169.704 568.464 172.958 561.257 176.005C552.265 179.808 542.831 185.496 535.568 192.03L528 186.138ZM510.534 160.72C510.533 161.03 510.529 161.339 510.526 161.648C510.498 164.397 510.471 167.137 511.306 169.787C511.789 171.319 511.797 173.559 511.804 175.71C511.809 177.269 511.814 178.782 512 179.945C504.194 177.569 489.691 174.044 481.721 177.249C474.102 180.312 473.143 194.479 472.874 201.37C472.806 203.111 473.05 205.202 473.304 207.372C473.734 211.055 474.19 214.968 473.196 217.797C472.429 219.978 472.454 220.623 472.505 220.78C472.373 220.703 471.775 220.68 469.585 222.261C468.609 222.964 467.547 223.524 466.479 224.086C465.207 224.756 463.928 225.43 462.779 226.356C459.723 228.821 458.68 231.548 457.428 234.82C457.105 235.664 456.768 236.545 456.378 237.467C454.536 241.833 449.627 245.713 444.147 245.555C444.844 244.291 445.584 243.041 446.322 241.794C450.246 235.163 454.112 228.631 451.158 220.738C448.561 213.796 452.975 205.673 456.591 199.021L456.803 198.631C457.024 198.223 457.656 197.316 458.503 196.099C462.276 190.681 470.324 179.125 465.475 178.143C462.028 177.444 454.591 191.837 451.841 197.159C451.515 197.791 451.254 198.296 451.075 198.631C446.352 195.438 444.231 191.502 447.866 186.693C449.151 184.992 450.572 183.405 451.995 181.814C453.664 179.95 455.337 178.081 456.803 176.018C458.096 174.199 459.379 172.276 460.68 170.329C463.816 165.631 467.051 160.787 470.755 156.89C479.959 147.21 496.024 140.62 509.276 140.561C508.979 144.332 509.41 147.955 509.846 151.627C510.198 154.592 510.554 157.588 510.534 160.72ZM472.537 220.823C472.541 220.817 472.534 220.797 472.505 220.78C472.518 220.82 472.533 220.828 472.537 220.823ZM547.912 315.383C550.524 309.896 552.806 305.1 554.153 302.677C562.298 288.021 570.364 273.489 578 258.561C571.944 260.87 566.815 264.41 561.618 267.997C560.834 268.538 560.049 269.079 559.258 269.618C556.521 271.485 553.534 273.17 550.532 274.864C546.025 277.408 541.482 279.972 537.693 283.198C536.835 283.928 536.141 284.737 535.479 285.509C533.967 287.27 532.625 288.833 529.897 288.806C528.032 288.788 525.391 286.862 523.03 285.139C521.655 284.136 520.374 283.202 519.397 282.754C517.473 281.874 515.886 280.721 514.316 279.581C512.547 278.296 510.799 277.027 508.615 276.181C507.257 275.654 506.147 275.478 505.124 275.316C503.395 275.042 501.916 274.807 499.911 272.983C498.619 280.62 480.667 277.023 469.021 274.689C465.154 273.914 461.982 273.279 460.346 273.24C459.724 273.226 459.079 273.207 458.416 273.187C452.597 273.018 445.365 272.808 440.295 274.985C436.411 276.652 431.821 280.418 427.838 283.685C426.3 284.948 424.853 286.135 423.572 287.099C417.253 291.85 412.748 297.907 408.096 304.484C402.127 312.922 411.041 312.108 417.473 311.521C417.916 311.48 418.348 311.441 418.762 311.406C433.422 310.161 447.667 312.63 461.799 315.979C474.42 318.969 485.901 323.561 497.984 328.412C500.222 329.31 504.29 331.422 508.879 333.804C518.232 338.659 529.748 344.638 532.343 343.753C534.813 342.909 542.161 327.468 547.912 315.383Z" fill="#B6B2B2"/>
<path fill-rule="evenodd" clip-rule="evenodd" d="M629.821 220.315C634.909 220.055 639.975 221.191 645.063 220.696C640.645 216.848 636.228 213.001 631.81 209.154C629.859 212.581 629.716 216.48 629.821 220.315ZM509.104 141.217C495.934 141.275 479.869 147.89 470.72 157.551C465.873 162.671 461.867 169.547 457.767 175.299C455.018 179.159 452.333 182.884 448.995 186.276C444.128 191.219 445.522 192.349 451.005 196.071C452.741 192.819 461.943 175.431 465.8 176.213C471.66 177.403 460.342 195.769 459.106 198.057C455.445 204.827 449.532 214.283 452.189 221.423C455.694 230.848 450.612 236.219 446.198 244.25C450.833 244.384 451.289 242.577 452.887 238.624C454.938 233.544 457.176 229.3 461.514 225.788C464.873 223.068 470.368 221.923 471.946 218.639C473.898 214.58 472.673 206.565 472.831 202.049C473.071 195.187 473.089 178.967 480.65 175.918C488.572 172.724 502.816 175.734 510.56 178.1C509.593 172.053 506.543 168.104 506.585 161.384C506.63 154.35 508.567 148.075 509.104 141.217ZM407.928 253.433C414.817 251.252 421.348 248.954 428.436 247.468C435.853 245.912 436.349 244.132 440.53 237.771C443.7 232.949 447.545 229.191 446.647 223.286C446.071 219.498 443.998 217.653 444.621 213.393C445.008 210.753 446.24 207.871 447.13 205.36C448.222 202.28 450.484 198.787 445.224 198.635C442.319 198.55 442.177 200.083 440.211 202.656C436.583 207.409 432.407 211.725 428.546 216.284C421.841 224.199 414.73 232.621 407.245 239.947C399.005 248.008 391.893 257.73 386.567 268.05C385.583 269.956 379.602 281.181 382.154 283.382C384.497 285.404 397.53 280.689 399.906 280.138C410.164 277.757 421.807 276.907 431.498 272.582C436.436 270.378 447.332 267.748 451.232 264.339C454.857 261.17 454.694 253.492 452.59 249.025C446.702 252.688 404.132 266.509 407.928 253.433ZM536.089 190.437C542.963 184.228 551.088 179.247 559.576 175.556C567.168 172.255 576.599 168.575 585.046 169.148C595.569 169.861 591.172 178.338 591.134 185.556C591.085 195.135 586.887 208.933 598.324 213.903C602.057 200.64 609.926 169.278 628.778 186.656C633.596 173.904 650.779 169.588 662.879 167.246C660.686 160.803 654.024 154.971 649.407 150.135C643.631 144.086 639.071 136.996 633.284 131.061C621.853 119.34 601.143 123.104 586.67 126.026C581.84 127 567.835 128.224 565.495 131.772C564.027 133.997 564.847 139.433 563.759 142.154C562.26 145.902 559.699 149.377 557.644 152.839C550.148 165.472 542.521 178.187 529.692 185.421L536.089 190.437ZM578.041 258.495C571.253 261.099 566.26 265.454 560.24 269.121C552.941 273.568 544.381 277.733 537.83 283.225C535.433 285.234 534.086 288.704 530.778 288.929C527.9 289.125 523.515 285.782 520.963 284.613C516.683 282.648 512.595 279.671 508.294 277.92C504.759 276.481 503.194 276.775 500.136 273.976C498.42 284.187 467.211 274.643 460.664 274.487C454.607 274.343 446.297 275.061 440.66 277.495C435.289 279.815 431.089 284.92 426.491 288.398C420.189 293.168 414.176 297.992 409.535 304.594C403.169 313.647 412.773 311.085 419.178 310.538C433.798 309.288 448.02 312.771 462.114 316.131C474.711 319.134 487.153 322.737 499.213 327.607C505.995 330.347 513.133 332.865 519.512 336.425C522.875 338.303 528.329 342.899 532.188 341.574C535.726 340.36 539.253 330.216 541.398 326.164C545.565 318.299 549.948 310.567 554.25 302.779C562.376 288.068 570.424 273.48 578.041 258.495ZM494.518 453.197C498.701 450.795 505.52 451.442 510.145 450.435C515.372 449.298 520.627 447.444 525.611 445.512C530.658 443.556 535.427 441.555 540.039 439.107C542.148 437.988 544.959 436.886 546.908 435.333C548.479 434.081 549.051 431.755 550.5 430.62C554.278 427.657 555.388 429.516 555.895 423.8C556.445 417.591 552.961 414.075 548.625 409.428C544.742 405.27 539.699 401.676 534.821 398.75C532.663 397.457 530.358 396.001 528.156 394.766C524.824 392.896 520.359 389.787 518.611 393.801C522.252 394.73 523.055 399.38 519.768 401.051C517.964 401.969 515.232 400.621 513.197 401.596C510.056 403.103 507.034 407.305 504.345 409.568C495.519 416.999 487.078 419.785 475.525 420.382C451.386 421.627 426.108 418.873 402.433 415.296C396.34 414.374 390.257 415.372 384.107 415.152C378.123 414.939 371.884 413.63 366.002 412.619C354.672 410.673 342.73 409.071 331.576 406.208C318.087 402.744 304.551 398.264 291.886 392.462C279.738 386.895 266.007 377.698 252.362 376.989C258.185 382.69 266.91 384.887 273.914 388.642C279.638 391.709 288.59 393.679 292.207 398.734C294.561 402.024 295.742 408.067 297.521 411.925C299.487 416.194 301.302 420.532 303.123 424.865C304.952 429.225 306.857 433.587 308.342 438.078C309.262 440.863 309.658 446.639 311.83 448.544C315.295 451.584 326.891 452.933 331.561 453.944C340.279 455.833 350.223 455.582 359.115 455.713C362.79 455.767 366.494 456.268 370.005 456.336C374.936 456.431 374.466 455.577 374.396 451.296C374.355 448.725 374.407 444.05 377.845 446.167C380.188 447.61 378.576 454 378.142 456.271C397.77 458.226 418.249 459.209 437.784 458.555C456.995 457.911 475.541 455.434 494.518 453.197ZM583.159 408.141C586.623 383.271 590.843 357.986 595.567 333.438C600.341 308.632 606.081 284.051 612.537 259.338C608.273 258.317 604.008 257.299 599.743 256.28C599.585 261.487 597.824 266.01 597.073 271.193C596.037 278.347 594.056 285.294 592.871 292.425C590.618 305.979 586.444 319.242 582.767 332.46C579.019 345.935 577.766 359.818 574.323 373.361C571.485 384.518 570.035 396.808 568.45 408.278C564.605 436.105 559.127 463.986 554.958 491.827C551.048 517.929 550.656 544.561 550.881 570.907C551.019 586.992 553.473 603.031 553.345 619.138C553.313 623.119 553.648 627.088 553.855 631.063C554.001 633.867 552.494 641.642 553.772 643.991C554.581 645.478 558.056 646.85 559.286 648.915C561.231 652.183 561.641 656.089 564.766 658.561C567.299 648.345 566.102 634.861 565.549 624.434C565.013 614.388 566.053 604.005 566.258 593.805C566.658 573.795 567.718 554.078 568.744 534.058C569.869 512.103 573.067 489.614 576.191 467.824C579.032 448.011 580.927 427.847 583.159 408.141ZM490.459 96.2523C489.086 96.1233 487.713 95.9964 486.339 95.8684C486.544 98.7624 485.933 103.449 487.973 104.959C489.519 106.103 492.649 105.727 494.523 106.092C500.665 107.293 507.783 108.298 513.88 106.11C516.25 105.26 514.728 103.929 517.99 104.482C521.92 105.15 520.485 105.772 521.62 108.223C522.494 110.115 522.944 113.335 523.936 115.607C525.264 118.646 527.956 124.086 526.805 127.596C525.687 131.008 521.514 132.039 519.741 135.903C518.422 138.776 518.733 142.952 518.048 146.116C517.134 150.336 515.978 154.54 515.467 158.838C514.825 164.253 515.045 170.607 521.754 171.446C527.981 172.227 532.433 170.226 536.608 165.691C544.583 157.034 553.688 144.814 558.373 133.924C558.92 132.652 560.267 130.529 560.079 129.167C559.708 126.473 559.546 129.2 558.692 127.329C557.877 125.54 556.598 123.917 555.846 121.932C553.141 114.801 551.223 107.326 550.139 99.7774C549.647 96.3574 549.482 92.9793 549.567 89.5263C549.594 88.3473 550.302 84.8074 549.88 83.9994C549.45 83.1814 547.206 82.8043 546.507 81.9923C545.21 80.4873 542.983 76.2384 541.547 75.1114C539.78 73.7274 535.827 74.8244 535.109 72.0704C533.961 67.6644 561.133 60.4874 548.439 54.6077C538.961 50.2178 524.424 72.4093 521.11 54.9472C520.536 51.9225 521.63 47.8167 520.303 45.0447C518.836 41.981 514.845 40.8357 512.057 39.3448C508.499 37.444 504.905 35.4904 501.447 33.4085C499.075 31.9817 495.658 28.1927 493.134 27.8457C494.128 32.9887 492.223 38.0864 492.191 43.2193C497.659 41.7396 501.422 41.7082 506.819 44.3394C509.389 45.5915 519.073 52.6981 514.167 56.1163C510.192 53.7667 505.94 51.7289 501.509 50.3473C499.761 49.8017 497.579 49.06 495.72 49.0223C491.405 48.9355 492.013 49.3868 490.393 52.6403C488.831 55.7744 489.167 63.9483 485.738 65.9497C482.193 68.0193 484.927 65.1226 481.9 65.7914C480.173 66.1736 478.292 67.4574 476.711 68.1824C478.877 70.5334 483.248 72.6793 484.684 75.2903C486.78 79.0973 486.053 86.9703 486.381 91.1353C489.124 90.1533 492.011 90.1133 494.792 89.3843C497.405 88.6973 501.03 85.7273 501.303 90.0943C501.607 94.9603 493.914 96.2523 490.459 96.2523ZM526.16 224.377C526.373 220.172 526.607 215.968 527.075 211.78C527.391 208.968 530.061 200.812 528.552 198.342C526.911 195.655 521.41 195.484 518.762 194.839C513.688 193.602 508.821 192.589 503.663 191.772C498.919 191.021 494.45 190.863 489.67 190.645C484.464 190.41 483.174 189.029 482.023 194.765C481.119 199.276 479.905 203.974 479.737 208.592C479.578 212.927 480.888 216.69 476.592 219.611C486.025 219.611 498.311 211.212 506.919 218.722C519.233 229.462 497.804 232.556 492.153 234.927C496.851 237.21 503.824 239.003 506.035 244.217C508.516 250.062 504.916 252.547 499.406 253.015C499.924 255.268 501.908 256.731 502.499 259.44C503.364 263.411 500.557 262.096 504.139 265.169C508.855 269.213 518.564 271.917 524.347 274.493C525.702 275.099 527.073 275.667 528.459 276.199C530.626 278.127 532.225 277.76 533.259 275.096C536.226 273.218 538.867 269.028 541.499 266.591C547.354 261.167 553.817 256.408 560.776 252.492C557.891 251.297 554.441 253.997 551.673 252.683C549.436 251.621 550.279 249.688 548.939 248.241C549.476 246.354 548.909 245.664 547.238 246.171C546.402 246.26 545.625 246.118 544.906 245.747C543.506 244.012 542.877 243.444 542.784 240.765C542.686 237.923 544.332 236.92 544.964 234.644C547.017 233.245 546.971 231.87 544.824 230.522C543.941 229.079 543.46 227.514 543.38 225.825C542.972 219.556 548.694 217.029 553.058 213.713C545.244 212.854 545.542 203.689 550.949 199.683C556.553 195.529 568.418 197.23 575.195 198.167C576.604 198.36 580.411 200.178 581.836 199.019C582.71 198.309 582.093 192.304 582.133 191.244C582.225 188.838 582.81 185.969 582.426 183.575C581.624 178.563 583.324 181.087 579.716 180.948C571.129 180.615 560.194 188.111 552.639 191.645C544.183 195.601 538.749 196.209 538.661 206.018C538.576 215.305 535.972 224.559 534.835 233.699C534.338 237.69 533.983 258.427 526.678 250.775C523.846 247.806 525.66 243.242 525.87 239.581C526.157 234.544 525.987 229.428 526.16 224.377ZM53.7674 535.271C57.9484 536.013 64.7564 533.613 69.3174 533.361C77.2914 532.923 85.5034 532.163 93.3164 530.504C99.4284 529.205 106.393 528.063 109.689 522.146C112.636 516.859 113.677 510.238 115.264 504.467C116.107 501.404 118.282 496.961 118.281 493.792C118.28 489.671 117.725 490.483 113.428 488.227C107.989 485.374 102.697 481.397 96.8304 479.778C95.0554 479.431 93.2794 479.092 91.5024 478.759C89.2034 477.425 87.9064 478.081 87.6054 480.724C85.3614 483.09 84.0464 487.451 82.1634 490.217C77.8714 496.526 72.7744 500.825 66.1154 504.463C54.1324 511.008 42.9674 516.059 30.1334 520.339C23.0604 522.697 16.5384 526.006 9.62505 528.606C4.08645 530.689 -3.55745 531.322 -7.81195 535.959C-12.6124 541.19 -5.23386 543.092 -1.13276 546.628C2.22764 549.526 2.29304 550.191 6.88964 548.784C10.3141 547.736 13.3501 545.732 16.6384 544.373C27.9034 539.72 41.5374 536.624 53.7674 535.271ZM311.21 618.242C307.012 617.334 302.813 616.426 298.615 615.519C302.743 623.227 311.427 634.505 305.195 643.426C302.865 646.758 298.991 647.709 295.53 649.399C291.341 651.446 287.473 654.067 283.513 656.506C267.183 666.561 250.587 676.757 233.38 685.385C238.767 687.124 247.049 688.327 252.597 686.812C259.057 685.047 265.039 680.996 271.671 679.225C283.57 676.05 296.094 673.345 308.183 671.716C318.064 670.385 342.798 673.393 341.597 658.533C340.456 644.424 332.029 630.963 329.521 617.015C323.367 618.382 317.497 618.143 311.21 618.242ZM561.449 392.422C566.234 368.936 569.093 345.051 574.737 321.734C577.553 310.102 579.537 298.31 582.288 286.675C583.568 281.262 584.535 275.795 585.781 270.392C587.044 264.922 589.76 259.874 590.382 254.219C585.809 255.351 584.751 265.824 583.365 269.764C580.822 276.992 578.049 283.938 574.782 290.859C569.588 301.859 564.077 312.471 558.218 323.136C552.04 334.385 545.515 345.202 537.797 355.474C535.261 358.85 531.82 361.495 530.185 365.197C527.615 371.022 526.534 377.963 524.08 384.024C525.809 384.902 530.275 385.12 532.395 385.539C536.339 386.317 539.102 387.009 542.89 388.884C549.563 392.188 555.169 396.104 559.628 402.048C560.748 398.997 561.04 395.651 561.449 392.422ZM375.452 571.614C375.373 548.995 375.052 526.183 375.423 503.732C375.525 497.498 376.033 490.772 376.937 484.586C377.504 480.697 380.845 472.431 378.649 470.567C376.772 468.973 366.867 470.023 364.436 469.966C359.722 469.857 355.022 469.647 350.298 469.292C350.298 477.675 353.573 487.194 355.095 495.486C356.513 503.221 357.679 510.999 358.85 518.77C361.384 535.597 362.105 552.656 364.856 569.528C367.349 584.826 370.638 600.06 372.451 615.356C373.446 623.752 375.459 631.674 377.024 640.065C377.841 644.441 380.821 662.464 384.573 664.236C385.367 657.771 382.126 649.964 381.545 643.427C380.947 636.677 380.482 629.882 379.388 623.097C378.103 615.132 377.454 606.97 376.961 598.906C376.66 593.972 376.569 589.053 376.142 584.122C375.834 580.544 374.48 575.122 375.452 571.614ZM493.327 269.153C493.483 266.69 487.108 266.789 485.921 263.958C483.512 258.209 489.002 259.244 492.377 258.649C491.174 255.452 468.638 256.616 473.889 247.986C477.531 241.998 491.342 251.163 495.033 245.473C497.459 241.736 490.857 241.221 488.238 240.847C484.298 240.282 475.016 242.107 475.321 236.994C475.706 230.57 493.752 226.136 498.814 224.249C498.253 219.85 476.534 226.103 473.391 227.886C466.277 231.922 460.826 239.164 459.782 247.212C458.566 256.576 463.315 263.951 472.668 266.249C476.568 267.207 479.45 267.314 483.058 268.754C485.433 269.701 493.117 272.063 494.744 269.673C494.271 269.5 493.8 269.326 493.327 269.153ZM620.828 210.908C621.187 206.909 624.554 199.381 620.675 196.754C615.247 193.077 612.999 199.136 611.769 202.776C610.265 207.22 603.943 218.098 609.471 220.867C610.756 221.511 616.851 220.762 617.926 220.337C620.921 221.117 621.886 219.996 620.828 216.97V210.908ZM488.369 533.844C488.028 522.915 492.922 509.775 495.695 499.07C498.839 486.941 500.495 474.571 503.826 462.575C500.121 463.022 496.382 463.386 492.721 464.129C487.727 465.144 487.637 464.984 487.996 469.883C488.531 477.24 487.83 484.453 487.45 491.808C486.689 506.533 488.543 521.5 487.31 536.132C488.41 536.411 488.762 535.648 488.369 533.844ZM626.645 247.403C638.644 249.24 650.144 253.044 661.063 258.155C667.082 260.972 673.711 264 680.437 265.125C687.909 266.376 695.834 265.789 703.465 266.271C706.155 266.441 713.227 267.748 715.85 266.166C718.448 264.598 718.245 261.942 718.367 258.775C718.682 250.63 714.995 242.655 711.68 235.347C708.836 229.077 706.686 224.29 702.273 218.897C696.606 211.97 691.671 204.495 686.364 197.265C682.362 191.816 678.319 186.444 674.24 181.001C671.323 177.103 671.461 175.762 667.063 176.198C662.733 176.628 658.373 179.188 654.294 180.544C648.24 182.558 640.909 183.663 635.388 186.883C631.819 188.965 631.66 189.348 631.701 192.981C631.74 196.365 632.832 200.493 634.855 203.14C639.061 208.636 646.032 211.545 652.014 214.287C655.475 215.872 658.466 218.122 661.547 220.309C664.866 222.667 671.563 224.056 674.103 226.744C681.498 234.572 668.036 233.025 664.275 232.789C656.158 232.278 648.085 232.356 639.908 232.35C630.983 232.344 622.129 231.929 613.33 232.219C608.176 232.389 602.263 229.775 598.924 225.418C597.307 223.307 596.677 221.312 594.563 219.122C591.793 216.255 589.383 213.234 586.013 211.015C580.498 207.384 570.477 205.33 563.912 206.685C566.263 207.013 577.319 210.777 572.452 215.508C571.859 216.084 564.747 216.461 563.202 217.171C560.412 218.452 556.896 220.314 555.26 223.019C560.024 222.221 577.692 221.297 568.679 230.438C566.467 232.682 560.114 234.921 565.52 237.307C566.761 237.855 569.246 237.079 570.844 237.573C573.22 238.309 575.162 240.276 577.388 241.325C583.701 244.303 592.403 246.139 598.991 245.487C608.102 244.583 617.596 246.21 626.645 247.403ZM385.045 522.828C385.356 535.959 384.882 549.167 385.162 562.359C385.461 576.446 387.269 590.252 388.13 604.198C388.904 616.696 390.591 628.957 391.962 641.396C392.751 648.561 393.66 655.412 394.872 662.523C396.008 669.177 396.202 675.04 388.247 676.829C373.039 680.251 370.675 658.372 367.736 649.153C363.349 635.395 360.535 620.952 358.361 606.689C354.314 580.127 348.932 553.935 346.832 527.147C345.539 510.652 343.664 494.326 342.6 477.846C342.391 474.616 343.215 469.641 340.379 468.202C338.673 467.339 333.975 467.331 331.822 466.705C325.823 464.96 320.29 462.391 314.437 459.724C318.591 481.445 319.963 503.058 323.079 524.969C324.732 536.595 327.896 548.642 330.638 560.086C333.479 571.943 334.11 584.711 337.387 596.31C338.831 601.423 340.053 603.506 337.958 608.754C335.388 615.195 337.093 616.736 340.316 623.062C346.245 634.701 350.771 648.436 349.766 661.557C348.946 672.273 340.85 677.883 330.82 680.774C318.274 684.389 305.137 683.962 292.515 688.068C281.519 691.644 270.346 694.287 259.667 699.009C255.361 700.912 251.27 703.171 246.489 703.521C239.931 703.997 235.509 700.192 229.316 699.399C225.445 698.904 219.777 700.751 217.547 696.693C215.779 693.476 217.779 686.456 219.999 683.867C226.233 676.589 238.718 670.248 247.125 665.954C256.815 661.004 266.191 654.809 275.169 648.421C280.611 644.548 286.16 640.832 291.598 636.952C295.195 634.384 296.562 634.368 296.195 630.288C295.902 627.035 294.436 623.879 294.179 620.548C293.983 617.996 294.877 614.517 293.671 612.852C292.784 611.624 289.454 610.757 288.145 609.827C283.357 606.433 282.269 602.234 280.095 597.071C275.156 585.344 269.482 573.947 264.713 562.126C254.473 536.746 248.225 510.058 239.736 484.159C231.064 457.7 223.309 429.924 218.533 402.473C212.142 404.418 206.11 413.024 201.02 417.282C194.144 423.037 187.098 428.602 180.355 434.515C169.302 444.207 158.11 453.633 148.976 465.241C144.575 470.831 140.972 476.848 136.988 482.721C134.687 486.114 132.541 489.955 130.049 493.183C129.649 493.701 129.637 494.765 129.206 495.206C128.257 496.175 126.444 494.884 125.836 495.523C122.08 499.45 122.129 510.601 120.959 515.783C119.346 522.925 117.535 531.136 111.959 536.058C103.345 543.66 87.4604 544.838 76.5594 545.233C62.5694 545.739 48.9984 549.638 35.7254 553.825C29.5344 555.777 23.5054 558.062 17.2914 559.957C13.7173 561.05 9.64015 563.226 5.82325 562.807C1.22025 562.303 -2.41425 558.43 -5.78595 555.551C-11.18 550.946 -16.174 546.407 -15.9954 538.851C-15.8055 530.853 -11.473 524.817 -4.64785 520.844C8.54725 513.163 23.3054 508.24 37.5284 502.932C42.9784 500.897 47.6444 498.645 52.8554 495.906C60.2194 492.034 68.6954 488.874 75.2294 483.762C77.1554 482.254 84.2354 477.632 84.8384 475.249C84.9174 474.938 83.1484 471.299 83.1404 470.722C83.1234 469.237 84.0024 467.629 84.5434 466.358C87.9464 458.358 93.6544 450.654 98.0184 443.11C106.01 429.291 114.033 415.4 123.299 402.404C141.776 376.493 162.532 351.122 184.934 328.504C195.855 317.477 205.292 304.97 216.367 294.096C220.755 289.789 225.387 286.281 230.793 283.485C236.82 280.369 243.585 279.758 250.493 278.806C267.233 276.502 281.213 281.454 296.929 285.763C311.787 289.836 326.661 293.272 341.602 297.515C358.01 302.174 374.25 306.643 390.606 311.721C399.346 314.434 408.336 316.099 417.117 318.703C421.345 319.955 437.33 327.805 440.855 325.226C429.75 320.015 418.374 315.266 406.493 312.121C402.994 311.195 400.759 312.22 400.889 308.202C400.96 306.011 403.423 303.053 404.309 301.249C406.432 296.931 408.836 292.71 410.913 288.379C403.381 290.518 383.136 297.92 377.46 290.268C371.521 282.258 376.479 266.555 380.202 258.713C389.92 238.242 406.447 221.159 422.551 205.727C426.035 202.391 433.544 198.034 435.401 193.784C435.965 192.492 434.736 190.594 436.01 188.916C436.768 187.917 439.81 187.235 441.026 186.159C445.454 182.239 448.987 173.991 452.046 168.852C455.251 163.47 458.138 157.642 462.165 152.813C468.752 144.917 475.552 136.547 486.217 134.7C491.448 133.795 497.004 134.278 502.017 132.471C508.08 130.286 513.841 126.844 519.963 124.581C518.444 121.459 517.213 116.493 514.266 116.152C511.429 115.823 507.268 118.262 504.02 118.244C499.278 118.218 495.23 117.46 490.653 116.556C485.587 115.554 483.919 115.736 482.072 110.241C480.136 104.485 480.624 97.7994 480.64 91.8204C480.647 88.8994 481.227 85.2724 480.978 82.4044C480.605 78.0834 479.765 77.9173 476.378 75.1693C472.146 71.7363 466.929 67.1933 472.113 61.2279C474.914 58.0045 480.67 60.5113 483.151 57.0479C485.678 53.5203 485.556 44.6587 486.326 40.5152C478.536 44.3444 481.392 30.0293 481.391 26.5848C481.389 21.5725 478.03 12.5588 482.866 8.38894C485.113 6.45294 486.782 8.05454 489.351 6.94194C492.283 5.67224 494.129 2.34205 497.248 1.05095C503.447 -1.51605 509.777 1.57525 516.141 1.06485C523.442 0.480247 530.613 -0.648654 537.954 0.522946C541.432 1.07615 542.896 2.39735 545.839 3.87835C548.669 5.30265 551.54 5.69235 554.613 6.60885C557.349 7.42475 559.747 7.83704 561.595 10.2205C563.056 12.1063 562.461 15.278 563.936 16.9035C565.391 18.5051 568.27 18.2725 570.004 20.1746C571.669 22 572.665 25.0171 573.531 27.2888C574.7 30.3487 574.837 31.4977 576.896 33.9466C578.691 36.0837 581.275 37.8023 582.773 40.2399C586.302 45.9863 586.392 54.296 585.266 60.7602C584.883 62.9615 581.693 68.6513 582.192 70.5243C582.667 72.3073 585.659 71.8383 587.014 72.9663C588.185 73.9403 589.215 78.2813 590.138 78.5463C592.132 79.1183 594.592 75.1793 596.104 74.5883C598.73 73.5613 599.829 72.5083 601.284 76.3793C602.362 79.2513 600.86 83.1503 600.069 85.8913C599.063 89.3813 597.951 93.5844 595.285 96.2234C592.151 99.3254 589.642 97.6293 586.184 99.3003C581.001 101.804 582.53 109.634 576.153 111.872C570.076 114.004 563.38 107.296 558.784 104.212C559.736 111.698 563.32 118.912 561.6 126.584C575.577 121.108 589.401 113.336 604.633 111.624C612.4 110.75 620.247 109.716 627.578 112.94C636.161 116.714 641.419 125.039 647.228 131.956C658.145 144.956 669.347 157.591 679.825 171.01C689.436 183.319 697.539 197.581 708.118 209.107C718.844 220.794 726.94 239.757 725.765 255.941C725.66 257.402 724.528 260.721 724.705 262.296C724.843 263.503 725.94 265.033 725.922 266.006C725.863 269.281 724.781 271.167 721.659 272.983C716.247 276.135 708.184 277.73 702.068 278.512C693.942 279.552 683.991 279.664 675.861 278.554C667.477 277.407 660.107 272.714 652.396 269.878C645.633 267.389 638.841 265.835 631.734 264.247C627.814 263.371 623.474 260.946 621.051 263.293C618.827 265.45 618.365 276.518 617.847 279.461C612.224 311.36 605.542 342.178 599.624 373.914C592.917 409.886 588.33 445.844 583.666 482.121C579.426 515.098 578.041 548.447 577.092 581.393C576.64 597.109 576.574 612.656 576.67 628.385C576.724 637.193 581.127 666.593 568.07 667.719C560.397 668.382 554.259 657.381 552.203 651.382C549.114 642.368 547.505 632.662 547.012 623.193C546.016 604.024 544.71 584.841 543.936 565.665C543.099 544.889 544.164 523.73 545.872 503.023C547.591 482.177 551.922 461.635 553.25 440.758C549.265 446.445 547.99 447.514 541.352 449.99C534.406 452.584 527.724 455.651 520.715 458.069C518.331 458.891 514.61 459.406 512.655 460.753C509.048 463.237 511.418 460.418 510.266 465.253C509.036 470.419 508.804 476.62 508.477 481.928C506.942 506.838 500.041 531.571 496.858 556.35C496.09 562.332 497.186 587.729 486.89 579.725C478.961 573.561 479.118 554.2 477.99 545.131C476.488 533.042 477.325 520.613 477.562 508.451C477.833 494.6 478.066 480.072 481.371 466.548C475.457 465.536 467.232 468.293 461.28 468.757C456.126 469.158 450.99 469.413 445.865 469.695C433.644 470.366 421.055 470.901 408.627 470.661C406.364 470.617 391.584 468.548 389.695 470.216C389.081 470.758 388.893 478.211 388.779 479.121C388.344 482.545 387.754 485.966 387.314 489.371C385.91 500.257 384.643 511.946 385.045 522.828Z" fill="black"/>
<path fill-rule="evenodd" clip-rule="evenodd" d="M604.546 626.279C613.874 629.924 623.773 631.247 633.179 634.568C641.588 637.537 649.398 641.528 657.678 644.545C658.162 640.704 658.42 634.2 657.001 630.58C654.993 625.453 649.708 625.328 644.504 623.502C631.838 619.058 618.515 618.121 605.941 612.93C608.094 617.074 607.133 622.561 604.546 626.279ZM765.557 612.874C745.412 613.465 726.161 618.153 706.308 621.052C696.647 622.462 686.977 623.721 677.307 625.037C673.586 625.543 666.804 624.947 664.099 628.168C661.857 630.837 664.314 639.945 663.318 643.856C667.39 644.157 674.619 640.353 679.038 639.723C685.92 638.745 692.711 637.374 699.664 636.938C710.676 636.244 721.495 635.654 732.488 634.428C743.667 633.182 754.485 630.866 765.753 630.02C771.23 629.608 773.434 630.635 773.756 624.852C773.883 622.591 774.193 618.807 773.559 616.577C774.572 613.836 773.673 612.506 770.862 612.584C769.077 612.383 767.309 612.48 765.557 612.874ZM726.595 594.419C732.043 593.908 737.513 593.175 742.974 592.868C744.082 592.805 749.699 593.144 750.616 592.114C751.915 590.658 750.468 585.33 750.23 583.682C749.42 578.077 748.525 574.817 742.411 574.805C737.25 574.792 731.908 575.884 726.768 576.387C703.435 578.674 680.22 579.639 657.144 583.982C658.549 589.964 660.143 596.135 658.463 602.252C669.533 602.823 681.686 600.693 692.505 598.508C703.562 596.275 715.294 595.166 726.595 594.419ZM689.665 538.101C681.328 538.138 672.517 541.81 664.291 540.991C664.168 542.522 666.801 541.252 667.528 542.684C669.081 542.688 669.622 543.194 669.148 544.207C669.177 544.897 668.824 545.302 668.088 545.419C667.725 545.451 667.362 545.482 667.001 545.513C665.41 545.565 665.149 546.637 666.22 548.734C665.76 551.332 666.45 554.632 666.55 557.239C681.333 555.228 695.695 553.135 710.583 552.237C717.611 551.814 724.634 551.815 731.654 551.237C739.377 550.6 747.808 551.965 755.358 550.519C759.395 549.745 758.972 549.799 758.678 544.55C758.498 541.361 758.565 537.575 755.969 535.249C751.632 531.364 741.758 533.609 736.573 533.746C720.955 534.159 705.074 535.61 689.665 538.101ZM698.198 613.062C720.531 611.034 742.696 606.591 765.155 606.591C763.567 605.005 760.108 604.596 758.132 603.73C755.878 602.744 753.751 600.643 751.549 599.78C747.13 598.05 742.633 600.454 738.094 601.493C727.145 604 715.911 604.085 704.944 606.545C693.607 609.086 682.122 611.43 670.575 612.722C665.077 613.337 659.178 614.584 653.745 613.132C653.305 612.817 652.861 612.501 652.421 612.187C651.946 610.165 650.628 609.625 648.466 610.567C645.72 610.044 642.224 610.719 639.46 610.788C639.347 611.892 649.56 615.355 651.507 616.213C656.199 618.279 659.38 619.791 664.391 618.906C675.674 616.913 686.772 614.534 698.198 613.062ZM619.637 547.769C620.51 551.171 624.175 549.623 627.33 549.998C631.565 550.5 635.778 551.961 639.88 553.062C647.329 555.064 654.78 557.038 662.197 559.154C661.905 556.158 662.568 549.339 660.985 546.681C659.323 543.895 651.448 542.674 647.781 541.824C638.536 539.685 628.662 540.902 619.271 541.352C619.437 543.489 619.56 545.626 619.637 547.769ZM708.434 569.054C717.205 568.311 725.986 567.733 734.782 567.424C744.839 567.072 737.529 565.465 737.317 559.332C724.099 561.44 710.765 561.856 697.588 563.658C686.672 565.153 673.667 569.055 662.533 566.959C657.281 565.971 651.919 565.59 646.332 565.031C641.061 564.504 636.088 562.049 630.882 561.439C625.037 560.754 619.066 564.039 613.252 564.907C610.788 565.275 610.215 566.946 609.051 563.98C607.845 560.903 611.301 558.389 612.662 556.549C614.251 554.4 613.591 557.889 614.474 554.533C614.721 553.593 614.051 551.23 613.928 550.217C613.616 547.656 612.811 544.877 612.686 542.321C612.57 539.973 612.55 536.389 615.099 535.019C616.654 534.183 617.757 535.402 619.113 535.166C629.698 533.325 642.148 533.174 652.883 534.951C664.52 536.876 674.536 531.779 686.006 529.712C699.462 527.287 713.058 526.924 726.63 525.899C738.235 525.024 759.438 520.482 763.858 535.304C765.11 539.504 766.934 551.066 763.566 554.639C759.146 559.332 748.913 557.834 743.198 559.054C744.053 561.485 746.598 563.139 745.717 566.035C753.726 566.413 755.142 573.978 756.397 581.04C757.695 588.347 755.163 591.251 762.146 595.056C771.878 600.359 782.188 605.714 781.997 618.343C781.902 624.693 781.191 634.269 774.672 637.563C768.294 640.786 757.908 640.241 750.879 641.411C737.267 643.678 723.607 646.337 709.912 647.698C695.33 649.147 680.505 650.337 665.898 650.984C657.94 651.339 651.065 652.541 643.379 649.863C635.822 647.23 628.43 645.307 620.633 643.352C612.936 641.424 589.373 638.827 596.239 625.663C597.337 623.557 601.093 621.882 601.699 619.891C602.677 616.678 599.373 614.171 599.511 611.268C599.763 605.956 605.756 605.29 609.894 605.29C602.801 600.854 612.299 595.602 612.243 591.836C612.143 585.201 603.891 580.894 603.424 575.332C602.289 561.796 645.228 575.89 651.837 578.818C646.75 586.361 623.15 579.834 616.121 578.69C617.08 581.209 617.997 583.473 618.274 586.052C618.499 588.153 617.696 590.555 618.431 592.67C619.591 596.014 619.551 595.374 623.658 596.286C626.696 596.96 629.7 597.739 632.728 598.454C637.38 599.551 644.697 602.496 649.306 602.335C653.349 602.194 652.55 603.448 653.291 598.958C653.69 596.545 653.01 593.98 652.603 591.616C651.754 586.662 650.512 581.973 654.839 578.419C658.964 575.029 667.66 573.415 672.72 572.22C683.95 569.567 696.912 568.917 708.434 569.054Z" fill="black"/>
<path fill-rule="evenodd" clip-rule="evenodd" d="M761.875 484.497C749.678 482.453 737.286 481.95 724.946 482.569C725.614 485.623 726.283 488.676 726.953 491.728C738.514 488.751 750.242 487.006 761.875 484.497ZM662.698 508.185C657.807 507.827 661.21 510.014 662.418 513.216C663.902 517.149 663.584 522.122 663.925 526.262C678.236 520.805 694.887 517.611 710.103 515.774C717.319 514.904 724.64 514.654 731.896 514.282C734.041 514.172 741.787 515.07 743.356 513.627C744.521 512.554 743.704 506.634 742.584 505.327C736.494 498.228 712.952 504.358 704.435 504.994C690.47 506.037 676.76 508.532 662.698 508.185ZM683.024 489.161C695.696 490.378 707.932 490.262 720.605 492.161C719.644 484.106 720.792 482.05 711.654 481.622C703.511 481.242 695.394 480.934 687.289 480.938C669.062 480.948 650.878 480.6 632.631 480.6V488.786C649.507 487.058 666.115 490.179 683.024 489.161ZM622.089 519.264C630.086 519.23 637.645 522.247 645.643 523.029C650.43 523.497 648.926 524.091 652.247 526.495C657.419 530.239 658.909 528.244 658.261 523.157C656.063 505.947 634.274 509.806 621.718 508.85C622.543 512.954 620.646 516.434 617.852 519.264H622.089ZM708.531 497.169C697.028 497.355 685.512 498.009 674.089 497.77C668.976 497.663 662.352 496.65 657.341 497.522C653.67 498.16 650.6 500.03 646.574 500.725C652.488 503.91 655.486 501.758 661.704 501.033C667.916 500.31 674.22 500.324 680.458 499.946C690.701 499.326 701.62 496.872 711.712 497.54C711.896 496.118 710.837 495.994 708.531 497.169ZM617.295 534.441C612.017 534.429 619.279 528.427 620.232 527.832C614.389 527.832 612.974 524.327 614.667 518.697C616.262 513.394 617.442 515.017 613.429 510.601C610.408 507.276 609.951 504.826 613.512 501.108C617.136 497.326 624.476 498.396 627.687 495.274C633.154 489.96 626.099 479.377 633.674 475.306C638.795 472.556 647.049 472.896 652.702 472.315C658.166 471.753 663.822 471.645 669.323 471.57C681.313 471.406 693.768 473.417 705.705 474.524C710.058 474.926 714.95 476.685 719.238 476.688C723.611 476.693 728.191 475.718 732.706 475.831C737.955 475.963 743.011 475.576 748.424 476.437C752.571 477.098 762.254 477.445 765.424 480.528C775.986 490.802 750.939 495.52 746.629 496.674C751.015 501.479 750.833 507.831 750.172 513.88C752.26 513.88 755.859 512.971 756.939 515.313C758.282 518.22 753.314 518.976 752.139 519.315C745.381 521.267 737.472 520.732 730.508 521.441C716.585 522.858 702.83 523.675 689.052 526.313C682.337 527.598 675.662 529.189 668.952 530.44C667.794 530.657 666.629 530.83 665.459 530.961C663.663 530.808 663.083 531.934 663.716 534.347C661.853 535.257 654.909 532.99 652.762 532.643C640.47 530.649 629.473 531.477 617.295 534.441Z" fill="black"/>
<path fill-rule="evenodd" clip-rule="evenodd" d="M865.514 653.806C857.586 660.045 850.216 665.933 841.63 671.354C847.699 671.165 867.884 661.485 865.514 653.806ZM862.418 643.637C858.091 639.919 853.792 640.299 848.436 639.172C843.504 638.134 838.711 636.347 833.789 635.157C829.926 634.224 826.103 632.962 822.254 632.08C816.819 630.834 816.283 632.206 811.284 635.053C793.558 645.156 773.721 652.105 755.05 660.305C760.532 665.131 772.864 665.339 779.715 666.878C784.718 668 789.478 669.536 794.269 671.313C798.731 672.97 805.919 676.779 810.624 676.906C814.595 677.013 817.824 673.105 821.243 671C825.741 668.229 830.219 665.508 834.752 662.807C844.345 657.091 853.314 650.087 862.418 643.637ZM782.308 684.558C780.261 682.589 774.102 682.675 771.536 682.074C766.482 680.893 761.502 679.666 756.38 678.779C748.069 677.341 734.94 676.698 734.037 665.915C733.285 656.954 744.112 654.828 750.445 651.792C759.968 647.225 769.684 643.011 779.449 638.983C788.604 635.209 797.893 632.016 807.215 628.754C809.033 628.118 810.509 628.206 811.993 626.75C813.164 625.602 812.803 623.373 814.086 622.173C817.024 619.425 820.837 620.871 824.368 621.576C832.387 623.175 840.713 625.275 848.358 628.242C856.303 631.325 863.409 631.969 865.317 640.976C869.38 639.07 872.435 638.793 871.949 644.393C871.807 646.039 870.612 647.829 870.325 649.526C869.903 652.028 870.642 654.665 870.224 657.174C868.704 666.295 856.406 673.051 848.785 676.633C839.388 681.048 827.263 687.573 816.771 688.435C805.591 689.354 793.407 684.963 782.308 684.558Z" fill="black"/>
<path fill-rule="evenodd" clip-rule="evenodd" d="M640 533.238C636.667 533.259 633.332 533.28 630 533.301C633.326 532.676 636.661 532.669 640 533.238Z" fill="black"/>
<path fill-rule="evenodd" clip-rule="evenodd" d="M445 180.561C444 182.227 443.001 183.893 442 185.561C442.341 183.413 443.103 181.572 445 180.561Z" fill="black"/>
<path fill-rule="evenodd" clip-rule="evenodd" d="M640 581.035C642.004 581.053 644.007 581.068 646 581.087C643.992 581.072 641.997 581.054 640 581.035Z" fill="black"/>
<path fill-rule="evenodd" clip-rule="evenodd" d="M646 533.287C643.999 533.268 641.998 533.25 640 533.231C642.007 532.684 644.008 532.703 646 533.287Z" fill="black"/>
<path fill-rule="evenodd" clip-rule="evenodd" d="M725.585 249.561C725.529 247.56 725.472 245.559 725.415 243.561C725.473 245.563 725.529 247.561 725.585 249.561Z" fill="black"/>
<path fill-rule="evenodd" clip-rule="evenodd" d="M385.562 551.561C385.521 549.894 385.479 548.226 385.438 546.561C385.48 548.23 385.521 549.895 385.562 551.561Z" fill="black"/>
<path fill-rule="evenodd" clip-rule="evenodd" d="M440 470.059C441.338 470.059 442.673 470.061 444 470.063C442.661 470.063 441.33 470.061 440 470.059Z" fill="black"/>
<path fill-rule="evenodd" clip-rule="evenodd" d="M619 110.88C617.333 111.001 615.666 111.121 614 111.242C615.667 111.121 617.334 111.001 619 110.88Z" fill="black"/>
<path fill-rule="evenodd" clip-rule="evenodd" d="M576.576 599.561C576.526 598.226 576.475 596.889 576.427 595.561C576.476 596.898 576.526 598.23 576.576 599.561Z" fill="black"/>
<path fill-rule="evenodd" clip-rule="evenodd" d="M578.554 548.561C578.518 547.227 578.482 545.892 578.446 544.561C578.483 545.895 578.519 547.228 578.554 548.561Z" fill="black"/>
<path fill-rule="evenodd" clip-rule="evenodd" d="M544.428 571.561C544.476 572.896 544.526 574.232 544.573 575.561C544.525 574.224 544.476 572.894 544.428 571.561Z" fill="black"/>
<path fill-rule="evenodd" clip-rule="evenodd" d="M448 469.082C449.004 469.068 450.006 469.054 451 469.04C449.994 469.054 448.997 469.068 448 469.082Z" fill="black"/>
<path fill-rule="evenodd" clip-rule="evenodd" d="M738 521.126C739.003 521.083 740.005 521.039 741 520.996C739.994 521.04 738.996 521.083 738 521.126Z" fill="black"/>
<path fill-rule="evenodd" clip-rule="evenodd" d="M546.414 603.561C546.472 604.896 546.529 606.232 546.586 607.561C546.529 606.222 546.472 604.892 546.414 603.561Z" fill="black"/>
<path fill-rule="evenodd" clip-rule="evenodd" d="M653.601 596.561C653.534 597.897 653.466 599.232 653.399 600.561C653.466 599.225 653.534 597.893 653.601 596.561Z" fill="black"/>
<path fill-rule="evenodd" clip-rule="evenodd" d="M538.344 0.708129C536.932 0.528129 535.518 0.349627 534.104 0.169627C535.506 0.493627 537.041 -0.707871 538.344 0.708129Z" fill="black"/>
<path fill-rule="evenodd" clip-rule="evenodd" d="M477.558 513.561C477.52 514.896 477.481 516.231 477.442 517.561C477.479 516.223 477.519 514.892 477.558 513.561Z" fill="black"/>
<path fill-rule="evenodd" clip-rule="evenodd" d="M391.603 635.561C391.535 634.227 391.465 632.893 391.397 631.561C391.466 632.895 391.535 634.228 391.603 635.561Z" fill="black"/>
<path fill-rule="evenodd" clip-rule="evenodd" d="M715 523.092C716.005 523.071 717.007 523.049 718 523.03C716.994 523.052 715.997 523.072 715 523.092Z" fill="black"/>
<path fill-rule="evenodd" clip-rule="evenodd" d="M375.489 280.561C375.497 281.897 375.505 283.232 375.511 284.561C375.502 283.224 375.496 281.893 375.489 280.561Z" fill="black"/>
<path fill-rule="evenodd" clip-rule="evenodd" d="M354.508 580.561C354.504 581.896 354.499 583.233 354.492 584.561C354.496 583.224 354.502 581.892 354.508 580.561Z" fill="black"/>
<path fill-rule="evenodd" clip-rule="evenodd" d="M603.743 572.561C603.707 573.896 603.672 575.232 603.634 576.561C603.086 575.19 603.148 573.861 603.743 572.561Z" fill="black"/>
<path fill-rule="evenodd" clip-rule="evenodd" d="M577.516 566.561C577.505 565.226 577.495 563.892 577.484 562.561C577.495 563.899 577.505 565.229 577.516 566.561Z" fill="black"/>
<path fill-rule="evenodd" clip-rule="evenodd" d="M782 685.019C783.004 685.047 784.008 685.074 785 685.102C783.992 685.075 782.996 685.047 782 685.019Z" fill="black"/>
<path fill-rule="evenodd" clip-rule="evenodd" d="M746 558.078C746.669 558.066 747.339 558.055 748 558.043C747.327 558.055 746.664 558.066 746 558.078Z" fill="black"/>
<path fill-rule="evenodd" clip-rule="evenodd" d="M721 561.063C721.671 561.061 722.339 561.06 723 561.059C722.329 561.061 721.664 561.062 721 561.063Z" fill="black"/>
<path fill-rule="evenodd" clip-rule="evenodd" d="M331.56 567.561C331.52 566.561 331.479 565.559 331.44 564.561C331.481 565.563 331.521 566.563 331.56 567.561Z" fill="black"/>
<path fill-rule="evenodd" clip-rule="evenodd" d="M741 566.802C740.131 567.681 739.014 567.162 738 567.218C739 567.079 740.001 566.941 741 566.802Z" fill="black"/>
<path fill-rule="evenodd" clip-rule="evenodd" d="M622 534.808C620.68 535.432 619.345 535.518 618 534.851C619.334 534.837 620.667 534.823 622 534.808Z" fill="black"/>
<path fill-rule="evenodd" clip-rule="evenodd" d="M709 569.078C707.666 569.067 706.332 569.056 705 569.044C706.334 569.056 707.668 569.067 709 569.078Z" fill="black"/>
<path fill-rule="evenodd" clip-rule="evenodd" d="M347.539 529.561C347.515 530.564 347.488 531.565 347.461 532.561C347.486 531.557 347.512 530.558 347.539 529.561Z" fill="black"/>
<path fill-rule="evenodd" clip-rule="evenodd" d="M577.423 583.561C577.475 582.559 577.526 581.557 577.577 580.561C577.526 581.565 577.475 582.563 577.423 583.561Z" fill="black"/>
<path fill-rule="evenodd" clip-rule="evenodd" d="M715 525.893C713.667 526.005 712.333 526.117 711 526.229C712.334 526.117 713.667 526.005 715 525.893Z" fill="black"/>
<path fill-rule="evenodd" clip-rule="evenodd" d="M385.541 522.561C385.514 521.559 385.486 520.557 385.458 519.561C385.486 520.565 385.514 521.563 385.541 522.561Z" fill="black"/>
<path fill-rule="evenodd" clip-rule="evenodd" d="M552.618 445.561C552.539 446.563 552.46 447.564 552.382 448.561C552.461 447.559 552.54 446.561 552.618 445.561Z" fill="black"/>
<path fill-rule="evenodd" clip-rule="evenodd" d="M735 475.821C733.664 476.513 732.332 476.426 731 475.814C732.333 475.816 733.667 475.819 735 475.821Z" fill="black"/>
<path fill-rule="evenodd" clip-rule="evenodd" d="M576.589 614.561C576.529 613.559 576.47 612.559 576.412 611.561C576.47 612.564 576.529 613.562 576.589 614.561Z" fill="black"/>
<path fill-rule="evenodd" clip-rule="evenodd" d="M576.563 622.561C576.521 621.56 576.479 620.559 576.438 619.561C576.481 620.563 576.522 621.561 576.563 622.561Z" fill="black"/>
<path fill-rule="evenodd" clip-rule="evenodd" d="M387.479 490.561C387.494 489.56 387.507 488.557 387.521 487.561C387.506 488.565 387.493 489.562 387.479 490.561Z" fill="black"/>
<path fill-rule="evenodd" clip-rule="evenodd" d="M672 650.088C672.669 650.069 673.339 650.05 674 650.033C673.327 650.054 672.664 650.07 672 650.088Z" fill="black"/>
<path fill-rule="evenodd" clip-rule="evenodd" d="M349.581 658.561C349.527 657.56 349.473 656.559 349.419 655.561C349.474 656.562 349.527 657.562 349.581 658.561Z" fill="black"/>
<path fill-rule="evenodd" clip-rule="evenodd" d="M566 667.04C566.67 667.054 567.34 667.067 568 667.082C567.328 667.068 566.664 667.054 566 667.04Z" fill="black"/>
<path fill-rule="evenodd" clip-rule="evenodd" d="M566.417 581.561C566.474 578.56 566.528 575.56 566.584 572.561C566.527 575.562 566.473 578.561 566.417 581.561Z" fill="black"/>
<path fill-rule="evenodd" clip-rule="evenodd" d="M488.448 471.561C488.482 473.896 488.516 476.231 488.552 478.561C488.518 476.224 488.483 473.892 488.448 471.561Z" fill="black"/>
<path fill-rule="evenodd" clip-rule="evenodd" d="M316 618.03C314.331 618.05 312.659 618.07 311 618.092C312.674 618.072 314.337 618.051 316 618.03Z" fill="black"/>
<path fill-rule="evenodd" clip-rule="evenodd" d="M453 419.1C451.329 419.073 449.659 419.046 448 419.022C449.675 419.049 451.338 419.075 453 419.1Z" fill="black"/>
<path fill-rule="evenodd" clip-rule="evenodd" d="M410 458.063C411.668 458.063 413.335 458.061 415 458.059C413.333 458.059 411.667 458.062 410 458.063Z" fill="black"/>
<path fill-rule="evenodd" clip-rule="evenodd" d="M432 418.028C430.662 418.05 429.325 418.073 428 418.094C429.342 418.072 430.671 418.05 432 418.028Z" fill="black"/>
<path fill-rule="evenodd" clip-rule="evenodd" d="M324 618.072C322.663 618.064 321.326 618.057 320 618.05C321.342 618.058 322.671 618.064 324 618.072Z" fill="black"/>
<path fill-rule="evenodd" clip-rule="evenodd" d="M504 107.235C505.666 107.119 507.334 107.003 509 106.887C507.333 107.003 505.666 107.119 504 107.235Z" fill="black"/>
<path fill-rule="evenodd" clip-rule="evenodd" d="M526.407 224.561C526.469 222.894 526.531 221.227 526.593 219.561C526.53 221.229 526.469 222.895 526.407 224.561Z" fill="black"/>
<path fill-rule="evenodd" clip-rule="evenodd" d="M486 240.06C484.997 240.06 483.993 240.061 483 240.062C484.007 240.062 485.003 240.061 486 240.06Z" fill="black"/>
<path fill-rule="evenodd" clip-rule="evenodd" d="M401 415.045C399.997 415.056 398.993 415.067 398 415.077C399.007 415.068 400.003 415.056 401 415.045Z" fill="black"/>
<path fill-rule="evenodd" clip-rule="evenodd" d="M378 455.899C379.334 456.007 380.667 456.116 382 456.224C380.666 456.116 379.334 456.007 378 455.899Z" fill="black"/>
<path fill-rule="evenodd" clip-rule="evenodd" d="M375.468 506.561C375.489 505.226 375.512 503.893 375.531 502.561C375.51 503.897 375.489 505.229 375.468 506.561Z" fill="black"/>
<path fill-rule="evenodd" clip-rule="evenodd" d="M490 453.257C491.333 453.126 492.667 452.996 494 452.865C492.666 452.996 491.333 453.126 490 453.257Z" fill="black"/>
<path fill-rule="evenodd" clip-rule="evenodd" d="M581.381 429.561C581.461 428.227 581.54 426.891 581.619 425.561C581.54 426.897 581.46 428.229 581.381 429.561Z" fill="black"/>
<path fill-rule="evenodd" clip-rule="evenodd" d="M463 420.076C461.997 420.066 460.993 420.056 460 420.047C461.007 420.056 462.004 420.066 463 420.076Z" fill="black"/>
<path fill-rule="evenodd" clip-rule="evenodd" d="M375.573 581.561C375.523 580.559 375.475 579.558 375.426 578.561C375.475 579.563 375.523 580.562 375.573 581.561Z" fill="black"/>
<path fill-rule="evenodd" clip-rule="evenodd" d="M487.692 530.561C489.878 535.981 488.651 532.143 488.707 533.394C486.845 533.644 486.506 532.699 487.692 530.561Z" fill="black"/>
<path fill-rule="evenodd" clip-rule="evenodd" d="M396 415.115C394.998 415.079 393.993 415.043 393 415.006C394.009 415.042 395.003 415.078 396 415.115Z" fill="black"/>
<path fill-rule="evenodd" clip-rule="evenodd" d="M600.406 313.561C600.469 312.227 600.533 310.893 600.595 309.561C600.531 310.896 600.469 312.229 600.406 313.561Z" fill="black"/>
<path fill-rule="evenodd" clip-rule="evenodd" d="M375.505 571.561C375.502 570.227 375.498 568.894 375.495 567.561C375.498 568.898 375.501 570.23 375.505 571.561Z" fill="black"/>
<path fill-rule="evenodd" clip-rule="evenodd" d="M375.396 541.561C375.465 540.56 375.535 539.559 375.604 538.561C375.535 539.563 375.465 540.563 375.396 541.561Z" fill="black"/>
<path fill-rule="evenodd" clip-rule="evenodd" d="M583.36 410.561C583.453 409.56 583.547 408.559 583.64 407.561C583.547 408.563 583.453 409.563 583.36 410.561Z" fill="black"/>
<path fill-rule="evenodd" clip-rule="evenodd" d="M362.366 544.561C362.455 545.563 362.545 546.565 362.634 547.561C362.544 546.56 362.455 545.561 362.366 544.561Z" fill="black"/>
<path fill-rule="evenodd" clip-rule="evenodd" d="M360.352 536.561C360.451 537.562 360.549 538.564 360.648 539.561C360.549 538.558 360.451 537.559 360.352 536.561Z" fill="black"/>
<path fill-rule="evenodd" clip-rule="evenodd" d="M560.388 399.561C560.463 398.561 560.537 397.56 560.612 396.561C560.536 397.563 560.462 398.562 560.388 399.561Z" fill="black"/>
<path fill-rule="evenodd" clip-rule="evenodd" d="M50.0004 535.219C51.3324 535.114 52.6664 535.008 54.0004 534.904C52.6634 535.008 51.3314 535.114 50.0004 535.219Z" fill="black"/>
<path fill-rule="evenodd" clip-rule="evenodd" d="M551.558 559.561C551.519 560.563 551.479 561.567 551.442 562.561C551.481 561.556 551.52 560.559 551.558 559.561Z" fill="black"/>
<path fill-rule="evenodd" clip-rule="evenodd" d="M567.389 562.561C567.463 561.561 567.537 560.559 567.612 559.561C567.537 560.563 567.463 561.562 567.389 562.561Z" fill="black"/>
<path fill-rule="evenodd" clip-rule="evenodd" d="M561.342 395.561C561.447 394.56 561.554 393.56 561.658 392.561C561.553 393.563 561.447 394.562 561.342 395.561Z" fill="black"/>
<path fill-rule="evenodd" clip-rule="evenodd" d="M58.0004 534.258C59.3344 534.127 60.6684 533.995 62.0004 533.864C60.6684 533.995 59.3324 534.127 58.0004 534.258Z" fill="black"/>
<path fill-rule="evenodd" clip-rule="evenodd" d="M482 419.05C481.331 419.057 480.66 419.065 480 419.072C480.673 419.065 481.336 419.057 482 419.05Z" fill="black"/>
<path fill-rule="evenodd" clip-rule="evenodd" d="M375.505 532.561C375.502 531.559 375.498 530.558 375.495 529.561C375.498 530.564 375.502 531.561 375.505 532.561Z" fill="black"/>
<path fill-rule="evenodd" clip-rule="evenodd" d="M569.578 530.561C569.223 529.527 569.049 528.508 569.734 527.561C569.682 528.563 569.63 529.562 569.578 530.561Z" fill="black"/>
<path fill-rule="evenodd" clip-rule="evenodd" d="M552.544 511.561C552.516 512.562 552.485 513.564 552.458 514.561C552.487 513.558 552.516 512.559 552.544 511.561Z" fill="black"/>
<path fill-rule="evenodd" clip-rule="evenodd" d="M553.407 610.561C553.469 611.561 553.532 612.564 553.594 613.561C553.532 612.559 553.469 611.559 553.407 610.561Z" fill="black"/>
<path fill-rule="evenodd" clip-rule="evenodd" d="M627 246.848C628.001 246.991 629.001 247.133 630 247.275C628.999 247.132 628 246.989 627 246.848Z" fill="black"/>
<path fill-rule="evenodd" clip-rule="evenodd" d="M623 246.941C624.342 247.022 625.816 246.377 627 247.322L623 246.941Z" fill="black"/>
<path fill-rule="evenodd" clip-rule="evenodd" d="M482 245.887L486 246.235C484.665 246.119 483.334 246.003 482 245.887Z" fill="black"/>
<path fill-rule="evenodd" clip-rule="evenodd" d="M416 457.8C417.335 457.806 418.667 457.812 420 457.818C418.661 458.462 417.328 458.525 416 457.8Z" fill="black"/>
<path fill-rule="evenodd" clip-rule="evenodd" d="M379.614 625.561C379.539 624.558 379.463 623.557 379.386 622.561C379.463 623.564 379.539 624.562 379.614 625.561Z" fill="black"/>
<path fill-rule="evenodd" clip-rule="evenodd" d="M525.478 247.561C525.493 246.559 525.507 245.559 525.522 244.561C525.507 245.564 525.493 246.563 525.478 247.561Z" fill="black"/>
<path fill-rule="evenodd" clip-rule="evenodd" d="M441 458.222C442.334 458.115 443.667 458.008 445 457.899C443.666 458.008 442.334 458.115 441 458.222Z" fill="black"/>
<path fill-rule="evenodd" clip-rule="evenodd" d="M554.467 634.561C554.488 635.562 554.512 636.563 554.534 637.561C554.512 636.557 554.488 635.56 554.467 634.561Z" fill="black"/>
<path fill-rule="evenodd" clip-rule="evenodd" d="M575.363 477.561C575.455 476.56 575.547 475.559 575.637 474.561C575.546 475.563 575.454 476.561 575.363 477.561Z" fill="black"/>
<path fill-rule="evenodd" clip-rule="evenodd" d="M621.386 210.561C621.463 209.559 621.54 208.559 621.615 207.561C621.54 208.563 621.462 209.562 621.386 210.561Z" fill="black"/>
<path fill-rule="evenodd" clip-rule="evenodd" d="M526.471 124.561C526.49 125.562 526.508 126.564 526.529 127.561C526.51 126.558 526.491 125.559 526.471 124.561Z" fill="black"/>
<path fill-rule="evenodd" clip-rule="evenodd" d="M491 105.894C492.333 106.005 493.668 106.117 495 106.227C493.667 106.116 492.333 106.005 491 105.894Z" fill="black"/>
<path fill-rule="evenodd" clip-rule="evenodd" d="M291 674.257C292.334 674.126 293.666 673.996 295 673.865C293.666 673.996 292.334 674.127 291 674.257Z" fill="black"/>
<path fill-rule="evenodd" clip-rule="evenodd" d="M493 96.0623C492.331 96.0613 491.66 96.0603 491 96.0603C491.672 96.0623 492.336 96.0623 493 96.0623Z" fill="black"/>
<path fill-rule="evenodd" clip-rule="evenodd" d="M247 687.281C248.335 686.593 249.667 686.789 251 687.286C249.667 687.284 248.332 687.283 247 687.281Z" fill="black"/>
<path fill-rule="evenodd" clip-rule="evenodd" d="M766 612.015C764.662 612.045 763.326 612.076 762 612.107C763.34 612.077 764.67 612.045 766 612.015Z" fill="black"/>
<path fill-rule="evenodd" clip-rule="evenodd" d="M746 592.182C747.667 592.055 749.333 591.928 751 591.801C749.445 592.778 747.667 592.055 746 592.182Z" fill="black"/>
<path fill-rule="evenodd" clip-rule="evenodd" d="M727 594.242C728.667 594.121 730.333 594.001 732 593.88C730.334 594.001 728.667 594.121 727 594.242Z" fill="black"/>
<path fill-rule="evenodd" clip-rule="evenodd" d="M711 611.238C712.333 611.12 713.666 611.003 715 610.884C713.667 611.002 712.334 611.12 711 611.238Z" fill="black"/>
<path fill-rule="evenodd" clip-rule="evenodd" d="M718 577.052C716.997 577.059 715.994 577.066 715 577.07C716.007 577.062 717.004 577.057 718 577.052Z" fill="black"/>
<path fill-rule="evenodd" clip-rule="evenodd" d="M743 632.143C744.333 632.031 745.667 631.917 747 631.805C745.756 632.679 744.35 632.176 743 632.143Z" fill="black"/>
<path fill-rule="evenodd" clip-rule="evenodd" d="M700 536.063C698.996 536.062 697.993 536.06 697 536.059C698.008 536.06 699.004 536.062 700 536.063Z" fill="black"/>
<path fill-rule="evenodd" clip-rule="evenodd" d="M690 538.056C689.331 538.061 688.661 538.063 688 538.065C688.673 538.062 689.336 538.059 690 538.056Z" fill="black"/>
<path fill-rule="evenodd" clip-rule="evenodd" d="M666 540.842C665.664 541.664 663.897 541.559 664.005 540.715C664.669 540.757 665.334 540.8 666 540.842Z" fill="black"/>
<path fill-rule="evenodd" clip-rule="evenodd" d="M619.439 544.561C619.48 545.561 619.521 546.563 619.561 547.561C619.52 546.559 619.48 545.559 619.439 544.561Z" fill="black"/>
<path fill-rule="evenodd" clip-rule="evenodd" d="M756 549.862C757 549.845 758 549.829 759 549.812C758.012 550.518 757.011 550.419 756 549.862Z" fill="black"/>
<path fill-rule="evenodd" clip-rule="evenodd" d="M718 535.047C717.331 535.057 716.661 535.067 716 535.075C716.673 535.066 717.336 535.057 718 535.047Z" fill="black"/>
<path fill-rule="evenodd" clip-rule="evenodd" d="M692 598.248C693.334 598.123 694.668 597.999 696 597.874C694.666 597.999 693.334 598.123 692 598.248Z" fill="black"/>
<path fill-rule="evenodd" clip-rule="evenodd" d="M706 636.27C707.336 635.782 708.671 635.615 710 636.282C708.666 636.278 707.333 636.274 706 636.27Z" fill="black"/>
<path fill-rule="evenodd" clip-rule="evenodd" d="M703.88 498.429L702 497.779C704.333 497.75 706.667 497.721 709 497.693C709.005 497.694 704.149 498.45 703.88 498.429Z" fill="black"/>
<path fill-rule="evenodd" clip-rule="evenodd" d="M686 481.063C684.329 481.062 682.659 481.06 681 481.059C682.673 481.061 684.337 481.063 686 481.063Z" fill="black"/>
<path fill-rule="evenodd" clip-rule="evenodd" d="M623 519.288C624.664 518.622 626.331 518.752 628 519.27C626.333 519.276 624.667 519.282 623 519.288Z" fill="black"/>
<path fill-rule="evenodd" clip-rule="evenodd" d="M724 503.043C722.997 503.055 721.993 503.067 721 503.079C722.007 503.066 723.003 503.055 724 503.043Z" fill="black"/>
<path fill-rule="evenodd" clip-rule="evenodd" d="M703 489.897C704.668 490.006 706.335 490.115 708 490.225C706.334 490.114 704.666 490.006 703 489.897Z" fill="black"/>
<path fill-rule="evenodd" clip-rule="evenodd" d="M684 488.897C685.334 489.006 686.667 489.116 688 489.225C686.666 489.115 685.333 489.006 684 488.897Z" fill="black"/>
<path fill-rule="evenodd" clip-rule="evenodd" d="M665 508.082C664.33 508.068 663.662 508.054 663 508.04C663.672 508.054 664.336 508.068 665 508.082Z" fill="black"/>
<path fill-rule="evenodd" clip-rule="evenodd" d="M686 498.123C685.33 498.082 684.661 498.04 684 497.999C684.672 498.04 685.336 498.082 686 498.123Z" fill="black"/>
<path fill-rule="evenodd" clip-rule="evenodd" d="M673 498.088C672.33 498.069 671.66 498.05 671 498.033C671.672 498.052 672.336 498.07 673 498.088Z" fill="black"/>
<path fill-rule="evenodd" clip-rule="evenodd" d="M709 497.158C709 497.417 712.012 496.103 712 497.325L709 497.158Z" fill="black"/>
<path fill-rule="evenodd" clip-rule="evenodd" d="M698 481.059C697.33 481.06 696.661 481.062 696 481.063C696.673 481.062 697.336 481.06 698 481.059Z" fill="black"/>
<path fill-rule="evenodd" clip-rule="evenodd" d="M343 433.637C344.083 429.218 343.788 425.76 347.645 428.584C349.761 430.135 353.251 437.997 352.986 440.66C352.66 443.945 351.162 445.254 348.07 444.209C344.516 443.005 343.106 436.943 343 433.637Z" fill="black"/>
<path fill-rule="evenodd" clip-rule="evenodd" d="M537.83 406.808C546.786 406.808 542.878 416.339 535.413 416.552C531.983 416.651 527.048 415.974 528.16 411.382C528.754 408.931 537.456 405.627 537.83 406.808Z" fill="black"/>
<path fill-rule="evenodd" clip-rule="evenodd" d="M441.774 425.561C448.239 428.689 439.143 442.424 433.269 439.024C425.747 434.672 439.116 427.521 441.774 425.561Z" fill="black"/>
<path fill-rule="evenodd" clip-rule="evenodd" d="M426.044 438.561C428.16 440.869 437.696 448.694 432.44 451.841C425.976 455.71 421.056 442.937 426.044 438.561Z" fill="black"/>
<path fill-rule="evenodd" clip-rule="evenodd" d="M317.678 432.561C315.575 428.494 318.469 417.851 324.891 419.796C331.353 421.755 321.234 431.481 317.678 432.561Z" fill="black"/>
<path fill-rule="evenodd" clip-rule="evenodd" d="M460.34 434.905C464.533 433.217 463.734 438.211 464.368 439.822C465.086 441.652 468.778 446.11 467.852 448.058C466.478 450.949 463.193 449.106 461.409 447.23C458.282 443.939 458.504 438.661 460.34 434.905Z" fill="black"/>
<path fill-rule="evenodd" clip-rule="evenodd" d="M396.44 439.534C392.946 439.534 384.603 429.458 389.505 427.767C395.589 425.669 400.676 440.274 396.44 439.534Z" fill="black"/>
<path fill-rule="evenodd" clip-rule="evenodd" d="M517.208 423.561C520.409 424.35 524.645 433.412 519.821 434.463C514.481 435.628 513.528 426.067 517.208 423.561Z" fill="black"/>
<path fill-rule="evenodd" clip-rule="evenodd" d="M497.803 440.561C495.292 435.727 494.674 425.379 500.803 433.685C502.131 435.484 503.501 434.756 502.819 437.724C502.223 440.315 499.844 440.561 497.803 440.561Z" fill="black"/>
<path fill-rule="evenodd" clip-rule="evenodd" d="M365.585 415.561C368.143 419.412 367.388 431.487 362.042 424.345C359.768 421.309 361.334 415.705 365.585 415.561Z" fill="black"/>
<path fill-rule="evenodd" clip-rule="evenodd" d="M494.188 52.6592C499.152 51.3777 500.342 63.0806 497.447 64.3706C493.394 66.1759 493.902 54.6168 494.188 52.6592Z" fill="black"/>
<path fill-rule="evenodd" clip-rule="evenodd" d="M808.156 647.21C803.549 646.941 797.095 645.684 804.074 642.415C808.501 640.343 815.084 640.199 819.759 641.049C822.982 641.635 827.817 644.306 822.9 647.769C820.021 649.794 811.656 647.309 808.156 647.21Z" fill="black"/>
<path fill-rule="evenodd" clip-rule="evenodd" d="M802.993 655.561C801.66 655.411 800.329 655.26 799 655.112C800.068 653.173 803.171 652.766 802.993 655.561Z" fill="black"/>
<path fill-rule="evenodd" clip-rule="evenodd" d="M809 647.017C810.337 647.046 811.674 647.077 813 647.105C811.659 647.076 810.329 647.046 809 647.017Z" fill="black"/>
</svg>
